<svg width="367" height="119" viewBox="0 0 367 119" fill="none" xmlns="http://www.w3.org/2000/svg">
<path d="M29.9297 70.6172C29.9297 70.9453 29.8359 71.25 29.6484 71.5312C29.2578 72.1094 28.6719 72.3984 27.8906 72.3984H17.1797C14.6797 92.1172 13.3594 102.344 13.2188 103.078C13.2031 103.172 13.1875 103.266 13.1719 103.359C12.9219 104.453 12.2891 105 11.2734 105C10.8984 105 10.5703 104.898 10.2891 104.695C9.69531 104.289 9.39844 103.633 9.39844 102.727C9.39844 102.539 10.3438 95.4141 12.2344 81.3516C12.875 76.6172 13.2734 73.6328 13.4297 72.3984H3.42188C3.0625 72.3984 2.71875 72.3438 2.39062 72.2344C1.5625 71.9531 1.14844 71.4375 1.14844 70.6875C1.14844 70.3125 1.24219 69.9609 1.42969 69.6328C1.80469 69.0078 2.39062 68.6953 3.1875 68.6953H27.9375C28.1562 68.6953 28.3906 68.7422 28.6406 68.8359C29.5 69.1641 29.9297 69.7578 29.9297 70.6172ZM47.625 103.078C47.625 103.094 47.6172 103.125 47.6016 103.172C47.4297 104.391 46.8047 105 45.7266 105C45.3516 105 45.0234 104.906 44.7422 104.719C44.1172 104.312 43.8047 103.648 43.8047 102.727L45.3984 90.4219H34.6406C34.0312 95.4062 33.4766 99.625 32.9766 103.078C32.7578 104.344 32.1172 104.984 31.0547 105C30.7109 105 30.4062 104.914 30.1406 104.742C29.4844 104.32 29.1562 103.641 29.1562 102.703C29.25 101.891 30.1562 95.0938 31.875 82.3125C32.9375 74.4531 33.4688 70.5 33.4688 70.4531C33.4688 70.2188 33.5625 69.9453 33.75 69.6328C34.1719 68.9609 34.6953 68.625 35.3203 68.625C35.6172 68.625 35.8984 68.7031 36.1641 68.8594C36.7734 69.2188 37.1016 69.75 37.1484 70.4531L35.1328 86.6016C37.6484 86.5703 41.2422 86.5547 45.9141 86.5547C46.0703 85.2891 46.3516 83.125 46.7578 80.0625C47.3047 76.0156 47.7266 72.8125 48.0234 70.4531C48.0547 70.2188 48.1172 69.9844 48.2109 69.75C48.5547 69 49.1328 68.625 49.9453 68.625C50.2422 68.625 50.5312 68.7031 50.8125 68.8594C51.4375 69.2188 51.7734 69.75 51.8203 70.4531L49.7812 86.5547H55.6875C56.0469 86.5547 56.3828 86.6172 56.6953 86.7422C57.4766 87.0859 57.8672 87.6719 57.8672 88.5C57.8672 88.75 57.8047 89 57.6797 89.25C57.3672 89.8906 56.7578 90.2812 55.8516 90.4219H49.3125C48.3438 97.9531 47.7812 102.172 47.625 103.078ZM65.2031 68.6719C65.2031 68.6719 70.2109 68.6719 80.2266 68.6719C80.5391 68.6719 80.8281 68.7109 81.0938 68.7891C81.9531 69.0703 82.3828 69.6641 82.3828 70.5703C82.3828 70.8203 82.3281 71.0547 82.2188 71.2734C81.9062 71.9453 81.2812 72.3516 80.3438 72.4922H66.8438L65.2031 85.3125H74.9297C75.3047 85.3125 75.6562 85.3828 75.9844 85.5234C76.75 85.8672 77.1328 86.4531 77.1328 87.2812C77.1328 87.5 77.0938 87.7109 77.0156 87.9141C76.7344 88.6016 76.0938 89.0234 75.0938 89.1797H64.7344L63.1875 101.133H76.5234C76.8828 101.133 77.2188 101.188 77.5312 101.297C78.3438 101.625 78.75 102.219 78.75 103.078C78.75 103.266 78.7188 103.461 78.6562 103.664C78.4062 104.398 77.7656 104.844 76.7344 105H61.1016C60.7109 105 60.3516 104.898 60.0234 104.695C59.3984 104.273 59.0859 103.617 59.0859 102.727C59.0859 102.508 60.5 91.75 63.3281 70.4531C63.3594 70.2188 63.4219 70 63.5156 69.7969C63.8438 69.0469 64.4062 68.6719 65.2031 68.6719Z" fill="#3E2492"/>
<path d="M56.3672 15.3438C63.0078 15.375 66.3906 17.8594 66.5156 22.7969C66.4844 26.9844 65.0781 30.1719 62.2969 32.3594C66.4844 33.625 68.5859 36.3984 68.6016 40.6797C68.4922 42.4141 68.125 43.9609 67.5 45.3203C65.3906 49.8828 60.4531 52.1641 52.6875 52.1641C51.75 52.1641 50.3438 52.1094 48.4688 52C48.0938 52 47.75 51.8984 47.4375 51.6953C46.8281 51.2578 46.5234 50.6016 46.5234 49.7266L50.7891 17.4531C50.8047 17.1875 50.8672 16.9297 50.9766 16.6797C51.3047 15.9766 51.8672 15.625 52.6641 15.625C53.9609 15.4375 55.1953 15.3438 56.3672 15.3438ZM52.3359 35.1016C52.3359 35.1016 51.75 39.5234 50.5781 48.3672C51.4688 48.4297 52.1641 48.4609 52.6641 48.4609C55.1172 48.4609 57.2656 48.1719 59.1094 47.5938C62.9375 46.375 64.8516 44.0703 64.8516 40.6797C64.8359 38.3672 63.3047 36.7812 60.2578 35.9219C58.6172 35.4844 55.9766 35.2109 52.3359 35.1016ZM54.3281 18.9297L52.7812 31.2344C53.2969 31.2344 53.7734 31.2188 54.2109 31.1875C59.9297 30.875 62.7891 28.1016 62.7891 22.8672C62.7734 21.5859 62.25 20.6016 61.2188 19.9141C60.0938 19.2109 58.1719 18.8594 55.4531 18.8594C55.0938 18.8594 54.7188 18.8828 54.3281 18.9297ZM79.4531 15.6719C79.4531 15.6719 84.4609 15.6719 94.4766 15.6719C94.7891 15.6719 95.0781 15.7109 95.3438 15.7891C96.2031 16.0703 96.6328 16.6641 96.6328 17.5703C96.6328 17.8203 96.5781 18.0547 96.4688 18.2734C96.1562 18.9453 95.5312 19.3516 94.5938 19.4922H81.0938L79.4531 32.3125H89.1797C89.5547 32.3125 89.9062 32.3828 90.2344 32.5234C91 32.8672 91.3828 33.4531 91.3828 34.2812C91.3828 34.5 91.3438 34.7109 91.2656 34.9141C90.9844 35.6016 90.3438 36.0234 89.3438 36.1797H78.9844L77.4375 48.1328H90.7734C91.1328 48.1328 91.4688 48.1875 91.7812 48.2969C92.5938 48.625 93 49.2188 93 50.0781C93 50.2656 92.9688 50.4609 92.9062 50.6641C92.6562 51.3984 92.0156 51.8438 90.9844 52H75.3516C74.9609 52 74.6016 51.8984 74.2734 51.6953C73.6484 51.2734 73.3359 50.6172 73.3359 49.7266C73.3359 49.5078 74.75 38.75 77.5781 17.4531C77.6094 17.2188 77.6719 17 77.7656 16.7969C78.0938 16.0469 78.6562 15.6719 79.4531 15.6719Z" fill="#3E2492"/>
<path d="M222.422 60.5156C217.234 60.5156 211.781 60.5156 206.062 60.5156C200.375 60.5156 195.906 60.7188 192.656 61.125V62.2031C192.812 70.2656 194.75 76.8125 198.469 81.8438C202.594 87.4375 209 91.1406 217.688 92.9531C221.875 93.8281 224.469 94.2656 225.469 94.2656C226.469 94.2656 227.391 94.0469 228.234 93.6094C229.078 93.1719 229.844 92.6875 230.531 92.1562C231.219 91.625 231.844 91.1406 232.406 90.7031C233 90.2656 233.547 90.0469 234.047 90.0469C234.953 90.0469 235.406 90.5625 235.406 91.5938C235.406 92.625 235.141 93.8125 234.609 95.1562C233.453 98.0625 232.812 100.984 232.688 103.922C232.625 105.297 232.141 105.984 231.234 105.984C230.016 105.984 228.453 104.469 226.547 101.438C225.422 99.6875 223.75 98.625 221.531 98.25C203.531 95.6875 192.719 87.25 189.094 72.9375C188.344 69.875 187.969 66.1562 187.969 61.7812C187.969 57.375 188.641 53.2812 189.984 49.5C191.359 45.6875 193.141 42.3594 195.328 39.5156C197.516 36.6406 199.969 34.2188 202.688 32.25C205.406 30.25 208.141 28.625 210.891 27.375C215.828 25.0937 220.531 23.7812 225 23.4375C226.594 23.375 228.234 22.1563 229.922 19.7812C231.578 17.5 232.906 16.3594 233.906 16.3594C235.469 16.3594 235.969 17.4062 235.406 19.5C234.969 21.25 235.125 24.3594 235.875 28.8281C236.062 29.9844 235.984 30.7969 235.641 31.2656C235.297 31.7344 234.938 31.9688 234.562 31.9688C233.781 31.9688 233.016 31.4062 232.266 30.2812C231.047 28.5313 229.141 27.6562 226.547 27.6562C223.578 27.6562 221.031 27.9844 218.906 28.6406C216.812 29.2656 214.719 30.125 212.625 31.2188C210.562 32.2812 208.484 33.6094 206.391 35.2031C204.297 36.7969 202.359 38.625 200.578 40.6875C196.578 45.375 194.094 50.4844 193.125 56.0156C194 56.0781 194.938 56.1094 195.938 56.1094H199.219C204.781 56.1094 212.625 55.9219 222.75 55.5469C223.344 55.5156 224.203 55.0625 225.328 54.1875C228.609 51.6875 230.641 50.4375 231.422 50.4375C232.547 50.4375 233.109 51.1562 233.109 52.5938L231.75 58.7812C231.594 59.7188 231.516 60.7188 231.516 61.7812L231.609 63.6094C231.609 65.1719 231.094 65.9531 230.062 65.9531C229.438 65.9531 228.859 65.6875 228.328 65.1562C227.828 64.5938 227.297 63.9688 226.734 63.2812C225.266 61.5312 223.828 60.6094 222.422 60.5156ZM252.281 96.2812C249.75 96.2812 248.484 95.7031 248.484 94.5469C248.484 93.9844 248.703 93.4688 249.141 93C249.578 92.5 250.016 92 250.453 91.5C250.891 90.9688 251.391 90.4531 251.953 89.9531C252.516 89.4531 253.031 88.9688 253.5 88.5C254.656 87.4375 255.234 86.6875 255.234 86.25C255.234 79.7812 255.469 72.4844 255.938 64.3594C256.781 48.9531 257.203 38.0156 257.203 31.5469C257.203 30.5156 256.219 29 254.25 27C252.5 25.2812 251.625 23.9687 251.625 23.0625C251.625 21.8125 252.562 21.3906 254.438 21.7969L257.484 22.4531C259.047 22.7344 260.719 22.75 262.5 22.5C264.312 22.25 265.578 22.125 266.297 22.125C267.828 22.125 268.594 22.5781 268.594 23.4844C268.594 24.0469 268.094 24.7344 267.094 25.5469C264.531 27.2656 262.781 29.25 261.844 31.5C261.656 32.0312 261.469 35.6875 261.281 42.4688C261.125 49.2188 260.969 55.0625 260.812 60L259.922 84.8438C265.797 86.4375 275.141 87.8125 287.953 88.9688C289.516 88.9688 291.469 87.8906 293.812 85.7344C294.406 85.1719 294.984 84.8906 295.547 84.8906C296.766 84.8906 297.375 85.6094 297.375 87.0469L295.875 93.375C295.688 94.3125 295.594 95.3125 295.594 96.375L295.688 98.0625C295.688 99.6562 295.156 100.453 294.094 100.453C293.5 100.453 292.938 100.156 292.406 99.5625C291.906 99 291.375 98.3438 290.812 97.5938C289.281 95.5625 287.906 94.375 286.688 94.0312C285.5 93.7188 284.188 93.4062 282.75 93.0938C281.344 92.8125 279.828 92.5312 278.203 92.25C276.609 91.9688 274.969 91.7031 273.281 91.4531C271.625 91.1719 270 90.9219 268.406 90.7031L260.203 89.5781C260.547 91.6406 261.031 93.1406 261.656 94.0781C262.656 95.6406 263.156 96.6406 263.156 97.0781C263.156 98.2969 262 98.7656 259.688 98.4844C258.938 98.3906 257.922 98.1094 256.641 97.6406C254.297 96.7344 252.844 96.2812 252.281 96.2812ZM311.203 96.8438C309.578 96.8438 308.922 95.9375 309.234 94.125C309.297 93.75 309.609 93.4062 310.172 93.0938C310.734 92.8125 311.359 92.375 312.047 91.7812C312.734 91.1875 313.312 90.5938 313.781 90C314.781 88.75 315.359 87.7344 315.516 86.9531C315.516 86.9531 315.5 86.4062 315.469 85.3125L315.281 73.9688C315.281 73.9688 315.156 68.0625 314.906 56.25C314.5 35.6562 313.984 23.625 313.359 20.1562C313.141 19.0937 312.469 18.0781 311.344 17.1094C310.219 16.1094 309.422 15.3437 308.953 14.8125C308.484 14.25 308.25 13.6562 308.25 13.0312C308.25 12.375 308.5 11.9219 309 11.6719C309.5 11.3906 310.422 11.2188 311.766 11.1562C315.734 11.0312 318.281 10.8438 319.406 10.5938C320.656 10.2812 321.422 10.125 321.703 10.125C322.859 10.125 323.438 10.7656 323.438 12.0469C323.438 12.4531 323.109 13.0156 322.453 13.7344C321.828 14.4531 321.297 15.0625 320.859 15.5625C320.422 16.0625 320 16.5469 319.594 17.0156C319.188 17.4531 318.875 17.8125 318.656 18.0938C318.344 18.5625 318.203 19.0781 318.234 19.6406V29.8125C319.266 25.75 321.625 22.4062 325.312 19.7812C330 16.4375 335.031 15.3125 340.406 16.4062C347.438 17.875 352 22.1406 354.094 29.2031C354.688 31.2031 354.984 33.75 354.984 36.8438C354.984 39.9062 354.484 42.8594 353.484 45.7031C352.484 48.5156 351.109 50.9062 349.359 52.875C345.734 56.9375 341.031 58.9688 335.25 58.9688C330.375 58.9688 326 56.9375 322.125 52.875C320.719 51.4062 319.547 49.5781 318.609 47.3906C319.547 68.9531 320.016 80.7344 320.016 82.7344C320.016 84.7031 320.188 86.0938 320.531 86.9062C320.875 87.7188 321.312 88.4844 321.844 89.2031L325.312 93.4219C326 94.3281 326.344 95.0156 326.344 95.4844C326.344 96.6406 325.625 97.2188 324.188 97.2188C323.812 97.2188 323.078 97.0938 321.984 96.8438C320.922 96.625 319.141 96.5156 316.641 96.5156L311.203 96.8438ZM330 53.5781C333.438 55.1719 337 55.25 340.688 53.8125C344.438 52.3438 347.188 49.375 348.938 44.9062C349.812 42.625 350.25 40.0938 350.25 37.3125C350.25 34.5 350 32.2344 349.5 30.5156C349.031 28.7656 348.406 27.2812 347.625 26.0625C346.844 24.8438 345.953 23.8594 344.953 23.1094C343.953 22.3281 342.938 21.7187 341.906 21.2812C340.125 20.5312 338.109 20.1562 335.859 20.1562C333.609 20.1562 331.469 20.7031 329.438 21.7969C327.438 22.8594 325.75 24.2188 324.375 25.875C321.5 29.3438 320.062 33.1406 320.062 37.2656C320.062 42.2344 321.734 46.4688 325.078 49.9688C326.547 51.5312 328.188 52.7344 330 53.5781Z" fill="url(#paint0_linear)"/>
<path d="M96.3281 102.949C96.3281 102.246 96.5625 101.602 97.0312 101.016C97.5 100.43 98.125 99.5898 98.9062 98.4961C99.6875 97.4023 100.508 96.2695 101.367 95.0977C102.266 93.8867 102.734 92.8906 102.773 92.1094L104.238 33.9258C104.434 27.4023 104.688 21.2109 105 15.3516C105 14.4531 104.492 13.5352 103.477 12.5977L98.6719 8.26172C97.7344 7.32422 97.2656 6.42578 97.2656 5.56641C97.2656 4.35547 98.0273 3.75 99.5508 3.75L105.176 4.39453C107.246 4.39453 109.199 4.19922 111.035 3.80859C113.652 3.26172 115.527 2.98828 116.66 2.98828C117.832 2.98828 118.418 3.53516 118.418 4.62891C118.418 5.48828 117.852 6.36719 116.719 7.26562C115.625 8.16406 114.688 9.08203 113.906 10.0195C113.125 10.918 112.48 11.7969 111.973 12.6562C110.996 14.2969 110.508 15.6445 110.508 16.6992C110.508 19.6289 110.195 30.7812 109.57 50.1562C127.422 50.8594 147.539 50.7031 169.922 49.6875C169.922 33.2812 170.156 20.8984 170.625 12.5391C170.625 11.6016 170.117 10.6641 169.102 9.72656L164.297 5.39062C163.359 4.45312 162.891 3.55469 162.891 2.69531C162.891 1.48437 163.652 0.878906 165.176 0.878906L170.801 1.52344C172.871 1.52344 174.824 1.32813 176.66 0.9375C179.277 0.390625 181.152 0.117188 182.285 0.117188C183.457 0.117188 184.043 0.664062 184.043 1.75781C184.043 2.61719 183.477 3.49609 182.344 4.39453C181.25 5.29297 180.312 6.21094 179.531 7.14844C178.75 8.08594 178.105 8.98437 177.598 9.84375C176.621 11.4453 176.113 12.9102 176.074 14.2383C176.074 15.5273 176.055 17.7344 176.016 20.8594C175.977 23.9453 175.918 27.5195 175.84 31.582C175.801 35.6445 175.742 40 175.664 44.6484C175.625 49.2969 175.586 53.9062 175.547 58.4766C175.273 78.0859 175.254 88.7109 175.488 90.3516C175.762 91.9531 176.016 93.0078 176.25 93.5156C176.523 94.0234 176.855 94.4922 177.246 94.9219L180.703 98.7305C181.602 99.9023 182.051 100.801 182.051 101.426C182.051 102.754 180.879 103.418 178.535 103.418L172.676 103.301C171.504 103.301 170.234 103.438 168.867 103.711C165.039 104.492 163.125 103.867 163.125 101.836C163.125 101.133 163.359 100.488 163.828 99.9023C164.297 99.3164 164.922 98.4766 165.703 97.3828L168.164 93.8672C169.062 92.6562 169.531 91.6602 169.57 90.8789C169.688 87.168 169.805 75.1953 169.922 54.9609C139.492 56.0156 119.316 56.2305 109.395 55.6055C108.613 78.457 108.379 90.6055 108.691 92.0508C109.043 93.4961 109.434 94.5703 109.863 95.2734C110.332 95.9375 110.898 96.6016 111.562 97.2656C112.227 97.8906 112.891 98.5938 113.555 99.375C116.289 102.812 115.684 104.531 111.738 104.531L105.879 104.414C104.707 104.414 103.438 104.551 102.07 104.824C98.2422 105.605 96.3281 104.98 96.3281 102.949Z" fill="url(#paint1_linear)"/>
<defs>
<linearGradient id="paint0_linear" x1="275" y1="46" x2="275" y2="119" gradientUnits="userSpaceOnUse">
<stop offset="0.0104167" stop-color="#7159C1"/>
<stop offset="1" stop-color="#EA80FC"/>
</linearGradient>
<linearGradient id="paint1_linear" x1="128.5" y1="48" x2="128.5" y2="104" gradientUnits="userSpaceOnUse">
<stop offset="0.0104167" stop-color="#7159C1"/>
<stop offset="1" stop-color="#EA80FC"/>
</linearGradient>
</defs>
</svg>
