<svg width="554" height="600" viewBox="0 0 554 600" fill="none" xmlns="http://www.w3.org/2000/svg">
<path d="M514.748 388.465C514.435 387.896 514.122 387.328 513.809 386.759C510.736 381.18 507.662 375.6 504.589 370.021C502.228 365.733 499.415 361.58 498.2 356.451C496.993 351.355 498.604 346.3 498.147 341.077C497.792 337.02 496.562 333.21 495.471 329.408C494.367 325.56 493.696 321.917 493.44 317.845C492.973 310.407 492.525 302.426 494.334 295.265C495.651 290.05 497.192 284.469 497.322 278.897C497.359 277.329 497.323 275.305 496.448 274.058C494.796 271.702 492.196 273.263 491.158 275.511C489.739 278.583 489.362 282.568 488.862 286.047C487.72 293.988 486.643 308.203 483.122 307.355C481.459 306.954 481.039 303.165 480.802 301.483C480.341 298.202 480.126 294.753 480.205 291.437C480.394 283.527 480.687 275.456 480.333 267.538C480.182 264.16 479.809 252.672 475.636 252.966C471.39 253.266 471.15 262.896 471.01 266.794C470.9 269.827 470.867 272.957 471.091 275.991C471.421 280.455 471.346 284.991 471.575 289.493C471.797 293.851 472.154 298.199 472.646 302.524C472.723 303.199 472.789 303.954 472.482 304.498C471.261 306.663 469.581 298.997 469.392 298.123C468.215 292.675 467.723 287.05 466.649 281.571C465.276 274.562 463.702 267.466 461.817 260.661C461.098 258.065 460.217 255.139 458.63 253.216C456.735 250.919 453.461 251.991 452.457 255.004C451.781 257.033 452.281 259.349 452.843 261.341C453.536 263.798 454.287 266.132 454.84 268.662C456.097 274.415 456.814 280.506 457.73 286.425C458.203 289.476 458.732 292.517 459.43 295.5C460.117 298.435 461.24 301.262 461.638 304.294C461.715 304.884 461.767 305.52 461.565 306.052C461.314 306.712 460.708 307.048 460.142 306.994C457.84 306.775 457.605 302.929 456.991 300.718C455.816 296.48 454.165 292.607 452.632 288.585C450.618 283.281 448.728 277.85 446.751 272.57C445.531 269.314 443.266 265.189 440.117 266.787C437.164 268.285 437.561 272.923 438.346 276.195C439.447 280.783 441.668 284.945 443.107 289.424C444.647 294.216 446.381 298.898 447.946 303.66C449.442 308.214 449.971 313.301 451.359 317.94C452.868 322.977 455.231 327.408 454.294 333.08C453.984 334.957 453.275 336.794 452.063 337.86C448.676 340.837 443.525 338.371 440.281 336.007C436.961 333.587 433.409 331.664 429.63 331.071C427.445 330.728 425.062 330.548 422.964 331.5C421.064 332.36 419.085 334.852 419.513 337.75C420.048 341.375 424.147 342.728 426.435 343.477C435.889 346.576 444.533 353.714 444.533 353.714C444.533 353.714 459.437 369.027 464.902 372.462C467.916 374.354 471.472 374.619 474.115 377.433C478.125 381.7 480.739 389.308 483.636 394.926C485.524 398.59 487.413 402.253 489.304 405.916C494.018 415.055 498.735 424.191 503.452 433.327C507.307 440.794 511.163 448.26 515.019 455.726L514.748 388.465" fill="white"/>
<path d="M126.022 551.999C126.547 547.5 127.072 543.001 127.597 538.502C128.602 529.885 129.607 521.267 130.613 512.65C131.813 502.356 133.014 492.063 134.214 481.769C135.492 470.822 136.769 459.874 138.046 448.927C139.28 438.348 140.514 427.768 141.748 417.189C142.82 407.999 143.892 398.809 144.964 389.619C145.755 382.842 146.545 376.063 147.336 369.285C147.944 364.076 149 358.723 148.293 353.434C147.589 348.179 144.389 344.61 142.973 339.682C141.874 335.854 141.64 331.733 141.285 327.701C140.925 323.621 140.252 319.976 139.058 316.192C136.878 309.281 134.491 301.896 130.38 296.563C127.386 292.68 124.065 288.6 122.004 283.703C121.424 282.325 120.75 280.498 121.093 278.873C121.743 275.805 124.604 275.675 126.314 277.074C128.651 278.985 130.378 282.321 132.038 285.133C135.828 291.553 141.748 303.609 144.59 300.791C145.932 299.46 144.984 295.833 144.607 294.193C143.873 290.994 142.86 287.79 141.633 284.877C138.704 277.928 135.624 270.896 133.177 263.623C132.132 260.518 128.455 250.047 132.275 247.868C136.163 245.651 139.738 254.104 141.224 257.502C142.38 260.144 143.503 262.918 144.362 265.757C145.627 269.934 147.277 273.939 148.644 278.091C149.967 282.11 151.167 286.2 152.238 290.348C152.405 290.995 152.61 291.707 153.073 292.014C154.917 293.231 153.738 285.406 153.601 284.516C152.748 278.964 151.223 273.656 150.268 268.138C149.045 261.077 147.97 253.824 147.274 246.647C147.009 243.909 146.772 240.782 147.515 238.137C148.402 234.978 151.693 234.018 153.639 236.119C154.951 237.535 155.313 239.895 155.507 242.001C155.747 244.6 155.893 247.122 156.283 249.704C157.172 255.575 158.659 261.43 159.909 267.248C160.553 270.249 161.142 273.273 161.562 276.344C161.974 279.365 161.96 282.546 162.664 285.484C162.801 286.057 162.977 286.654 163.343 287.011C163.797 287.453 164.454 287.397 164.939 287.018C166.914 285.476 165.781 281.905 165.556 279.573C165.124 275.104 165.244 270.68 165.206 266.193C165.148 260.281 164.936 254.328 164.856 248.458C164.806 244.838 165.385 239.83 168.748 239.413C171.901 239.022 173.167 243.394 173.609 246.774C174.23 251.513 173.704 256.527 173.985 261.367C174.286 266.545 174.375 271.739 174.643 276.905C174.899 281.845 176.204 286.694 176.586 291.647C177 297.027 176.441 302.363 179.256 306.878C180.187 308.372 181.459 309.595 182.912 309.837C186.969 310.512 190.698 305.297 192.763 301.288C194.877 297.186 197.371 293.39 200.53 290.649C202.358 289.063 204.418 287.509 206.62 287.13C208.612 286.786 211.246 287.851 211.877 290.688C212.665 294.237 209.485 297.843 207.708 299.851C200.366 308.15 195.155 319.58 195.155 319.58C195.155 319.58 187.221 341.97 183.55 348.235C181.526 351.688 178.45 354.006 177.076 358.063C174.993 364.219 175.319 372.539 174.7 379.248C174.296 383.623 173.891 387.999 173.485 392.374C172.474 403.29 171.461 414.205 170.447 425.12C168.134 450.014 165.817 474.907 163.499 499.8C161.878 517.2 160.257 534.6 158.635 552L126.022 551.999Z" fill="white"/>
<path d="M162.056 313.445C160.664 308.332 164.249 300.941 168.513 300.302C169.454 300.162 170.456 300.289 171.255 300.915C175.1 303.932 170.816 316.543 169.736 320.307C168.191 325.687 166.365 330.94 164.431 336.124C164.148 336.881 163.884 337.657 163.504 338.328C159.687 334.72 156.204 329.588 153.152 325.008C150.372 320.836 142.486 309.683 146.601 304.112C147.188 303.317 147.999 302.82 148.831 302.488C150.993 301.626 153.418 301.803 155.482 302.972C158.716 304.804 160.961 309.423 162.056 313.445" fill="url(#paint0_angular)"/>
<path d="M195.866 552C196.315 548.091 196.765 544.182 197.214 540.274C198.492 529.171 199.769 518.068 201.046 506.965C202.28 496.235 203.514 485.506 204.748 474.776C205.82 465.456 206.892 456.136 207.964 446.815C208.755 439.941 209.545 433.066 210.336 426.192C210.944 420.909 212 415.479 211.293 410.116C210.589 404.787 207.389 401.167 205.973 396.168C204.874 392.286 204.64 388.107 204.285 384.017C203.925 379.879 203.252 376.183 202.058 372.345C199.878 365.336 197.491 357.846 193.38 352.437C190.386 348.499 187.065 344.361 185.004 339.395C184.424 337.997 183.75 336.144 184.093 334.496C184.743 331.384 187.604 331.253 189.314 332.671C191.651 334.61 193.378 337.993 195.038 340.845C198.828 347.356 204.748 359.583 207.59 356.725C208.932 355.375 207.984 351.697 207.607 350.033C206.873 346.789 205.86 343.54 204.633 340.585C201.704 333.538 198.625 326.405 196.177 319.029C195.132 315.881 191.455 305.261 195.275 303.051C199.163 300.802 202.738 309.375 204.224 312.821C205.38 315.501 206.503 318.314 207.362 321.193C208.627 325.43 210.277 329.492 211.644 333.703C212.967 337.778 214.167 341.927 215.238 346.134C215.405 346.791 215.61 347.513 216.073 347.823C217.917 349.057 216.738 341.121 216.601 340.219C215.748 334.589 214.223 329.204 213.268 323.609C212.045 316.448 210.97 309.091 210.274 301.812C210.009 299.036 209.772 295.864 210.515 293.182C211.402 289.978 214.693 289.004 216.639 291.135C217.951 292.571 218.313 294.964 218.507 297.101C218.747 299.737 218.893 302.294 219.283 304.913C220.172 310.866 221.659 316.805 222.909 322.706C223.553 325.749 224.142 328.817 224.562 331.931C224.974 334.995 224.96 338.221 225.664 341.201C225.801 341.782 225.977 342.388 226.343 342.749C226.797 343.198 227.454 343.142 227.939 342.757C229.914 341.193 228.781 337.571 228.556 335.206C228.124 330.672 228.244 326.187 228.206 321.636C228.148 315.639 227.937 309.602 227.856 303.649C227.806 299.977 228.385 294.898 231.748 294.475C234.901 294.079 236.167 298.513 236.609 301.941C237.23 306.748 236.704 311.833 236.986 316.741C237.286 321.993 237.376 327.26 237.643 332.499C237.899 337.511 239.204 342.429 239.586 347.451C240 352.907 239.441 358.32 242.256 362.899C243.187 364.414 244.459 365.655 245.912 365.9C249.969 366.585 253.698 361.295 255.763 357.228C257.877 353.069 260.371 349.219 263.53 346.439C265.358 344.831 267.418 343.254 269.62 342.869C271.612 342.522 274.246 343.601 274.877 346.479C275.665 350.078 272.485 353.735 270.708 355.772C263.366 364.189 258.155 375.781 258.155 375.781C258.155 375.781 250.221 398.489 246.55 404.843C244.526 408.345 241.45 410.695 240.077 414.811C237.993 421.054 238.319 429.492 237.7 436.296C237.296 440.734 236.891 445.172 236.485 449.609C235.474 460.68 234.461 471.75 233.447 482.82C231.334 505.88 229.219 528.94 227.101 551.999L195.866 552Z" fill="white"/>
<path d="M225.284 368.105C223.892 362.993 227.476 355.601 231.74 354.963C232.682 354.822 233.684 354.95 234.482 355.576C238.328 358.592 234.044 371.204 232.964 374.968C231.419 380.348 229.593 385.6 227.658 390.785C227.376 391.541 227.111 392.318 226.732 392.989C222.915 389.38 219.431 384.249 216.379 379.669C213.599 375.496 205.714 364.344 209.828 358.772C210.415 357.977 211.227 357.481 212.059 357.149C214.221 356.287 216.646 356.463 218.709 357.632C221.943 359.464 224.189 364.083 225.284 368.105" fill="url(#paint1_angular)"/>
<path d="M341.245 548C340.989 545.832 340.732 543.664 340.475 541.497C339.785 535.665 339.094 529.833 338.404 524.001C337.398 515.51 336.393 507.021 335.387 498.532C334.187 488.39 332.986 478.25 331.786 468.109C330.508 457.325 329.231 446.539 327.954 435.754C326.72 425.331 325.486 414.909 324.252 404.486C323.18 395.433 322.108 386.38 321.036 377.326C320.246 370.648 319.455 363.971 318.664 357.293C318.057 352.162 317 346.887 317.707 341.678C318.411 336.501 321.611 332.984 323.027 328.129C324.126 324.358 324.36 320.298 324.715 316.326C325.075 312.306 325.748 308.716 326.942 304.988C329.122 298.18 331.509 290.904 335.62 285.65C338.614 281.823 341.935 277.805 343.996 272.981C344.576 271.624 345.25 269.823 344.907 268.222C344.257 265.199 341.396 265.072 339.686 266.45C337.349 268.333 335.622 271.619 333.962 274.39C330.173 280.714 324.252 292.592 321.41 289.814C320.068 288.504 321.017 284.93 321.393 283.314C322.127 280.164 323.14 277.007 324.367 274.137C327.296 267.292 330.376 260.363 332.823 253.198C333.868 250.14 337.546 239.824 333.725 237.677C329.837 235.493 326.262 243.821 324.776 247.167C323.62 249.771 322.497 252.504 321.638 255.301C320.373 259.416 318.723 263.361 317.356 267.452C316.033 271.411 314.834 275.44 313.762 279.527C313.595 280.165 313.391 280.866 312.928 281.168C311.084 282.367 312.262 274.658 312.399 273.781C313.252 268.312 314.777 263.082 315.733 257.646C316.955 250.691 318.03 243.545 318.726 236.474C318.991 233.777 319.228 230.696 318.485 228.09C317.598 224.979 314.307 224.033 312.361 226.102C311.049 227.497 310.687 229.822 310.493 231.898C310.253 234.458 310.108 236.942 309.717 239.486C308.828 245.269 307.341 251.038 306.091 256.77C305.447 259.726 304.858 262.705 304.438 265.73C304.026 268.707 304.04 271.841 303.336 274.735C303.199 275.299 303.023 275.888 302.657 276.239C302.203 276.675 301.546 276.62 301.061 276.247C299.086 274.727 300.219 271.209 300.444 268.911C300.876 264.508 300.757 260.151 300.794 255.73C300.852 249.905 301.063 244.041 301.145 238.258C301.194 234.691 300.615 229.758 297.252 229.347C294.099 228.962 292.833 233.27 292.391 236.599C291.77 241.268 292.296 246.208 292.015 250.975C291.714 256.077 291.625 261.194 291.357 266.283C291.101 271.151 289.796 275.928 289.415 280.807C289 286.106 289.559 291.364 286.744 295.812C285.813 297.283 284.541 298.489 283.088 298.727C279.031 299.392 275.302 294.254 273.237 290.304C271.123 286.263 268.63 282.524 265.47 279.823C263.642 278.262 261.582 276.729 259.38 276.356C257.388 276.018 254.754 277.067 254.123 279.862C253.335 283.358 256.515 286.911 258.292 288.889C265.634 297.065 270.845 308.325 270.845 308.325C270.845 308.325 278.779 330.384 282.45 336.555C284.475 339.957 287.55 342.24 288.923 346.238C291.007 352.303 290.681 360.499 291.3 367.108C291.704 371.419 292.109 375.73 292.515 380.04C293.526 390.794 294.539 401.547 295.553 412.301C297.866 436.825 300.183 461.349 302.502 485.872C304.208 503.92 305.914 521.967 307.622 540.014C307.874 542.676 308.126 545.338 308.378 548H341.245" fill="white"/>
<path d="M300.597 307.324C301.99 302.212 298.404 294.82 294.14 294.182C293.199 294.041 292.198 294.168 291.399 294.794C287.553 297.811 291.837 310.423 292.917 314.186C294.462 319.566 296.288 324.819 298.223 330.003C298.506 330.76 298.77 331.537 299.149 332.208C302.966 328.599 306.45 323.468 309.501 318.888C312.282 314.715 320.168 303.563 316.053 297.991C315.466 297.196 314.654 296.699 313.822 296.367C311.661 295.505 309.235 295.682 307.171 296.851C303.938 298.683 301.692 303.302 300.597 307.324Z" fill="url(#paint2_angular)"/>
<path d="M278.352 554C278.241 546.384 278.13 538.766 278.02 531.15C277.914 523.86 277.809 516.569 277.703 509.279C277.622 503.677 277.108 497.839 278.346 492.398C279.576 486.991 283.127 483.825 285.035 478.895C286.517 475.065 287.165 470.766 287.925 466.584C288.695 462.351 289.734 458.635 291.305 454.87C294.175 447.993 297.298 440.654 301.934 435.8C305.311 432.263 309.034 428.583 311.581 423.806C312.299 422.462 313.155 420.662 312.976 418.886C312.637 415.531 309.797 414.862 307.952 416.018C305.429 417.597 303.371 420.791 301.433 423.445C297.008 429.506 289.89 441.109 287.34 437.61C286.136 435.957 287.447 432.311 287.988 430.653C289.041 427.419 290.374 424.231 291.892 421.391C295.512 414.613 299.291 407.775 302.464 400.565C303.818 397.489 308.54 387.138 304.95 384.131C301.296 381.07 296.88 389.314 295.056 392.617C293.637 395.187 292.238 397.902 291.095 400.733C289.414 404.899 287.366 408.813 285.585 412.934C283.86 416.923 282.252 421.01 280.766 425.181C280.534 425.833 280.259 426.545 279.766 426.782C277.805 427.721 279.768 419.694 279.994 418.782C281.404 413.09 283.46 407.78 284.968 402.143C286.898 394.931 288.701 387.486 290.117 380.053C290.658 377.217 291.208 373.966 290.734 371.04C290.168 367.547 286.983 365.921 284.831 367.773C283.381 369.022 282.782 371.44 282.376 373.625C281.875 376.319 281.476 378.949 280.826 381.598C279.349 387.619 277.277 393.512 275.445 399.411C274.5 402.453 273.608 405.531 272.88 408.689C272.165 411.795 271.858 415.15 270.86 418.116C270.666 418.694 270.43 419.29 270.03 419.598C269.533 419.98 268.883 419.799 268.437 419.309C266.624 417.316 268.112 413.764 268.572 411.347C269.453 406.718 269.78 402.035 270.269 397.313C270.922 391.093 271.733 384.859 272.404 378.688C272.819 374.883 272.746 369.498 269.435 368.433C266.33 367.434 264.628 371.806 263.846 375.285C262.75 380.164 262.769 385.546 262.001 390.593C261.18 395.994 260.568 401.451 259.78 406.845C259.028 412.004 257.238 416.871 256.359 422.02C255.403 427.611 255.424 433.34 252.162 437.574C251.084 438.974 249.691 440.027 248.219 440.011C244.105 439.968 240.913 433.777 239.257 429.168C237.563 424.452 235.458 419.988 232.584 416.511C230.922 414.501 229.025 412.479 226.867 411.669C224.914 410.936 222.182 411.569 221.267 414.441C220.123 418.034 222.931 422.426 224.5 424.873C230.985 434.985 235.029 448 235.029 448C235.029 448 240.685 473.071 243.715 480.357C245.385 484.372 248.219 487.387 249.18 491.919C250.637 498.793 249.473 507.5 249.415 514.686C249.378 519.372 249.341 524.059 249.304 528.745C249.239 537.163 249.174 545.582 249.11 554H278.352" fill="white"/>
<path d="M268.296 442.476C270.228 437.635 267.472 429.725 263.314 428.4C262.397 428.108 261.39 428.071 260.531 428.562C256.393 430.928 259.279 444.124 259.944 448.03C260.894 453.614 262.138 459.117 263.496 464.57C263.694 465.366 263.873 466.178 264.176 466.906C268.348 463.948 272.355 459.428 275.875 455.384C279.081 451.7 288.1 441.927 284.623 435.736C284.127 434.852 283.376 434.228 282.587 433.764C280.537 432.559 278.115 432.339 275.943 433.163C272.54 434.454 269.816 438.667 268.296 442.476Z" fill="url(#paint3_angular)"/>
<path d="M371.336 548C371.206 539.254 371.075 530.508 370.945 521.761C370.78 510.691 370.615 499.621 370.45 488.551C370.307 478.935 370.163 469.319 370.02 459.703C369.914 452.61 369.809 445.517 369.703 438.425C369.622 432.974 369.108 427.294 370.346 422.001C371.576 416.74 375.127 413.66 377.035 408.864C378.517 405.138 379.165 400.955 379.926 396.886C380.695 392.767 381.733 389.153 383.305 385.49C386.175 378.799 389.299 371.659 393.935 366.936C397.311 363.495 401.033 359.914 403.582 355.267C404.299 353.96 405.155 352.209 404.976 350.48C404.637 347.216 401.798 346.566 399.952 347.69C397.429 349.226 395.371 352.334 393.433 354.917C389.008 360.812 381.89 372.101 379.34 368.697C378.136 367.089 379.447 363.542 379.988 361.929C381.042 358.783 382.374 355.681 383.892 352.917C387.512 346.323 391.29 339.67 394.464 332.656C395.819 329.663 400.54 319.592 396.95 316.667C393.296 313.689 388.88 321.709 387.057 324.923C385.638 327.424 384.239 330.064 383.096 332.819C381.415 336.873 379.366 340.68 377.585 344.69C375.86 348.571 374.253 352.546 372.767 356.606C372.534 357.239 372.259 357.932 371.766 358.162C369.805 359.076 371.769 351.267 371.995 350.379C373.405 344.842 375.46 339.675 376.968 334.191C378.898 327.174 380.701 319.931 382.117 312.699C382.658 309.94 383.208 306.777 382.734 303.931C382.168 300.532 378.983 298.951 376.831 300.753C375.381 301.967 374.782 304.32 374.376 306.445C373.875 309.067 373.476 311.626 372.826 314.203C371.35 320.061 369.276 325.795 367.444 331.533C366.5 334.493 365.607 337.487 364.88 340.56C364.165 343.582 363.858 346.846 362.861 349.731C362.666 350.293 362.43 350.874 362.03 351.173C361.533 351.544 360.883 351.369 360.438 350.893C358.624 348.953 360.113 345.497 360.572 343.147C361.453 338.642 361.779 334.086 362.269 329.493C362.922 323.44 363.733 317.376 364.405 311.372C364.819 307.67 364.747 302.431 361.435 301.394C358.33 300.422 356.628 304.676 355.846 308.06C354.75 312.808 354.769 318.043 354.001 322.954C353.18 328.209 352.568 333.518 351.78 338.766C351.027 343.785 349.238 348.52 348.359 353.529C347.404 358.969 347.423 364.543 344.162 368.662C343.083 370.024 341.691 371.049 340.218 371.033C336.105 370.991 332.913 364.968 331.257 360.484C329.563 355.895 327.458 351.552 324.584 348.17C322.922 346.214 321.024 344.246 318.867 343.459C316.914 342.746 314.181 343.361 313.267 346.155C312.123 349.652 314.931 353.924 316.5 356.305C322.985 366.143 327.029 378.805 327.029 378.805C327.029 378.805 332.685 403.198 335.715 410.286C337.385 414.192 340.219 417.126 341.18 421.535C342.637 428.224 341.473 436.694 341.416 443.685C341.378 448.244 341.341 452.804 341.304 457.363C341.213 468.737 341.124 480.112 341.036 491.486C340.89 510.324 340.746 529.162 340.603 548H371.336Z" fill="white"/>
<path d="M359.664 378.745C361.591 373.744 358.841 365.572 354.693 364.204C353.778 363.902 352.773 363.864 351.916 364.371C347.788 366.815 350.667 380.447 351.33 384.482C352.279 390.251 353.52 395.935 354.875 401.569C355.072 402.391 355.25 403.231 355.553 403.982C359.716 400.926 363.714 396.257 367.225 392.079C370.423 388.273 379.422 378.177 375.953 371.781C375.458 370.869 374.709 370.224 373.922 369.745C371.877 368.499 369.46 368.273 367.293 369.124C363.897 370.457 361.18 374.81 359.664 378.745" fill="url(#paint4_angular)"/>
<path d="M68.8949 544C70.7788 537.484 72.6628 530.967 74.5468 524.451C77.3954 514.6 80.2437 504.748 83.0921 494.896C85.5664 486.338 88.0404 477.78 90.5147 469.223C92.3398 462.91 94.1646 456.599 95.9894 450.286C97.392 445.436 98.3955 440.201 101.162 436.041C103.911 431.907 108.539 430.671 111.884 427.231C114.482 424.558 116.316 421.134 118.239 417.856C120.185 414.539 122.28 411.779 124.956 409.199C129.845 404.487 135.126 399.485 141.361 397.251C145.901 395.624 150.849 394.017 154.836 390.977C155.958 390.121 157.35 388.932 157.631 387.33C158.162 384.304 155.311 382.54 153.035 382.762C149.926 383.064 146.882 384.949 144.109 386.42C137.78 389.778 127.105 396.775 125.315 392.7C124.471 390.776 126.838 388.19 127.855 386.99C129.839 384.651 132.108 382.468 134.481 380.66C140.143 376.347 145.99 372.05 151.29 367.179C153.552 365.101 161.339 358.178 158.31 354.09C155.226 349.93 148.326 355.169 145.503 357.246C143.307 358.862 141.094 360.61 139.122 362.567C136.222 365.445 132.997 367.953 130.002 370.751C127.103 373.458 124.302 376.299 121.609 379.264C121.188 379.727 120.705 380.224 120.117 380.221C117.776 380.208 122.003 374.129 122.486 373.439C125.503 369.135 129.106 365.43 132.213 361.214C136.188 355.821 140.089 350.175 143.575 344.377C144.906 342.165 146.356 339.6 146.629 336.886C146.954 333.646 143.989 330.916 141.202 331.608C139.324 332.074 138.042 333.903 137.028 335.611C135.778 337.718 134.653 339.812 133.257 341.818C130.081 346.376 126.304 350.576 122.782 354.881C120.967 357.101 119.197 359.374 117.582 361.785C115.993 364.156 114.775 366.912 112.923 369.044C112.561 369.459 112.151 369.874 111.643 369.971C111.011 370.091 110.366 369.664 110.021 369.056C108.617 366.584 111.149 364.152 112.281 362.267C114.451 358.656 116.044 354.766 117.821 350.911C120.171 345.837 122.692 340.816 125.049 335.792C126.502 332.694 127.856 328.034 124.607 325.732C121.562 323.574 118.584 326.621 116.826 329.284C114.36 333.02 112.95 337.655 110.79 341.674C108.479 345.974 106.375 350.409 104.102 354.718C101.928 358.838 98.7259 362.274 96.42 366.332C93.9152 370.74 92.4137 375.673 87.8106 377.948C86.2878 378.701 84.5232 379.024 82.9568 378.394C78.5814 376.636 76.8227 369.978 76.2819 365.321C75.729 360.558 74.671 355.839 72.5297 351.647C71.2915 349.223 69.8056 346.691 67.7199 345.092C65.8324 343.645 62.7498 343.044 61.0113 345.132C58.8364 347.742 60.6632 352.693 61.6867 355.454C65.9149 366.861 66.7682 379.743 66.7682 379.743C66.7682 379.743 66.136 403.666 67.4312 411.197C68.1453 415.349 70.3655 419.127 70.1855 423.425C69.9123 429.946 66.3573 436.944 64.3858 443.098C63.0998 447.111 61.815 451.125 60.5303 455.138C57.3256 465.152 54.1233 475.166 50.9219 485.181C49.9479 488.228 48.974 491.275 48 494.322L48.0002 544H68.8949Z" fill="white"/>
<path d="M102.408 397.24C103.842 392.145 100.319 384.709 96.06 384.018C95.1203 383.865 94.1172 383.98 93.3135 384.597C89.4432 387.565 93.6225 400.23 94.6719 404.006C96.172 409.406 97.9547 414.68 99.8464 419.889C100.123 420.649 100.381 421.429 100.754 422.104C104.601 418.543 108.127 413.456 111.216 408.914C114.031 404.776 122.008 393.722 117.94 388.1C117.36 387.297 116.552 386.79 115.723 386.449C113.568 385.56 111.142 385.706 109.069 386.849C105.82 388.641 103.536 393.232 102.408 397.24" fill="url(#paint5_angular)"/>
<path d="M473.985 340.82C473.42 335.132 467.45 329.192 463.294 330.295C462.377 330.539 461.5 331.076 460.991 332.029C458.54 336.621 467.039 347.502 469.393 350.83C472.758 355.587 476.336 360.102 479.99 364.504C480.523 365.147 481.047 365.816 481.639 366.334C483.849 361.16 485.203 354.598 486.359 348.764C487.411 343.449 490.644 329.058 484.844 325.159C484.016 324.602 483.089 324.436 482.204 324.444C479.902 324.464 477.733 325.631 476.255 327.646C473.939 330.801 473.541 336.344 473.985 340.82Z" fill="url(#paint6_angular)"/>
<path d="M127.999 169.218C126.607 164.106 130.192 156.713 134.456 156.075C135.397 155.934 136.399 156.061 137.198 156.688C141.044 159.705 136.76 172.317 135.679 176.079C134.134 181.46 132.308 186.712 130.374 191.897C130.091 192.654 129.827 193.43 129.447 194.102C125.631 190.492 122.147 185.361 119.095 180.781C116.315 176.608 108.429 165.456 112.543 159.885C113.13 159.089 113.942 158.593 114.774 158.261C116.936 157.399 119.361 157.575 121.425 158.745C124.658 160.577 126.904 165.196 127.999 169.218Z" fill="url(#paint7_angular)"/>
<path d="M421.125 161.311C422.516 156.198 418.932 148.806 414.667 148.168C413.727 148.027 412.724 148.155 411.926 148.781C408.08 151.798 412.364 164.409 413.445 168.173C414.989 173.553 416.816 178.806 418.75 183.99C419.033 184.746 419.297 185.523 419.676 186.194C423.493 182.585 426.977 177.454 430.029 172.874C432.809 168.701 440.695 157.549 436.58 151.977C435.993 151.183 435.182 150.686 434.35 150.354C432.187 149.492 429.763 149.669 427.699 150.838C424.465 152.67 422.22 157.289 421.125 161.311Z" fill="url(#paint8_angular)"/>
<path d="M260.893 205.594C259.681 201.141 262.803 194.703 266.517 194.147C267.337 194.024 268.209 194.135 268.905 194.68C272.255 197.308 268.523 208.293 267.582 211.57C266.237 216.256 264.646 220.831 262.961 225.347C262.715 226.006 262.485 226.682 262.155 227.267C258.83 224.123 255.796 219.654 253.138 215.665C250.716 212.031 243.848 202.317 247.431 197.465C247.943 196.772 248.65 196.34 249.374 196.051C251.257 195.3 253.37 195.453 255.167 196.472C257.984 198.068 259.939 202.09 260.893 205.594" fill="white"/>
<path d="M191.359 162.064C192.572 157.612 189.45 151.173 185.736 150.618C184.916 150.495 184.044 150.606 183.348 151.152C179.998 153.779 183.73 164.763 184.671 168.041C186.016 172.727 187.606 177.302 189.292 181.818C189.537 182.477 189.768 183.154 190.098 183.738C193.423 180.594 196.457 176.125 199.115 172.136C201.537 168.502 208.405 158.789 204.821 153.936C204.31 153.243 203.603 152.81 202.879 152.521C200.995 151.771 198.884 151.925 197.086 152.943C194.269 154.538 192.314 158.562 191.359 162.064Z" fill="white"/>
<path d="M315.797 147.172C314.584 142.719 317.707 136.28 321.421 135.725C322.24 135.602 323.113 135.713 323.808 136.258C327.158 138.886 323.427 149.87 322.486 153.149C321.14 157.835 319.55 162.409 317.865 166.925C317.619 167.584 317.389 168.26 317.058 168.845C313.733 165.701 310.699 161.232 308.041 157.243C305.62 153.609 298.751 143.896 302.335 139.043C302.846 138.35 303.553 137.917 304.278 137.629C306.161 136.878 308.273 137.032 310.071 138.05C312.887 139.646 314.843 143.668 315.797 147.172" fill="url(#paint9_angular)"/>
<path d="M200.19 238.706C201.002 235.724 198.911 231.413 196.424 231.041C195.875 230.958 195.291 231.033 194.824 231.398C192.581 233.157 195.08 240.513 195.71 242.708C196.611 245.846 197.676 248.91 198.805 251.933C198.969 252.375 199.124 252.828 199.345 253.22C201.571 251.114 203.603 248.121 205.383 245.45C207.005 243.017 211.604 236.512 209.204 233.262C208.862 232.799 208.388 232.509 207.903 232.315C206.642 231.812 205.228 231.915 204.024 232.598C202.138 233.666 200.828 236.36 200.19 238.706" fill="url(#paint10_angular)"/>
<path d="M362.3 212.754C363.112 209.772 361.021 205.461 358.534 205.089C357.985 205.006 357.4 205.08 356.935 205.445C354.692 207.205 357.19 214.561 357.821 216.756C358.722 219.894 359.787 222.958 360.915 225.981C361.08 226.422 361.234 226.876 361.455 227.267C363.681 225.162 365.713 222.169 367.493 219.498C369.115 217.065 373.714 210.56 371.314 207.31C370.972 206.846 370.499 206.556 370.013 206.363C368.752 205.86 367.338 205.963 366.134 206.646C364.248 207.714 362.939 210.408 362.3 212.754" fill="white"/>
<path d="M93.1051 286.721C93.917 283.739 91.8261 279.427 89.3391 279.055C88.7906 278.974 88.206 279.048 87.7402 279.413C85.4973 281.172 87.9957 288.528 88.6258 290.723C89.5269 293.861 90.5919 296.924 91.7205 299.948C91.8851 300.39 92.0393 300.843 92.2605 301.234C94.4868 299.129 96.5185 296.136 98.2985 293.465C99.9201 291.032 104.519 284.527 102.12 281.277C101.777 280.814 101.304 280.524 100.819 280.33C99.5577 279.828 98.1434 279.93 96.9395 280.612C95.0534 281.681 93.744 284.375 93.1051 286.721" fill="white"/>
<path d="M407.247 530.649C407.214 530.036 407.18 529.423 407.147 528.811C406.676 520.167 406.204 511.523 405.733 502.879C405.386 496.503 405.039 490.128 404.691 483.752C404.424 478.853 404.573 473.702 403.004 469.083C401.445 464.494 397.718 462.108 395.515 458.007C393.804 454.822 392.893 451.138 391.877 447.567C390.849 443.954 389.586 440.821 387.79 437.701C384.51 432.003 380.948 425.929 376.037 422.184C372.461 419.457 368.531 416.64 365.701 412.741C364.905 411.644 363.942 410.164 364.009 408.594C364.138 405.629 366.92 404.743 368.827 405.556C371.433 406.665 373.677 409.235 375.769 411.345C380.545 416.165 388.343 425.537 390.661 422.211C391.755 420.64 390.225 417.597 389.585 416.207C388.336 413.496 386.813 410.855 385.128 408.536C381.108 403.004 376.927 397.437 373.324 391.481C371.786 388.939 366.449 380.406 369.832 377.398C373.274 374.337 378.177 381.064 380.195 383.754C381.765 385.847 383.325 388.067 384.637 390.418C386.567 393.876 388.847 397.074 390.874 400.482C392.836 403.781 394.688 407.178 396.425 410.661C396.696 411.206 397.014 411.798 397.518 411.952C399.527 412.563 397.077 405.765 396.795 404.993C395.04 400.174 392.667 395.757 390.817 390.996C388.45 384.905 386.196 378.598 384.326 372.259C383.613 369.841 382.863 367.061 383.153 364.457C383.499 361.347 386.565 359.589 388.82 360.977C390.339 361.912 391.085 363.96 391.624 365.824C392.289 368.123 392.849 370.377 393.66 372.619C395.501 377.719 397.929 382.643 400.117 387.598C401.244 390.153 402.323 392.745 403.242 395.424C404.147 398.06 404.659 400.956 405.835 403.438C406.064 403.922 406.336 404.418 406.753 404.644C407.271 404.924 407.905 404.698 408.319 404.223C409.998 402.289 408.297 399.347 407.69 397.286C406.527 393.339 405.912 389.285 405.132 385.215C404.097 379.855 402.904 374.499 401.853 369.183C401.204 365.905 400.942 361.196 404.169 359.914C407.193 358.711 409.157 362.347 410.15 365.301C411.544 369.444 411.858 374.144 412.935 378.469C414.087 383.096 415.034 387.795 416.152 392.42C417.221 396.844 419.302 400.902 420.496 405.303C421.793 410.083 422.128 415.086 425.634 418.435C426.794 419.542 428.243 420.314 429.706 420.143C433.794 419.667 436.583 413.923 437.944 409.723C439.335 405.426 441.15 401.305 443.792 397.964C445.32 396.031 447.081 394.064 449.176 393.127C451.072 392.28 453.828 392.541 454.916 394.952C456.276 397.966 453.757 402.099 452.349 404.403C446.528 413.921 443.316 425.713 443.316 425.713C443.316 425.713 439.249 448.203 436.688 454.885C435.277 458.568 432.647 461.503 431.973 465.561C430.951 471.717 432.648 479.195 433.152 485.461C433.481 489.548 433.808 493.635 434.135 497.723C434.952 507.92 435.766 518.117 436.579 528.314C436.642 529.092 436.704 529.871 436.766 530.649H407.247" fill="white"/>
<path d="M412.357 432.176C410.965 427.064 414.55 419.672 418.814 419.034C419.755 418.893 420.757 419.02 421.556 419.647C425.401 422.663 421.117 435.275 420.037 439.038C418.492 444.419 416.666 449.671 414.732 454.855C414.449 455.612 414.184 456.389 413.805 457.06C409.989 453.451 406.505 448.32 403.453 443.74C400.673 439.567 392.787 428.415 396.901 422.843C397.488 422.048 398.3 421.551 399.132 421.22C401.294 420.357 403.719 420.534 405.783 421.703C409.016 423.535 411.262 428.154 412.357 432.176" fill="url(#paint11_angular)"/>
<path d="M54.2745 548.655C55.5708 543.502 52.1731 538.356 48.3765 534.644C44.58 530.933 40.047 527.615 38.0541 522.69C34.8276 514.712 39.0465 504.334 33.5784 497.694C30.3613 493.786 24.6257 492.506 21.7671 488.329C20.268 486.138 19.7714 483.439 19.1718 480.85C16.0765 467.58 9.48148 455.386 0.0752287 445.541C-0.489986 457.384 2.13793 469.16 7.68313 479.634C9.90648 483.819 12.6291 487.89 13.3843 492.567C14.6112 500.163 10.4199 508.018 12.3266 515.471C14.5068 523.996 24.1117 529.654 24.6156 538.438C25.0414 545.866 18.6146 552.423 19.1381 559.844C19.3618 563.004 20.842 565.93 22.488 568.635C28.2761 578.15 36.7376 584.68 49.505 584.394L65.148 584.855L54.2745 548.655Z" fill="url(#paint12_linear)"/>
<path d="M4.28239 455.487C4.27633 455.59 4.28857 455.693 4.31886 455.794C4.36628 456.022 4.42828 456.315 4.50436 456.685C4.6935 457.47 4.90661 458.62 5.33075 460.108C5.78564 461.604 6.99553 463.286 7.96886 465.315C8.99482 467.338 10.0177 469.673 10.9279 472.288C11.8518 474.901 12.6323 477.794 13.4514 480.908C14.2971 483.998 15.1641 487.414 17.5876 490.65C18.7089 492.276 19.9672 493.902 20.9155 495.638C21.8416 497.419 22.4178 499.268 22.6309 501.142C23.1068 505.124 23.9151 509.086 25.0522 513.012C27.5423 521.05 29.9152 528.707 32.0734 535.676C34.3458 542.618 36.3935 548.87 38.1177 554.135L42.2575 566.571C42.7535 568.011 43.1433 569.142 43.421 569.946C43.5549 570.309 43.6612 570.598 43.743 570.821C43.7716 570.922 43.8174 571.021 43.8795 571.115C43.8769 571.013 43.8575 570.91 43.8217 570.81C43.7581 570.584 43.6769 570.292 43.5747 569.925C43.3309 569.116 42.9896 567.979 42.554 566.528C41.6223 563.551 40.2936 559.3 38.656 554.061C36.9787 548.79 34.9867 542.529 32.7753 535.58C30.6364 528.613 28.2859 520.96 25.8182 512.924C24.6848 509.01 23.8738 505.06 23.3885 501.091C23.1658 499.179 22.5705 497.293 21.6169 495.477C20.6394 493.705 19.3654 492.072 18.2415 490.46C15.8321 487.272 14.9672 483.935 14.0866 480.834C13.2409 477.726 12.4275 474.825 11.4646 472.207C10.5168 469.587 9.45127 467.248 8.38206 465.225C7.36027 463.189 6.11442 461.522 5.62671 460.064C5.16401 458.603 4.89723 457.44 4.65963 456.667C4.55125 456.3 4.46528 456.009 4.3991 455.783C4.37656 455.682 4.33743 455.583 4.28239 455.487V455.487Z" fill="#F0F0F5"/>
<path d="M71.0797 585.277C81.2606 579.136 84.0876 560.659 79.7629 549.57C75.4381 538.482 67.9225 528.373 66.7051 516.531C65.7699 507.429 68.694 498.066 66.5258 489.176C63.5991 477.178 51.8383 467.939 51.9056 455.59C51.942 448.66 55.8403 442.118 55.4872 435.199C55.0554 426.711 48.5106 420.015 44.4379 412.556C38.2044 401.144 37.722 387.61 35.5404 374.788C33.3588 361.966 28.3987 348.244 17.0024 342C15.3854 352.908 12.5671 360.388 13.5494 375.146C13.9018 380.447 20.1097 390.562 21.0118 402.178C21.5508 409.12 21.9375 416.073 22.4011 423.022C22.8505 429.784 23.3281 436.667 25.7846 442.981C27.6664 447.82 30.6713 452.209 32.0767 457.207C34.7205 466.61 31.3747 476.831 33.5212 486.361C35.3403 494.435 40.964 501.36 42.1519 509.552C43.8214 521.061 36.4466 533.071 40.3186 544.038C42.2394 549.48 46.7414 553.831 48.0431 559.454C49.0537 563.816 48.0053 568.445 48.923 572.827C50.4012 579.889 63.8929 585.302 71.0804 584.824" fill="url(#paint13_linear)"/>
<path d="M20.3362 352.706C20.3293 352.901 20.3432 353.095 20.3776 353.286C20.4314 353.716 20.5018 354.271 20.5881 354.97C20.8028 356.451 21.0448 358.625 21.5262 361.435C22.0426 364.261 23.416 367.437 24.5208 371.27C25.6854 375.092 26.8465 379.502 27.8798 384.441C28.9285 389.377 29.8145 394.841 30.7443 400.723C31.7042 406.561 32.6884 413.013 35.4393 419.125C36.7122 422.196 38.1406 425.269 39.2171 428.547C40.2682 431.911 40.9224 435.404 41.1642 438.943C41.7045 446.465 42.622 453.95 43.9127 461.365C46.7394 476.548 49.4329 491.011 51.8828 504.175C54.4622 517.286 56.7867 529.097 58.7438 539.041L63.4431 562.531C64.0061 565.252 64.4486 567.387 64.7638 568.908C64.9158 569.592 65.0365 570.138 65.1293 570.559C65.1618 570.75 65.2138 570.937 65.2843 571.115C65.2813 570.921 65.2593 570.728 65.2186 570.54C65.1465 570.111 65.0542 569.561 64.9383 568.868C64.6615 567.339 64.2741 565.191 63.7796 562.451C62.7221 556.827 61.2138 548.798 59.3548 538.902C57.4509 528.946 55.1897 517.119 52.6795 503.994C50.2515 490.833 47.5834 476.377 44.7822 461.198C43.4957 453.805 42.5751 446.345 42.0242 438.848C41.7714 435.236 41.0957 431.673 40.0132 428.243C38.9036 424.896 37.4574 421.81 36.1816 418.766C33.4467 412.744 32.4648 406.441 31.4653 400.585C30.5053 394.713 29.582 389.233 28.489 384.288C27.4131 379.339 26.2036 374.921 24.9899 371.1C23.83 367.254 22.4158 364.106 21.8622 361.351C21.3369 358.593 21.0341 356.396 20.7644 354.935C20.6414 354.242 20.5438 353.692 20.4687 353.265C20.4431 353.075 20.3987 352.887 20.3362 352.706V352.706Z" fill="#F0F0F5"/>
<path d="M137 90H14C14 90 20.499 52.8054 56.3639 65.3004C91.0254 23.4565 115.337 62.6852 115.337 62.6852C115.337 62.6852 137 60.6511 137 90Z" fill="white"/>
<path d="M301 46H191C191 46 201.582 9.25729 229.709 25.0042C248.646 -17.7373 301 -2.36538 301 46Z" fill="white"/>
<path d="M554 107H434C434 107 440.34 65.5787 475.331 79.4937C509.147 32.8947 532.865 76.5812 532.865 76.5812C532.865 76.5812 554 74.316 554 107Z" fill="white"/>
<path d="M372.812 538.995C369.581 535.225 370.979 529.381 373.314 524.568C375.649 519.756 378.859 514.95 378.956 509.914C379.111 501.758 371.018 494.877 373.89 486.855C375.58 482.134 380.748 478.513 381.982 473.724C382.629 471.212 382.095 468.716 381.704 466.268C379.724 453.708 381.601 440.503 387.14 428.033C392.187 437.768 394.062 448.862 392.567 460.151C391.962 464.664 390.822 469.304 391.851 473.582C393.522 480.53 400.631 485.295 401.578 492.424C402.661 500.578 395.339 509.606 398.173 517.236C400.569 523.687 409.39 526.367 411.687 532.856C412.665 535.619 412.315 538.742 411.719 541.752C409.621 552.341 403.757 561.597 391.064 567.015L375.819 574.336L372.812 538.995Z" fill="url(#paint14_linear)"/>
<path d="M386.764 438.284C386.809 438.368 386.836 438.46 386.844 438.559C386.884 438.772 386.934 439.047 387 439.393C387.111 440.138 387.337 441.202 387.483 442.645C387.602 444.108 387.047 446.062 386.857 448.204C386.612 450.365 386.49 452.787 386.584 455.395C386.664 458.007 386.991 460.792 387.364 463.781C387.703 466.761 388.143 470.026 386.981 473.828C386.493 475.696 385.869 477.625 385.592 479.509C385.355 481.421 385.488 483.236 385.988 484.91C387.029 488.478 387.735 492.177 388.102 495.992C388.695 503.872 389.259 511.38 389.774 518.212C390.166 525.072 390.519 531.252 390.815 536.455L391.45 548.775C391.507 550.209 391.551 551.335 391.583 552.137C391.588 552.501 391.593 552.792 391.597 553.016C391.607 553.114 391.599 553.218 391.574 553.325C391.538 553.237 391.518 553.143 391.515 553.043C391.492 552.823 391.462 552.541 391.423 552.187C391.357 551.396 391.262 550.286 391.141 548.87C390.931 545.947 390.629 541.774 390.257 536.631C389.912 531.444 389.501 525.281 389.046 518.443C388.513 511.62 387.928 504.125 387.314 496.256C386.947 492.454 386.249 488.765 385.222 485.203C384.717 483.492 384.588 481.638 384.84 479.684C385.132 477.757 385.768 475.815 386.265 473.958C387.431 470.202 387.018 467.005 386.711 464.001C386.366 461.005 386.067 458.198 386.024 455.564C385.965 452.935 386.128 450.491 386.415 448.311C386.65 446.142 387.246 444.184 387.174 442.738C387.077 441.302 386.899 440.203 386.84 439.446C386.807 439.089 386.782 438.805 386.761 438.585C386.745 438.49 386.746 438.389 386.764 438.284V438.284Z" fill="#F0F0F5"/>
<path d="M209.287 585.176C200.067 584.741 194.982 576.44 196.837 569.944C198.692 563.448 203.295 556.627 202.504 550.545C201.896 545.871 198.104 542.039 198.533 537.158C199.112 530.57 207.305 523.106 205.391 517.1C204.318 513.729 200.157 511.518 199.403 508.055C198.478 503.806 202.803 498.894 204.999 494.232C208.361 487.098 206.717 480.376 206.564 473.573C206.412 466.771 208.388 458.831 216.735 452.919C219.694 457.833 223.117 460.773 224.538 468.218C225.048 470.892 221.512 477.387 222.526 483.279C223.131 486.801 223.863 490.29 224.531 493.796C225.183 497.207 225.83 500.684 224.778 504.381C223.973 507.215 222.185 510.111 221.792 512.902C221.053 518.154 225.318 522.297 225.004 527.486C224.736 531.881 221.196 536.673 221.461 540.967C221.833 547 229.65 551.004 228.146 557.327C227.4 560.464 224.386 563.718 224.172 566.788C224.005 569.17 225.556 571.164 225.468 573.532C225.326 577.348 215.147 583.381 209.219 584.955" fill="url(#paint15_linear)"/>
<path d="M215.63 458.98C215.664 459.073 215.682 459.171 215.683 459.273C215.704 459.496 215.73 459.784 215.765 460.147C215.813 460.924 215.943 462.044 215.974 463.536C215.978 465.045 215.337 466.939 215.014 469.087C214.64 471.243 214.358 473.687 214.259 476.355C214.148 479.027 214.248 481.914 214.376 485.017C214.472 488.106 214.642 491.501 213.32 495.173C212.745 496.991 212.044 498.849 211.66 500.719C211.31 502.624 211.302 504.492 211.638 506.279C212.33 510.084 212.709 513.965 212.773 517.907C212.755 526.023 212.737 533.754 212.722 540.791C212.594 547.835 212.478 554.181 212.38 559.523L212.086 572.162C212.037 573.63 211.998 574.783 211.97 575.604C211.949 575.976 211.933 576.272 211.921 576.502C211.923 576.603 211.909 576.707 211.878 576.812C211.851 576.716 211.84 576.617 211.845 576.514C211.839 576.287 211.831 575.996 211.822 575.628C211.817 574.813 211.809 573.668 211.8 572.207C211.815 569.198 211.836 564.903 211.861 559.608C211.914 554.274 211.976 547.937 212.046 540.903C212.044 533.874 212.042 526.152 212.04 518.044C211.975 514.115 211.602 510.244 210.923 506.449C210.585 504.624 210.6 502.716 210.965 500.771C211.366 498.859 212.08 496.991 212.661 495.185C213.983 491.56 213.835 488.239 213.768 485.131C213.666 482.026 213.593 479.121 213.74 476.434C213.872 473.749 214.192 471.291 214.606 469.122C214.972 466.954 215.651 465.063 215.687 463.58C215.7 462.102 215.616 460.955 215.616 460.174C215.612 459.806 215.609 459.512 215.606 459.286C215.598 459.186 215.606 459.084 215.63 458.98V458.98Z" fill="#F0F0F5"/>
<path d="M458.508 581.382C431.769 561.286 423.565 520.118 422.384 482.533C422.185 476.26 421.258 469.715 423.289 464.002C425.321 458.288 430.597 454.032 435.179 456.251C438.983 458.096 440.898 463.352 443.216 467.631C446.31 473.337 450.616 477.82 455.638 480.564C458.909 482.338 462.881 483.239 465.864 480.779C469.958 477.403 470.025 469.897 469.632 463.676C468.896 452.08 468.162 440.485 467.43 428.892C467.037 422.67 466.649 416.318 467.837 410.268C469.025 404.218 472.085 398.412 476.669 396.316C481.253 394.221 487.241 397.095 488.585 403.095C489.145 405.593 488.891 408.262 489.177 410.832C489.464 413.401 490.585 416.173 492.567 416.711C494.574 417.259 496.438 415.309 497.803 413.351C502.516 406.591 505.489 398.172 508.242 389.819C510.994 381.466 513.639 372.934 517.847 365.649C522.056 358.364 528.114 352.336 535.132 351.172C542.15 350.008 549.98 354.812 552.272 363.395C554.57 372.003 551.042 381.283 547.054 388.798C541.135 399.945 533.974 409.951 525.792 418.507C524.322 420.045 522.729 421.706 522.27 424.067C521.443 428.316 524.793 432.15 528.112 433.21C531.87 434.413 535.822 433.559 539.692 433.772C543.562 433.985 547.843 435.737 549.562 440.188C551.95 446.362 548.132 453.423 544.247 458.178C536.466 467.7 527.447 475.457 517.585 481.111C514.063 483.123 510.342 484.949 507.608 488.439C504.874 491.928 503.441 497.69 505.461 501.905C507.481 506.12 512.09 507.114 515.829 505.866C519.567 504.617 522.81 501.701 526.323 499.64C532.897 495.778 541.662 495.554 546.428 502.543C549.558 507.135 550.204 513.878 549.102 519.806C547.999 525.734 545.372 530.993 542.54 535.883C532.64 552.979 519.52 567.222 504.234 575.568C488.947 583.914 474.52 587.138 458.508 581.382Z" fill="url(#paint16_linear)"/>
<path d="M463.349 583.147C463.556 568.196 461.502 576.482 464.79 557.165C468.047 537.838 473.008 517.027 478.787 495.485C480.249 490.107 481.691 484.798 483.114 479.557C484.543 474.332 485.96 469.151 487.594 464.192C490.745 454.678 494.31 445.392 498.273 436.377C502.008 427.737 505.801 419.712 509.392 412.24C512.995 404.775 516.459 397.896 519.827 391.799C525.103 382.14 530.977 373.026 537.395 364.544C539.661 361.541 541.479 359.286 542.726 357.778C543.329 357.06 543.8 356.5 544.155 356.076C544.31 355.872 544.48 355.688 544.663 355.525C544.531 355.754 544.383 355.968 544.22 356.162C543.88 356.605 543.428 357.195 542.855 357.947C541.648 359.506 539.872 361.809 537.649 364.855C531.35 373.434 525.568 382.598 520.351 392.27C517.027 398.378 513.605 405.266 510.033 412.748C506.462 420.23 502.71 428.268 499.003 436.899C495.078 445.894 491.543 455.153 488.415 464.635C486.796 469.568 485.395 474.707 483.965 479.944C482.536 485.181 481.104 490.493 479.644 495.867C473.871 517.392 468.898 538.143 465.604 557.399C462.282 576.643 464.278 568.276 463.989 583.176" fill="#F0F0F5"/>
<path d="M487.85 464.124C487.564 463.285 487.349 462.41 487.211 461.514C486.856 459.817 486.398 457.343 485.871 454.276C484.813 448.144 483.581 439.611 482.249 430.2C480.917 420.789 479.599 412.297 478.472 406.202C477.914 403.149 477.444 400.69 477.101 398.993C476.88 398.123 476.734 397.225 476.668 396.316C476.998 397.128 477.256 397.983 477.439 398.866C477.887 400.53 478.455 402.968 479.093 406.002C480.386 412.068 481.816 420.564 483.147 429.989C484.44 439.282 485.611 447.688 486.504 454.112C486.922 457.011 487.277 459.453 487.56 461.414C487.734 462.301 487.831 463.21 487.85 464.124Z" fill="#F0F0F5"/>
<path d="M550.245 443.259C549.428 443.564 548.591 443.771 547.744 443.877C546.131 444.212 543.795 444.68 540.927 445.376C535.175 446.707 527.289 448.9 518.668 451.799C510.046 454.72 502.335 457.784 496.809 460.202C494.04 461.388 491.816 462.423 490.276 463.128C489.495 463.554 488.683 463.888 487.853 464.125C488.58 463.561 489.349 463.086 490.148 462.705C491.649 461.873 493.844 460.717 496.595 459.427C502.082 456.804 509.791 453.607 518.436 450.675C525.81 448.158 533.281 446.119 540.82 444.567C543.713 443.975 546.071 443.628 547.703 443.431C548.544 443.273 549.395 443.216 550.245 443.259V443.259Z" fill="#F0F0F5"/>
<path d="M465.48 555.621C465.284 555.338 465.118 555.024 464.989 554.685L463.739 551.892C462.661 549.458 461.174 545.888 459.383 541.446C455.795 532.564 451.145 520.097 446.16 506.253C441.174 492.408 436.62 479.899 433.184 470.935C431.503 466.578 430.118 462.995 429.092 460.331C428.65 459.175 428.287 458.22 427.989 457.437C427.842 457.108 427.732 456.756 427.66 456.39C427.856 456.673 428.021 456.988 428.151 457.327C428.489 458.082 428.902 459.003 429.402 460.119C430.48 462.552 431.966 466.122 433.758 470.564C437.346 479.448 441.995 491.913 446.982 505.765C451.969 519.616 456.52 532.111 459.957 541.079C461.639 545.432 463.022 549.017 464.049 551.677C464.491 552.833 464.853 553.789 465.152 554.571C465.298 554.9 465.409 555.254 465.48 555.621V555.621Z" fill="#F0F0F5"/>
<path d="M547.554 513.497C547.304 513.714 547.031 513.887 546.745 514.012C546.106 514.35 545.316 514.768 544.364 515.269C542.162 516.405 539.19 517.938 535.576 519.799C528.156 523.629 517.957 529.064 506.694 535.09C495.431 541.115 485.178 546.44 477.693 550.075C473.95 551.893 470.912 553.325 468.795 554.261C467.817 554.685 467.009 555.034 466.354 555.321C466.075 555.468 465.781 555.567 465.481 555.615C465.731 555.4 466.003 555.227 466.289 555.101L468.67 553.843L477.457 549.313C484.875 545.487 495.076 540.05 506.343 534.021C517.61 527.992 527.855 522.673 535.34 519.04C539.081 517.219 542.121 515.787 544.237 514.851C545.217 514.428 546.022 514.076 546.68 513.792C546.959 513.644 547.253 513.545 547.554 513.497V513.497Z" fill="#F0F0F5"/>
<path d="M186.455 584.017C173.587 576.635 164.246 556.403 158.022 537.241C156.983 534.043 155.635 530.785 155.497 527.63C155.36 524.474 156.632 521.711 158.648 522.347C160.322 522.877 161.832 525.364 163.338 527.307C165.348 529.896 167.613 531.725 169.871 532.582C171.339 533.134 172.93 533.161 173.641 531.571C174.616 529.389 173.484 525.529 172.382 522.378C170.326 516.507 168.271 510.636 166.217 504.765C165.115 501.615 163.994 498.397 163.496 495.161C162.998 491.925 163.222 488.609 164.574 487.031C165.926 485.453 168.557 486.271 169.973 489.203C170.562 490.424 170.881 491.822 171.381 493.109C171.882 494.397 172.719 495.697 173.526 495.755C174.344 495.816 174.725 494.611 174.922 493.456C175.602 489.47 175.391 484.822 175.11 480.232C174.829 475.643 174.48 470.973 174.896 466.772C175.311 462.571 176.596 458.812 178.981 457.445C181.366 456.078 184.968 457.684 187.128 461.839C189.294 466.005 189.435 471.155 189.135 475.45C188.69 481.821 187.615 487.743 185.944 493.033C185.644 493.983 185.318 495.01 185.514 496.273C185.866 498.544 187.681 500.145 189.057 500.325C190.616 500.53 191.929 499.659 193.376 499.343C194.823 499.028 196.657 499.458 197.971 501.553C199.795 504.461 199.488 508.504 198.801 511.371C197.425 517.112 195.324 522.083 192.592 526.067C191.615 527.487 190.537 528.832 190.075 530.923C189.614 533.014 189.978 536.129 191.366 538.071C192.753 540.013 194.591 540.017 195.765 538.966C196.939 537.915 197.674 536.063 198.64 534.62C200.447 531.916 203.616 530.839 206.434 533.904C208.286 535.918 209.561 539.308 210.072 542.472C210.582 545.635 210.433 548.623 210.151 551.444C209.168 561.305 206.569 570.056 202.269 576.016C197.969 581.977 193.193 585.215 186.455 584.017Z" fill="url(#paint17_linear)"/>
<path d="M188.496 584.392C186.268 576.695 186.794 581.174 185.019 570.898C183.231 560.62 181.837 549.393 180.629 537.702C180.335 534.781 180.043 531.897 179.756 529.051C179.473 526.213 179.192 523.397 179.025 520.673C178.711 515.444 178.582 510.286 178.642 505.224C178.675 500.38 178.824 495.844 178.985 491.615C179.152 487.388 179.357 483.477 179.648 479.978C180.088 474.441 180.83 469.118 181.868 464.061C182.234 462.271 182.55 460.914 182.774 460.003C182.884 459.568 182.969 459.229 183.034 458.973C183.059 458.851 183.093 458.737 183.134 458.634C183.122 458.766 183.1 458.892 183.071 459.009C183.015 459.274 182.941 459.627 182.847 460.075C182.646 461.008 182.352 462.385 182.009 464.192C181.029 469.287 180.328 474.625 179.913 480.162C179.639 483.662 179.45 487.573 179.298 491.805C179.146 496.037 179.013 500.575 178.989 505.412C178.94 510.46 179.076 515.6 179.394 520.81C179.562 523.52 179.842 526.311 180.127 529.156C180.411 532.001 180.707 534.885 181.001 537.804C182.209 549.486 183.589 560.683 185.353 570.928C187.104 581.171 186.544 576.657 188.735 584.337" fill="#F0F0F5"/>
<path d="M179.108 520.61C178.875 520.211 178.661 519.785 178.473 519.34C178.081 518.508 177.533 517.289 176.868 515.772C175.536 512.741 173.771 508.496 171.834 503.812C169.897 499.127 168.107 494.913 166.756 491.908C166.082 490.402 165.531 489.191 165.144 488.358C164.929 487.936 164.738 487.491 164.573 487.031C164.819 487.412 165.045 487.822 165.248 488.256C165.668 489.06 166.251 490.25 166.952 491.737C168.359 494.709 170.191 498.913 172.13 503.605C174.034 508.233 175.758 512.419 177.074 515.619C177.673 517.061 178.179 518.275 178.585 519.251C178.785 519.687 178.961 520.143 179.108 520.61Z" fill="#F0F0F5"/>
<path d="M198.694 503.056C198.442 503.301 198.168 503.499 197.875 503.647C197.337 503.996 196.556 504.492 195.615 505.164C193.718 506.479 191.174 508.469 188.471 510.903C185.77 513.348 183.425 515.767 181.778 517.614C180.949 518.527 180.295 519.302 179.842 519.833C179.622 520.137 179.377 520.398 179.11 520.61C179.289 520.241 179.496 519.913 179.73 519.63C180.15 519.038 180.774 518.204 181.581 517.24C183.181 515.291 185.506 512.805 188.213 510.351C190.52 508.25 192.936 506.384 195.451 504.761C196.417 504.14 197.225 503.702 197.791 503.422C198.075 503.249 198.377 503.126 198.694 503.056V503.056Z" fill="#F0F0F5"/>
<path d="M185.033 570.029C184.918 569.906 184.809 569.762 184.71 569.603L183.822 568.306C183.053 567.175 181.96 565.506 180.621 563.422C177.941 559.257 174.321 553.367 170.366 546.808C166.41 540.249 162.819 534.327 160.182 530.103C158.896 528.051 157.838 526.364 157.052 525.109C156.713 524.564 156.433 524.114 156.203 523.745C156.099 523.592 156.004 523.423 155.922 523.243C156.037 523.367 156.146 523.511 156.246 523.671C156.486 524.021 156.778 524.448 157.133 524.966C157.902 526.097 158.995 527.766 160.334 529.85C163.014 534.016 166.634 539.905 170.591 546.468C174.548 553.03 178.136 558.945 180.774 563.171C182.06 565.221 183.118 566.909 183.903 568.162C184.242 568.707 184.522 569.158 184.751 569.526C184.856 569.679 184.951 569.849 185.033 570.029V570.029Z" fill="#F0F0F5"/>
<path d="M208.534 539.403C208.476 539.542 208.403 539.661 208.318 539.756C208.136 540 207.912 540.301 207.641 540.663C207.012 541.488 206.162 542.601 205.128 543.952C203.007 546.732 200.117 550.641 196.93 554.969C193.743 559.298 190.816 563.156 188.642 565.843C187.554 567.187 186.665 568.255 186.035 568.967C185.743 569.292 185.502 569.56 185.306 569.779C185.227 569.886 185.135 569.969 185.033 570.026C185.091 569.888 185.164 569.77 185.249 569.673L185.925 568.767L188.438 565.478C190.559 562.7 193.449 558.79 196.637 554.459C199.825 550.128 202.749 546.274 204.925 543.588C206.011 542.243 206.901 541.175 207.531 540.463C207.823 540.137 208.063 539.869 208.26 539.651C208.339 539.544 208.431 539.461 208.534 539.403V539.403Z" fill="#F0F0F5"/>
<path d="M118.027 581.973C98.9123 586.882 81.583 576.275 68.7188 563.794C66.5708 561.711 63.9924 559.858 63.0734 556.979C62.1543 554.101 63.2331 550.288 66.1078 549.023C68.4947 547.974 71.1142 548.942 73.6017 549.395C76.921 549.997 80.4079 549.638 83.6605 548.359C85.7745 547.522 87.9314 546.071 88.5235 543.897C89.3365 540.913 86.9096 538.285 84.6874 536.307C80.5445 532.621 76.4029 528.934 72.2626 525.247C70.0404 523.269 67.7779 521.242 66.3531 518.622C64.9283 516.001 64.4609 512.635 65.923 509.876C67.3851 507.117 71.1333 505.455 73.7284 506.935C74.8092 507.551 75.564 508.588 76.5401 509.349C77.5162 510.111 78.9493 510.573 80.0544 509.88C81.1744 509.18 81.4098 507.678 81.4082 506.395C81.4031 501.965 80.039 497.732 78.5932 493.621C77.1474 489.509 75.5921 485.383 75.1787 480.995C74.7653 476.607 75.6304 471.834 78.5385 468.317C81.4466 464.801 86.6897 462.99 90.5755 464.943C94.472 466.902 95.858 471.678 96.4499 476.048C97.327 482.531 97.2481 489.171 96.2156 495.762C96.0303 496.946 95.8277 498.227 96.3857 499.248C97.3901 501.085 100.216 500.926 102.119 499.82C104.274 498.569 105.847 496.521 107.73 494.877C109.614 493.234 112.195 491.941 114.458 492.718C117.599 493.796 118.122 497.933 117.859 501.302C117.331 508.049 115.645 514.734 112.874 521.066C111.883 523.325 110.737 525.607 110.598 528.028C110.46 530.448 111.675 533.077 114.002 533.64C116.329 534.203 118.816 532.502 120.159 530.411C121.502 528.32 122.067 525.873 123.039 523.601C124.855 519.348 128.889 515.382 133.413 515.686C136.384 515.886 138.895 517.933 140.32 520.474C141.745 523.014 142.236 525.999 142.511 528.948C143.47 539.256 141.986 550.005 137.555 559.675C133.123 569.344 127.417 576.861 118.027 581.973Z" fill="url(#paint18_linear)"/>
<path d="M120.874 580.436C116.074 575.17 117.826 578.949 113.04 570.806C108.236 562.673 103.745 553.271 99.3977 543.253C98.3211 540.743 97.258 538.266 96.2083 535.821C95.1667 533.379 94.1339 530.958 93.2756 528.517C91.6361 523.827 90.2656 519.032 89.1705 514.154C88.0911 509.508 87.2399 505.048 86.4758 500.869C85.7199 496.687 85.0903 492.77 84.6714 489.166C83.9806 483.483 83.749 477.723 83.9787 471.941C84.0573 469.897 84.1707 468.31 84.2615 467.234C84.3087 466.718 84.3461 466.316 84.3737 466.012C84.3795 465.872 84.3987 465.733 84.431 465.596C84.4446 465.733 84.4449 465.873 84.4319 466.012C84.4181 466.317 84.3997 466.721 84.377 467.236C84.3219 468.311 84.2441 469.895 84.1996 471.936C84.0571 477.699 84.3486 483.435 85.0718 489.096C85.5139 492.685 86.1667 496.587 86.9431 500.76C87.7195 504.934 88.5941 509.38 89.6836 514.011C90.7899 518.865 92.1659 523.637 93.8054 528.306C94.6624 530.731 95.6888 533.131 96.7342 535.577C97.7796 538.024 98.8484 540.497 99.9245 543.004C104.269 553.014 108.735 562.401 113.498 570.526C118.244 578.659 116.439 574.878 121.184 580.162" fill="#F0F0F5"/>
<path d="M93.3731 528.38C92.9644 528.216 92.5774 528.009 92.2187 527.76C91.4966 527.331 90.4717 526.678 89.2201 525.85C86.7158 524.197 83.3436 521.791 79.6368 519.126C75.93 516.46 72.5308 514.106 70.0062 512.497C68.7447 511.688 67.7186 511.046 67.0025 510.61C66.6137 510.408 66.2515 510.162 65.9225 509.876C66.343 510.011 66.7444 510.192 67.1194 510.417C67.8739 510.794 68.9389 511.386 70.2315 512.153C72.8245 513.678 76.2775 515.983 79.9887 518.654C83.6384 521.296 86.9405 523.686 89.4632 525.512C90.6088 526.33 91.5748 527.018 92.3498 527.571C92.722 527.8 93.0652 528.072 93.3731 528.38Z" fill="#F0F0F5"/>
<path d="M115.784 493.478C115.501 493.946 115.176 494.389 114.814 494.802C114.168 495.634 113.226 496.832 112.11 498.345C109.85 501.357 106.872 505.615 103.781 510.443C100.697 515.278 98.0859 519.759 96.288 523.048C95.3783 524.687 94.6747 526.032 94.1841 526.959C93.9575 527.453 93.6866 527.929 93.3747 528.379C93.5313 527.861 93.7359 527.356 93.9856 526.87C94.4168 525.915 95.0667 524.542 95.9339 522.875C97.6461 519.533 100.212 515.007 103.304 510.156C105.936 506.014 108.77 501.994 111.795 498.112C112.957 496.624 113.948 495.458 114.649 494.666C114.991 494.238 115.371 493.84 115.784 493.478V493.478Z" fill="#F0F0F5"/>
<path d="M112.857 569.965C112.673 569.955 112.492 569.919 112.321 569.859L110.82 569.448C109.517 569.084 107.651 568.508 105.357 567.765C100.766 566.284 94.5031 564.032 87.6318 561.454C80.7605 558.875 74.5287 556.566 69.9822 554.989C67.7673 554.227 65.9445 553.601 64.5906 553.135C64.005 552.931 63.5222 552.762 63.1259 552.623C62.9496 552.574 62.7823 552.501 62.6288 552.406C62.8135 552.418 62.9943 552.453 63.1662 552.513C63.5718 552.624 64.067 552.76 64.6667 552.924C65.9688 553.288 67.8348 553.864 70.1296 554.606C74.7211 556.088 80.9831 558.339 87.8575 560.92C94.7318 563.501 100.958 565.805 105.505 567.384C107.72 568.144 109.542 568.771 110.895 569.236C111.48 569.44 111.964 569.61 112.359 569.748C112.536 569.797 112.704 569.87 112.857 569.965V569.965Z" fill="#F0F0F5"/>
<path d="M137.528 518.977C137.482 519.163 137.411 519.344 137.318 519.514C137.129 519.915 136.896 520.41 136.613 521.006C135.954 522.376 135.063 524.225 133.979 526.472C131.755 531.089 128.755 537.495 125.45 544.577C122.144 551.658 119.082 558.05 116.765 562.628C115.606 564.918 114.651 566.761 113.966 568.024C113.646 568.605 113.382 569.084 113.169 569.474C113.086 569.649 112.981 569.813 112.856 569.963C112.903 569.778 112.974 569.597 113.066 569.426L113.77 567.935L116.405 562.469C118.628 557.854 121.629 551.447 124.935 544.362C128.241 537.277 131.301 530.892 133.619 526.314C134.776 524.024 135.732 522.18 136.417 520.917C136.738 520.336 137 519.857 137.215 519.467C137.298 519.292 137.403 519.127 137.528 518.977V518.977Z" fill="#F0F0F5"/>
<path d="M145.521 558.655C146.441 555.472 144.03 552.293 141.335 550C138.641 547.707 135.423 545.658 134.009 542.616C131.719 537.688 134.713 531.277 130.832 527.175C128.549 524.761 124.478 523.971 122.449 521.39C121.385 520.037 121.033 518.369 120.607 516.77C118.41 508.573 113.73 501.041 107.053 494.959C106.652 502.275 108.517 509.549 112.453 516.02C114.031 518.604 115.964 521.119 116.5 524.008C117.37 528.7 114.396 533.553 115.749 538.157C117.296 543.422 124.113 546.918 124.471 552.344C124.773 556.932 120.212 560.982 120.583 565.567C120.742 567.519 121.793 569.326 122.961 570.997C127.069 576.875 133.075 580.909 142.136 580.732L153.239 581.016L145.521 558.655Z" fill="url(#paint19_linear)"/>
<path d="M110.04 501.103C110.035 501.167 110.044 501.23 110.065 501.293C110.099 501.433 110.143 501.615 110.197 501.843C110.331 502.328 110.483 503.039 110.784 503.958C111.106 504.882 111.965 505.921 112.656 507.174C113.384 508.424 114.11 509.866 114.756 511.481C115.412 513.096 115.966 514.882 116.547 516.806C117.147 518.715 117.763 520.825 119.483 522.824C120.279 523.828 121.172 524.833 121.845 525.905C122.502 527.005 122.911 528.148 123.062 529.305C123.4 531.765 123.974 534.213 124.781 536.638C126.548 541.603 128.232 546.333 129.764 550.638C131.377 554.925 132.83 558.788 134.054 562.04L136.992 569.722C137.344 570.611 137.621 571.31 137.818 571.807C137.913 572.031 137.989 572.209 138.047 572.347C138.067 572.41 138.1 572.471 138.144 572.529C138.142 572.466 138.128 572.403 138.103 572.341C138.058 572.201 138 572.021 137.927 571.794C137.754 571.294 137.512 570.591 137.203 569.696C136.542 567.856 135.599 565.231 134.436 561.994C133.246 558.739 131.832 554.871 130.262 550.578C128.744 546.275 127.076 541.547 125.325 536.583C124.52 534.165 123.945 531.726 123.6 529.274C123.442 528.093 123.02 526.928 122.343 525.806C121.649 524.711 120.745 523.702 119.947 522.706C118.237 520.737 117.623 518.676 116.998 516.761C116.398 514.841 115.821 513.048 115.137 511.431C114.464 509.813 113.708 508.368 112.949 507.118C112.224 505.861 111.34 504.831 110.994 503.93C110.665 503.028 110.476 502.31 110.307 501.832C110.23 501.605 110.169 501.425 110.122 501.286C110.106 501.224 110.079 501.162 110.04 501.103V501.103Z" fill="#F0F0F5"/>
<path d="M157.449 581.277C164.675 577.484 166.681 566.07 163.612 559.22C160.542 552.371 155.208 546.126 154.344 538.811C153.68 533.188 155.756 527.405 154.217 521.913C152.14 514.502 143.792 508.795 143.84 501.167C143.866 496.886 146.633 492.845 146.382 488.571C146.076 483.328 141.43 479.191 138.54 474.584C134.116 467.534 133.773 459.174 132.225 451.254C130.676 443.333 127.156 434.857 119.067 431C117.92 437.738 115.919 442.359 116.617 451.475C116.867 454.749 121.273 460.998 121.913 468.173C122.296 472.462 122.57 476.757 122.899 481.049C123.218 485.226 123.557 489.478 125.301 493.378C126.636 496.367 128.769 499.078 129.766 502.166C131.643 507.974 129.268 514.288 130.792 520.175C132.083 525.162 136.074 529.44 136.917 534.5C138.102 541.609 132.868 549.028 135.616 555.803C136.979 559.164 140.175 561.852 141.099 565.325C141.816 568.02 141.072 570.879 141.723 573.587C142.772 577.949 152.348 581.292 157.449 580.997" fill="url(#paint20_linear)"/>
<path d="M121.434 437.613C121.429 437.733 121.439 437.854 121.463 437.971C121.501 438.237 121.551 438.58 121.612 439.012C121.765 439.927 121.937 441.269 122.278 443.005C122.645 444.751 123.619 446.713 124.404 449.081C125.23 451.441 126.054 454.166 126.788 457.217C127.532 460.266 128.161 463.641 128.821 467.274C129.502 470.88 130.201 474.866 132.153 478.642C133.056 480.539 134.07 482.437 134.834 484.462C135.58 486.54 136.045 488.698 136.216 490.884C136.6 495.53 137.251 500.154 138.167 504.734C140.173 514.113 142.085 523.047 143.824 531.179C145.655 539.278 147.304 546.574 148.693 552.716L152.029 567.227C152.428 568.907 152.742 570.226 152.966 571.165C153.074 571.588 153.16 571.925 153.226 572.186C153.249 572.304 153.286 572.419 153.336 572.529C153.333 572.409 153.318 572.29 153.289 572.173C153.238 571.909 153.172 571.569 153.09 571.141C152.894 570.196 152.619 568.869 152.268 567.177C151.517 563.703 150.447 558.743 149.127 552.63C147.776 546.48 146.171 539.175 144.389 531.067C142.666 522.937 140.772 514.007 138.784 504.631C137.871 500.064 137.218 495.456 136.827 490.825C136.647 488.594 136.168 486.393 135.399 484.274C134.612 482.207 133.585 480.301 132.68 478.42C130.739 474.7 130.042 470.807 129.332 467.189C128.651 463.562 127.996 460.177 127.22 457.122C126.456 454.065 125.598 451.336 124.737 448.976C123.913 446.6 122.91 444.655 122.517 442.954C122.144 441.25 121.929 439.893 121.738 438.99C121.65 438.562 121.581 438.222 121.528 437.959C121.509 437.841 121.478 437.725 121.434 437.613V437.613Z" fill="#F0F0F5"/>
<path d="M341.627 583.781C322.172 580.47 310.673 563.72 304.015 547.078C302.903 544.301 301.304 541.557 301.639 538.554C301.973 535.551 304.513 532.509 307.654 532.526C310.261 532.541 312.258 534.494 314.344 535.921C317.13 537.824 320.46 538.918 323.952 539.077C326.223 539.174 328.784 538.729 330.211 536.985C332.17 534.591 331.026 531.203 329.803 528.49C327.523 523.435 325.244 518.38 322.967 513.325C321.745 510.613 320.505 507.84 320.272 504.867C320.04 501.893 320.986 498.628 323.445 496.705C325.905 494.783 330.005 494.793 331.772 497.202C332.507 498.205 332.774 499.46 333.355 500.553C333.935 501.647 335.055 502.653 336.347 502.471C337.656 502.288 338.483 501.012 339.005 499.84C340.806 495.793 341.286 491.372 341.642 487.028C341.998 482.684 342.26 478.283 343.672 474.108C345.083 469.932 347.82 465.926 351.909 463.901C355.998 461.876 361.524 462.36 364.276 465.728C367.035 469.105 366.353 474.032 365.112 478.263C363.269 484.541 360.49 490.571 356.861 496.168C356.208 497.174 355.501 498.261 355.594 499.421C355.762 501.508 358.408 502.514 360.596 502.281C363.074 502.017 365.345 500.788 367.735 500.055C370.125 499.323 373.009 499.194 374.759 500.827C377.188 503.091 375.979 507.082 374.365 510.051C371.131 515.996 366.866 521.414 361.755 526.065C359.928 527.724 357.951 529.341 356.838 531.494C355.725 533.648 355.763 536.545 357.658 538.007C359.554 539.47 362.517 538.93 364.596 537.569C366.675 536.208 368.189 534.203 370.003 532.525C373.395 529.382 378.696 527.405 382.702 529.527C385.333 530.921 386.792 533.814 387.057 536.715C387.322 539.615 386.554 542.542 385.602 545.346C382.276 555.149 376.538 564.359 368.55 571.382C360.561 578.405 352.286 582.942 341.627 583.781Z" fill="url(#paint21_linear)"/>
<path d="M344.854 583.539C342.618 576.774 342.677 580.938 341.626 571.551C340.556 562.166 340.288 551.75 340.403 540.83C340.444 538.1 340.483 535.404 340.521 532.744C340.566 530.09 340.61 527.457 340.821 524.878C341.236 519.927 341.94 514.99 342.929 510.09C343.838 505.407 344.879 500.988 345.885 496.861C346.899 492.734 347.922 488.9 349.008 485.439C350.695 479.968 352.832 474.614 355.399 469.428C356.304 467.593 357.055 466.191 357.576 465.246C357.83 464.794 358.028 464.441 358.177 464.175C358.239 464.05 358.313 463.931 358.399 463.818C358.355 463.95 358.299 464.077 358.23 464.199C358.093 464.471 357.912 464.833 357.681 465.294C357.192 466.253 356.475 467.668 355.603 469.513C353.123 474.718 351.05 480.074 349.402 485.538C348.343 488.995 347.348 492.824 346.356 496.952C345.363 501.079 344.349 505.495 343.456 510.168C342.487 515.052 341.798 519.97 341.391 524.902C341.185 527.466 341.144 530.076 341.101 532.736C341.058 535.396 341.025 538.09 340.986 540.818C340.871 551.729 341.122 562.121 342.159 571.482C343.177 580.843 343.07 576.655 345.248 583.415" fill="#F0F0F5"/>
<path d="M340.966 524.793C340.66 524.477 340.391 524.13 340.165 523.757C339.68 523.07 339.011 522.056 338.205 520.79C336.593 518.26 334.494 514.688 332.196 510.743C329.898 506.797 327.754 503.262 326.105 500.764C325.283 499.51 324.608 498.505 324.132 497.816C323.859 497.473 323.629 497.1 323.445 496.705C323.774 497 324.066 497.329 324.317 497.687C324.853 498.339 325.584 499.313 326.451 500.541C328.197 502.991 330.41 506.504 332.71 510.455C334.965 514.356 337.006 517.884 338.565 520.581C339.278 521.794 339.879 522.816 340.362 523.637C340.608 523.998 340.811 524.386 340.966 524.793Z" fill="#F0F0F5"/>
<path d="M375.66 502.062C375.21 502.373 374.733 502.645 374.234 502.875C373.305 503.37 371.957 504.081 370.321 505.007C367.029 506.836 362.574 509.51 357.783 512.658C352.995 515.816 348.784 518.843 345.802 521.113C344.303 522.239 343.112 523.18 342.286 523.826C341.878 524.185 341.436 524.509 340.968 524.793C341.322 524.384 341.715 524.006 342.141 523.664C342.924 522.968 344.077 521.979 345.549 520.81C348.475 518.457 352.664 515.37 357.464 512.202C361.556 509.492 365.783 506.977 370.128 504.666C371.795 503.781 373.176 503.12 374.139 502.683C374.626 502.432 375.135 502.224 375.66 502.062V502.062Z" fill="#F0F0F5"/>
<path d="M341.803 570.709C341.638 570.624 341.488 570.518 341.356 570.394L340.153 569.406C339.112 568.543 337.643 567.256 335.85 565.642C332.262 562.418 327.462 557.808 322.239 552.652C317.016 547.496 312.267 542.847 308.759 539.554C307.047 537.955 305.638 536.64 304.591 535.662C304.14 535.237 303.768 534.886 303.463 534.598C303.322 534.481 303.199 534.347 303.097 534.197C303.261 534.283 303.412 534.389 303.545 534.514C303.87 534.78 304.266 535.106 304.747 535.501C305.788 536.364 307.257 537.651 309.049 539.264C312.638 542.489 317.438 547.098 322.663 552.257C327.888 557.416 332.633 562.059 336.142 565.354C337.854 566.951 339.262 568.267 340.308 569.243C340.759 569.668 341.131 570.02 341.436 570.308C341.578 570.424 341.701 570.559 341.803 570.709V570.709Z" fill="#F0F0F5"/>
<path d="M385.118 534.21C385 534.361 384.862 534.497 384.707 534.615C384.371 534.904 383.956 535.26 383.456 535.689C382.295 536.671 380.727 537.997 378.821 539.606C374.909 542.916 369.557 547.541 363.652 552.66C357.746 557.779 352.345 562.367 348.362 565.603C346.37 567.221 344.747 568.515 343.606 569.389C343.077 569.789 342.641 570.118 342.287 570.387C342.14 570.513 341.977 570.621 341.802 570.707C341.92 570.556 342.059 570.42 342.213 570.302L343.464 569.228L348.098 565.311C352.01 562.003 357.362 557.377 363.269 552.255C369.177 547.134 374.574 542.55 378.557 539.315C380.548 537.696 382.172 536.402 383.313 535.529C383.843 535.128 384.277 534.798 384.633 534.53C384.78 534.404 384.943 534.296 385.118 534.21V534.21Z" fill="#F0F0F5"/>
<path d="M417.627 586.781C398.172 583.47 386.673 566.72 380.015 550.078C378.903 547.301 377.304 544.557 377.639 541.554C377.973 538.551 380.513 535.509 383.654 535.526C386.261 535.541 388.258 537.494 390.344 538.921C393.13 540.824 396.46 541.918 399.952 542.077C402.223 542.174 404.784 541.729 406.211 539.985C408.17 537.591 407.026 534.203 405.803 531.49C403.523 526.435 401.244 521.38 398.967 516.325C397.745 513.613 396.505 510.84 396.272 507.867C396.04 504.893 396.986 501.628 399.445 499.705C401.905 497.783 406.005 497.793 407.772 500.202C408.507 501.205 408.774 502.46 409.355 503.553C409.935 504.647 411.055 505.653 412.347 505.471C413.656 505.288 414.483 504.012 415.005 502.84C416.806 498.793 417.286 494.372 417.642 490.028C417.998 485.684 418.26 481.283 419.672 477.108C421.083 472.932 423.82 468.926 427.909 466.901C431.998 464.876 437.524 465.36 440.276 468.728C443.035 472.105 442.353 477.032 441.112 481.263C439.269 487.541 436.49 493.571 432.861 499.168C432.208 500.174 431.501 501.261 431.594 502.421C431.762 504.508 434.408 505.514 436.596 505.281C439.074 505.017 441.345 503.788 443.735 503.055C446.125 502.323 449.009 502.194 450.759 503.827C453.188 506.091 451.979 510.082 450.365 513.051C447.131 518.996 442.866 524.414 437.755 529.065C435.928 530.724 433.951 532.341 432.838 534.494C431.725 536.648 431.763 539.545 433.658 541.007C435.554 542.47 438.517 541.93 440.596 540.569C442.675 539.208 444.189 537.203 446.003 535.525C449.395 532.382 454.696 530.405 458.702 532.527C461.333 533.921 462.792 536.814 463.057 539.715C463.322 542.615 462.554 545.542 461.602 548.346C458.276 558.149 452.538 567.359 444.55 574.382C436.561 581.405 428.286 585.942 417.627 586.781Z" fill="url(#paint22_linear)"/>
<path d="M420.854 586.539C418.618 579.774 418.677 583.938 417.626 574.551C416.556 565.166 416.288 554.75 416.403 543.83C416.444 541.1 416.483 538.404 416.521 535.744C416.566 533.09 416.61 530.457 416.821 527.878C417.236 522.927 417.94 517.99 418.929 513.09C419.838 508.407 420.879 503.988 421.885 499.861C422.899 495.734 423.922 491.9 425.008 488.439C426.695 482.968 428.832 477.614 431.399 472.428C432.304 470.593 433.055 469.191 433.576 468.246C433.83 467.794 434.028 467.441 434.177 467.175C434.239 467.05 434.313 466.931 434.399 466.818C434.355 466.95 434.299 467.077 434.23 467.199C434.093 467.471 433.912 467.833 433.681 468.294C433.192 469.253 432.475 470.668 431.603 472.513C429.123 477.718 427.05 483.074 425.402 488.538C424.343 491.995 423.348 495.824 422.356 499.952C421.363 504.079 420.349 508.495 419.456 513.168C418.487 518.052 417.798 522.97 417.391 527.902C417.185 530.466 417.144 533.076 417.101 535.736C417.058 538.396 417.025 541.09 416.986 543.818C416.871 554.729 417.122 565.121 418.159 574.482C419.177 583.843 419.07 579.655 421.248 586.415" fill="#F0F0F5"/>
<path d="M416.966 527.793C416.66 527.477 416.391 527.13 416.165 526.757C415.68 526.07 415.011 525.056 414.205 523.79C412.593 521.26 410.494 517.688 408.196 513.743C405.898 509.797 403.754 506.262 402.105 503.764C401.283 502.51 400.608 501.505 400.132 500.816C399.859 500.473 399.629 500.1 399.445 499.705C399.774 500 400.066 500.329 400.317 500.687C400.853 501.339 401.584 502.313 402.451 503.541C404.197 505.991 406.41 509.504 408.71 513.455C410.965 517.356 413.006 520.884 414.565 523.581C415.278 524.794 415.879 525.816 416.362 526.637C416.608 526.998 416.811 527.386 416.966 527.793Z" fill="#F0F0F5"/>
<path d="M451.66 505.062C451.21 505.373 450.733 505.645 450.234 505.875C449.305 506.37 447.957 507.081 446.321 508.007C443.029 509.836 438.574 512.51 433.783 515.658C428.995 518.816 424.784 521.843 421.802 524.113C420.303 525.239 419.112 526.18 418.286 526.826C417.878 527.185 417.436 527.509 416.968 527.793C417.322 527.384 417.715 527.006 418.141 526.664C418.924 525.968 420.077 524.979 421.549 523.81C424.475 521.457 428.664 518.37 433.464 515.202C437.556 512.492 441.783 509.977 446.128 507.666C447.795 506.781 449.176 506.12 450.139 505.683C450.626 505.432 451.135 505.224 451.66 505.062V505.062Z" fill="#F0F0F5"/>
<path d="M417.803 573.709C417.638 573.624 417.488 573.518 417.356 573.394L416.153 572.406C415.112 571.543 413.643 570.256 411.85 568.642C408.262 565.418 403.462 560.808 398.239 555.652C393.016 550.496 388.267 545.847 384.759 542.554C383.047 540.955 381.638 539.64 380.592 538.662C380.14 538.237 379.768 537.886 379.463 537.598C379.322 537.481 379.199 537.347 379.097 537.197C379.261 537.283 379.412 537.389 379.545 537.514C379.87 537.78 380.266 538.106 380.747 538.501C381.788 539.364 383.257 540.651 385.049 542.264C388.638 545.489 393.438 550.098 398.663 555.257C403.888 560.416 408.633 565.059 412.142 568.354C413.854 569.951 415.263 571.267 416.308 572.243C416.759 572.668 417.132 573.02 417.437 573.308C417.578 573.424 417.701 573.559 417.803 573.709V573.709Z" fill="#F0F0F5"/>
<path d="M461.118 537.21C461 537.361 460.862 537.497 460.707 537.615C460.371 537.904 459.956 538.26 459.456 538.689C458.295 539.671 456.727 540.997 454.821 542.606C450.909 545.916 445.557 550.541 439.652 555.66C433.746 560.779 428.345 565.367 424.362 568.603C422.37 570.221 420.747 571.515 419.606 572.389C419.077 572.789 418.641 573.118 418.287 573.387C418.14 573.513 417.977 573.621 417.802 573.707C417.92 573.556 418.059 573.42 418.213 573.302L419.464 572.228L424.098 568.311C428.01 565.003 433.362 560.377 439.269 555.255C445.177 550.134 450.574 545.55 454.557 542.315C456.548 540.696 458.172 539.402 459.313 538.529C459.843 538.128 460.277 537.798 460.633 537.53C460.78 537.404 460.943 537.296 461.118 537.21V537.21Z" fill="#F0F0F5"/>
<path d="M251.701 585.146C232.032 583.533 219.125 567.842 211.051 551.84C209.702 549.169 207.872 546.574 207.945 543.554C208.018 540.533 210.285 537.282 213.415 537.027C216.014 536.816 218.172 538.589 220.375 539.83C223.315 541.484 226.727 542.285 230.219 542.141C232.491 542.041 235.004 541.376 236.274 539.515C238.019 536.961 236.585 533.684 235.132 531.088C232.422 526.249 229.714 521.411 227.008 516.572C225.555 513.976 224.08 511.321 223.59 508.379C223.101 505.436 223.76 502.102 226.044 499.973C228.328 497.844 232.414 497.5 234.383 499.747C235.202 500.682 235.577 501.909 236.25 502.948C236.923 503.987 238.126 504.893 239.397 504.599C240.685 504.303 241.399 502.961 241.817 501.748C243.261 497.56 243.356 493.114 243.335 488.756C243.313 484.398 243.193 479.99 244.237 475.708C245.282 471.426 247.661 467.198 251.559 464.827C255.457 462.455 261.004 462.458 264.038 465.575C267.079 468.701 266.827 473.668 265.957 477.991C264.665 484.404 262.419 490.653 259.287 496.543C258.725 497.601 258.114 498.746 258.308 499.893C258.656 501.958 261.379 502.732 263.538 502.309C265.984 501.832 268.141 500.41 270.458 499.474C272.776 498.537 275.637 498.159 277.522 499.634C280.138 501.679 279.279 505.76 277.929 508.857C275.222 515.061 271.442 520.827 266.753 525.904C265.077 527.714 263.248 529.497 262.325 531.739C261.403 533.98 261.691 536.863 263.706 538.156C265.722 539.449 268.627 538.654 270.581 537.118C272.534 535.582 273.868 533.453 275.53 531.625C278.637 528.2 283.747 525.771 287.922 527.538C290.664 528.699 292.368 531.455 292.883 534.321C293.399 537.188 292.887 540.17 292.181 543.046C289.717 553.101 284.798 562.773 277.448 570.462C270.098 578.15 262.247 583.387 251.701 585.146Z" fill="url(#paint23_linear)"/>
<path d="M254.895 584.626C252.081 578.079 252.5 582.223 250.64 572.963C248.761 563.706 247.592 553.351 246.761 542.463C246.565 539.739 246.37 537.051 246.178 534.397C245.992 531.749 245.808 529.122 245.796 526.535C245.78 521.567 246.053 516.587 246.614 511.619C247.114 506.876 247.768 502.383 248.413 498.184C249.066 493.985 249.753 490.077 250.535 486.534C251.741 480.938 253.407 475.419 255.515 470.03C256.258 468.124 256.884 466.661 257.321 465.675C257.535 465.203 257.702 464.835 257.827 464.556C257.878 464.426 257.942 464.301 258.018 464.182C257.986 464.316 257.94 464.448 257.882 464.576C257.77 464.859 257.62 465.235 257.43 465.714C257.026 466.712 256.435 468.184 255.725 470.097C253.706 475.497 252.105 481.013 250.937 486.6C250.181 490.135 249.521 494.036 248.89 498.234C248.259 502.432 247.631 506.919 247.146 511.652C246.604 516.601 246.343 521.561 246.365 526.509C246.382 529.081 246.567 531.685 246.755 534.338C246.942 536.992 247.143 539.679 247.34 542.4C248.172 553.281 249.321 563.612 251.165 572.848C252.99 582.085 252.521 577.922 255.277 584.468" fill="#F0F0F5"/>
<path d="M245.933 526.437C245.6 526.149 245.302 525.826 245.044 525.474C244.502 524.832 243.747 523.88 242.835 522.689C241.01 520.307 238.61 516.931 235.979 513.199C233.348 509.468 230.905 506.132 229.046 503.786C228.118 502.608 227.359 501.666 226.824 501.02C226.523 500.702 226.261 500.35 226.044 499.973C226.397 500.238 226.717 500.541 226.998 500.875C227.588 501.478 228.401 502.386 229.371 503.534C231.323 505.823 233.832 509.131 236.465 512.869C239.05 516.559 241.389 519.898 243.176 522.449C243.991 523.596 244.679 524.562 245.23 525.338C245.507 525.677 245.742 526.045 245.933 526.437Z" fill="#F0F0F5"/>
<path d="M278.526 500.786C278.106 501.135 277.654 501.448 277.177 501.719C276.294 502.294 275.013 503.118 273.462 504.183C270.342 506.291 266.135 509.34 261.635 512.891C257.138 516.452 253.206 519.833 250.431 522.352C249.035 523.603 247.931 524.644 247.164 525.36C246.788 525.753 246.376 526.113 245.934 526.437C246.252 525.999 246.61 525.588 247.005 525.211C247.725 524.45 248.788 523.364 250.153 522.073C252.864 519.475 256.77 516.037 261.278 512.464C265.12 509.411 269.112 506.539 273.241 503.86C274.826 502.834 276.144 502.056 277.065 501.536C277.529 501.244 278.018 500.993 278.526 500.786V500.786Z" fill="#F0F0F5"/>
<path d="M250.743 572.108C250.572 572.038 250.413 571.946 250.271 571.833L248.987 570.953C247.875 570.183 246.3 569.028 244.375 567.576C240.521 564.675 235.339 560.499 229.689 555.814C224.039 551.13 218.905 546.91 215.125 543.932C213.281 542.488 211.763 541.3 210.636 540.417C210.15 540.033 209.749 539.715 209.42 539.454C209.269 539.35 209.135 539.227 209.021 539.087C209.192 539.158 209.351 539.251 209.494 539.363C209.841 539.601 210.264 539.891 210.777 540.242C211.889 541.012 213.464 542.167 215.389 543.619C219.244 546.521 224.425 550.697 230.077 555.384C235.729 560.071 240.859 564.285 244.64 567.264C246.484 568.707 248.001 569.896 249.127 570.777C249.614 571.161 250.015 571.48 250.344 571.74C250.495 571.844 250.629 571.968 250.743 572.108V572.108Z" fill="#F0F0F5"/>
<path d="M290.734 531.994C290.63 532.155 290.504 532.303 290.36 532.433C290.05 532.75 289.668 533.141 289.206 533.612C288.135 534.691 286.688 536.147 284.929 537.916C281.317 541.552 276.387 546.624 270.947 552.235C265.507 557.846 260.523 562.884 256.836 566.453C254.992 568.238 253.487 569.667 252.426 570.637C251.933 571.081 251.527 571.447 251.198 571.746C251.063 571.884 250.909 572.005 250.742 572.106C250.848 571.946 250.974 571.799 251.117 571.668L252.27 570.488L256.547 566.185C260.158 562.551 265.089 557.478 270.531 551.864C275.973 546.25 280.952 541.216 284.64 537.649C286.483 535.863 287.989 534.434 289.05 533.464C289.543 533.02 289.947 532.653 290.278 532.355C290.414 532.216 290.567 532.095 290.734 531.994V531.994Z" fill="#F0F0F5"/>
<path d="M296.537 554.331C298.37 551.571 297.024 547.815 295.143 544.819C293.261 541.823 290.807 538.902 290.372 535.575C289.667 530.187 294.449 524.971 291.978 519.893C290.525 516.905 286.88 514.928 285.719 511.858C285.111 510.248 285.275 508.551 285.349 506.898C285.715 498.42 283.512 489.829 278.971 482.024C276.391 488.881 275.986 496.38 277.797 503.733C278.526 506.673 279.614 509.652 279.258 512.569C278.68 517.306 274.385 521.041 274.293 525.839C274.188 531.326 279.641 536.707 278.353 541.99C277.263 546.457 271.696 548.951 270.674 553.435C270.239 555.345 270.699 557.384 271.311 559.329C273.465 566.169 277.982 571.82 286.678 574.373L297.183 577.978L296.537 554.331Z" fill="url(#paint24_linear)"/>
<path d="M279.974 488.781C279.951 488.84 279.94 488.903 279.942 488.969C279.932 489.114 279.919 489.3 279.902 489.534C279.885 490.036 279.815 490.76 279.827 491.727C279.857 492.705 280.364 493.954 280.647 495.357C280.966 496.768 281.225 498.362 281.357 500.096C281.497 501.833 281.489 503.704 281.466 505.713C281.465 507.714 281.419 509.912 282.459 512.335C282.917 513.532 283.467 514.758 283.787 515.983C284.084 517.23 284.131 518.442 283.927 519.592C283.511 522.039 283.323 524.546 283.365 527.102C283.56 532.369 283.746 537.386 283.914 541.952C284.165 546.526 284.391 550.647 284.582 554.116L285.078 562.326C285.147 563.28 285.201 564.03 285.24 564.563C285.263 564.805 285.281 564.998 285.295 565.147C285.296 565.212 285.309 565.28 285.333 565.349C285.35 565.288 285.356 565.224 285.351 565.157C285.35 565.01 285.349 564.821 285.348 564.583C285.333 564.055 285.313 563.312 285.287 562.364C285.208 560.411 285.097 557.624 284.96 554.187C284.802 550.725 284.615 546.611 284.407 542.045C284.251 537.484 284.08 532.474 283.9 527.213C283.858 524.665 284.042 522.165 284.45 519.723C284.653 518.549 284.6 517.311 284.292 516.038C283.959 514.785 283.399 513.551 282.937 512.362C281.897 509.97 281.931 507.82 281.91 505.805C281.914 503.793 281.901 501.91 281.735 500.163C281.579 498.417 281.292 496.812 280.943 495.392C280.629 493.975 280.095 492.727 280.035 491.764C279.993 490.805 280.028 490.063 280.011 489.556C280.005 489.317 280.001 489.127 279.998 488.98C280.002 488.916 279.994 488.849 279.974 488.781V488.781Z" fill="#F0F0F5"/>
<path d="M301.121 579.491C309.152 578.042 314.493 567.758 313.622 560.302C312.751 552.847 309.538 545.289 310.911 538.052C311.966 532.49 315.682 527.596 315.864 521.896C316.108 514.203 309.859 506.253 312.196 498.991C313.506 494.916 317.358 491.892 318.403 487.74C319.685 482.647 316.496 477.306 315.122 472.043C313.019 463.991 315.203 455.914 316.104 447.894C317.006 439.874 316.193 430.732 309.636 424.624C306.518 430.706 303.223 434.513 301.15 443.418C300.406 446.616 302.732 453.899 301.188 460.936C300.265 465.141 299.237 469.32 298.262 473.514C297.312 477.593 296.359 481.751 296.851 485.995C297.227 489.247 298.447 492.473 298.471 495.718C298.517 501.822 294.356 507.131 294.042 513.204C293.776 518.348 296.298 523.627 295.583 528.708C294.578 535.844 287.358 541.349 287.945 548.636C288.236 552.252 290.477 555.775 290.315 559.365C290.19 562.151 288.622 564.655 288.43 567.433C288.121 571.909 296.251 577.974 301.205 579.224" fill="url(#paint25_linear)"/>
<path d="M309.907 431.642C309.867 431.755 309.84 431.873 309.828 431.993C309.784 432.258 309.729 432.6 309.658 433.03C309.529 433.948 309.289 435.281 309.094 437.039C308.919 438.815 309.26 440.978 309.297 443.472C309.376 445.972 309.344 448.818 309.128 451.949C308.922 455.081 308.508 458.489 308.047 462.153C307.614 465.797 307.083 469.809 307.812 473.996C308.104 476.077 308.501 478.192 308.622 480.353C308.709 482.559 308.504 484.756 308.012 486.893C306.982 491.44 306.215 496.046 305.713 500.69C304.811 510.239 303.952 519.334 303.168 527.613C302.482 535.888 301.865 543.343 301.346 549.619L300.17 564.461C300.047 566.184 299.95 567.537 299.881 568.5C299.857 568.935 299.838 569.282 299.822 569.551C299.809 569.67 299.81 569.791 299.824 569.911C299.858 569.796 299.879 569.678 299.887 569.558C299.917 569.29 299.957 568.946 300.007 568.513C300.103 567.554 300.239 566.205 300.413 564.486C300.74 560.947 301.208 555.894 301.785 549.667C302.343 543.395 303.006 535.945 303.741 527.676C304.539 519.404 305.414 510.318 306.333 500.777C306.833 496.147 307.594 491.555 308.612 487.02C309.11 484.839 309.314 482.595 309.217 480.343C309.087 478.135 308.68 476.008 308.381 473.942C307.647 469.811 308.151 465.889 308.561 462.225C309 458.561 309.391 455.135 309.569 451.988C309.758 448.843 309.759 445.982 309.646 443.472C309.574 440.959 309.201 438.802 309.337 437.061C309.493 435.324 309.695 433.965 309.784 433.047C309.829 432.613 309.865 432.267 309.893 432C309.911 431.882 309.916 431.762 309.907 431.642V431.642Z" fill="#F0F0F5"/>
<defs>
<radialGradient id="paint0_angular" cx="0" cy="0" r="1" gradientUnits="userSpaceOnUse" gradientTransform="translate(159.131 319.289) rotate(-90) scale(19.0391 13.6959)">
<stop stop-color="#EA80FC"/>
<stop offset="0.140625" stop-color="#80D8FF" stop-opacity="0.66"/>
<stop offset="0.46875" stop-color="#80D8FF" stop-opacity="0.66"/>
</radialGradient>
<radialGradient id="paint1_angular" cx="0" cy="0" r="1" gradientUnits="userSpaceOnUse" gradientTransform="translate(222.358 373.95) rotate(-90) scale(19.0391 13.696)">
<stop stop-color="#EA80FC"/>
<stop offset="0.140625" stop-color="#80D8FF" stop-opacity="0.66"/>
<stop offset="0.46875" stop-color="#80D8FF" stop-opacity="0.66"/>
</radialGradient>
<radialGradient id="paint2_angular" cx="0" cy="0" r="1" gradientUnits="userSpaceOnUse" gradientTransform="translate(303.523 313.169) rotate(-90) scale(19.0391 13.696)">
<stop stop-color="#EA80FC"/>
<stop offset="0.140625" stop-color="#80D8FF" stop-opacity="0.66"/>
<stop offset="0.46875" stop-color="#80D8FF" stop-opacity="0.66"/>
</radialGradient>
<radialGradient id="paint3_angular" cx="0" cy="0" r="1" gradientUnits="userSpaceOnUse" gradientTransform="translate(271.877 447.546) rotate(-90) scale(19.3601 13.5313)">
<stop stop-color="#EA80FC"/>
<stop offset="0.140625" stop-color="#80D8FF" stop-opacity="0.66"/>
<stop offset="0.46875" stop-color="#80D8FF" stop-opacity="0.66"/>
</radialGradient>
<radialGradient id="paint4_angular" cx="0" cy="0" r="1" gradientUnits="userSpaceOnUse" gradientTransform="translate(363.236 383.982) rotate(-90) scale(20 13.5)">
<stop stop-color="#EA80FC"/>
<stop offset="0.140625" stop-color="#80D8FF" stop-opacity="0.66"/>
<stop offset="0.46875" stop-color="#80D8FF" stop-opacity="0.66"/>
</radialGradient>
<radialGradient id="paint5_angular" cx="0" cy="0" r="1" gradientUnits="userSpaceOnUse" gradientTransform="translate(105.388 403.031) rotate(-90) scale(19.0736 13.6862)">
<stop stop-color="#EA80FC"/>
<stop offset="0.140625" stop-color="#80D8FF" stop-opacity="0.66"/>
<stop offset="0.46875" stop-color="#80D8FF" stop-opacity="0.66"/>
</radialGradient>
<radialGradient id="paint6_angular" cx="0" cy="0" r="1" gradientUnits="userSpaceOnUse" gradientTransform="translate(477.233 346.278) rotate(-102.546) scale(20.5354 13.7889)">
<stop stop-color="#EA80FC"/>
<stop offset="0.140625" stop-color="#80D8FF" stop-opacity="0.66"/>
<stop offset="0.46875" stop-color="#80D8FF" stop-opacity="0.66"/>
</radialGradient>
<radialGradient id="paint7_angular" cx="0" cy="0" r="1" gradientUnits="userSpaceOnUse" gradientTransform="translate(125.074 175.063) rotate(-90) scale(19.0392 13.6961)">
<stop stop-color="#EA80FC"/>
<stop offset="0.140625" stop-color="#80D8FF" stop-opacity="0.66"/>
<stop offset="0.46875" stop-color="#80D8FF" stop-opacity="0.66"/>
</radialGradient>
<radialGradient id="paint8_angular" cx="0" cy="0" r="1" gradientUnits="userSpaceOnUse" gradientTransform="translate(424.05 167.155) rotate(-90) scale(19.0391 13.696)">
<stop stop-color="#EA80FC"/>
<stop offset="0.140625" stop-color="#80D8FF" stop-opacity="0.66"/>
<stop offset="0.46875" stop-color="#80D8FF" stop-opacity="0.66"/>
</radialGradient>
<radialGradient id="paint9_angular" cx="0" cy="0" r="1" gradientUnits="userSpaceOnUse" gradientTransform="translate(313.249 152.262) rotate(-90) scale(16.5827 11.929)">
<stop stop-color="#EA80FC"/>
<stop offset="0.140625" stop-color="#80D8FF" stop-opacity="0.66"/>
<stop offset="0.46875" stop-color="#80D8FF" stop-opacity="0.66"/>
</radialGradient>
<radialGradient id="paint10_angular" cx="0" cy="0" r="1" gradientUnits="userSpaceOnUse" gradientTransform="translate(201.896 242.115) rotate(-90) scale(11.1047 7.9883)">
<stop stop-color="#EA80FC"/>
<stop offset="0.140625" stop-color="#80D8FF" stop-opacity="0.66"/>
<stop offset="0.46875" stop-color="#80D8FF" stop-opacity="0.66"/>
</radialGradient>
<radialGradient id="paint11_angular" cx="0" cy="0" r="1" gradientUnits="userSpaceOnUse" gradientTransform="translate(409.432 438.021) rotate(-90) scale(19.0391 13.696)">
<stop stop-color="#EA80FC"/>
<stop offset="0.140625" stop-color="#80D8FF" stop-opacity="0.66"/>
<stop offset="0.46875" stop-color="#80D8FF" stop-opacity="0.66"/>
</radialGradient>
<linearGradient id="paint12_linear" x1="32.574" y1="445.541" x2="32.574" y2="584.855" gradientUnits="userSpaceOnUse">
<stop stop-color="#EA80FC"/>
<stop offset="1" stop-color="#80D8FF" stop-opacity="0.66"/>
</linearGradient>
<linearGradient id="paint13_linear" x1="47.5327" y1="342" x2="47.5327" y2="585.277" gradientUnits="userSpaceOnUse">
<stop stop-color="#EA80FC"/>
<stop offset="1" stop-color="#80D8FF" stop-opacity="0.66"/>
</linearGradient>
<linearGradient id="paint14_linear" x1="355.107" y1="442.438" x2="407.927" y2="559.898" gradientUnits="userSpaceOnUse">
<stop stop-color="#EA80FC"/>
<stop offset="1" stop-color="#80D8FF" stop-opacity="0.66"/>
</linearGradient>
<linearGradient id="paint15_linear" x1="191.857" y1="460.597" x2="228.475" y2="579.255" gradientUnits="userSpaceOnUse">
<stop stop-color="#EA80FC"/>
<stop offset="1" stop-color="#80D8FF" stop-opacity="0.66"/>
</linearGradient>
<linearGradient id="paint16_linear" x1="487.5" y1="351" x2="487.5" y2="584.291" gradientUnits="userSpaceOnUse">
<stop stop-color="#EA80FC"/>
<stop offset="1" stop-color="#80D8FF" stop-opacity="0.66"/>
</linearGradient>
<linearGradient id="paint17_linear" x1="161.549" y1="462.582" x2="197.498" y2="582.33" gradientUnits="userSpaceOnUse">
<stop stop-color="#EA80FC"/>
<stop offset="1" stop-color="#80D8FF" stop-opacity="0.66"/>
</linearGradient>
<linearGradient id="paint18_linear" x1="56.1567" y1="489.39" x2="132.569" y2="570.117" gradientUnits="userSpaceOnUse">
<stop stop-color="#EA80FC"/>
<stop offset="1" stop-color="#80D8FF" stop-opacity="0.66"/>
</linearGradient>
<linearGradient id="paint19_linear" x1="130.119" y1="494.959" x2="130.119" y2="581.016" gradientUnits="userSpaceOnUse">
<stop stop-color="#EA80FC"/>
<stop offset="1" stop-color="#80D8FF" stop-opacity="0.66"/>
</linearGradient>
<linearGradient id="paint20_linear" x1="140.736" y1="431" x2="140.736" y2="581.277" gradientUnits="userSpaceOnUse">
<stop stop-color="#EA80FC"/>
<stop offset="1" stop-color="#80D8FF" stop-opacity="0.66"/>
</linearGradient>
<linearGradient id="paint21_linear" x1="322.88" y1="474.017" x2="359.739" y2="578.885" gradientUnits="userSpaceOnUse">
<stop stop-color="#EA80FC"/>
<stop offset="1" stop-color="#80D8FF" stop-opacity="0.66"/>
</linearGradient>
<linearGradient id="paint22_linear" x1="398.88" y1="477.017" x2="435.739" y2="581.885" gradientUnits="userSpaceOnUse">
<stop stop-color="#EA80FC"/>
<stop offset="1" stop-color="#80D8FF" stop-opacity="0.66"/>
</linearGradient>
<linearGradient id="paint23_linear" x1="223.516" y1="477.419" x2="269.321" y2="578.699" gradientUnits="userSpaceOnUse">
<stop stop-color="#EA80FC"/>
<stop offset="1" stop-color="#80D8FF" stop-opacity="0.66"/>
</linearGradient>
<linearGradient id="paint24_linear" x1="300.972" y1="488.95" x2="275.131" y2="571.035" gradientUnits="userSpaceOnUse">
<stop stop-color="#EA80FC"/>
<stop offset="1" stop-color="#80D8FF" stop-opacity="0.66"/>
</linearGradient>
<linearGradient id="paint25_linear" x1="330.305" y1="431.13" x2="285.179" y2="574.472" gradientUnits="userSpaceOnUse">
<stop stop-color="#EA80FC"/>
<stop offset="1" stop-color="#80D8FF" stop-opacity="0.66"/>
</linearGradient>
</defs>
</svg>
