<svg width="640" height="600" viewBox="0 0 640 600" fill="none" xmlns="http://www.w3.org/2000/svg">
<path d="M557.748 388.465C557.435 387.896 557.122 387.328 556.809 386.759C553.736 381.18 550.662 375.6 547.589 370.021C545.228 365.733 542.415 361.58 541.2 356.451C539.993 351.355 541.604 346.3 541.147 341.077C540.792 337.02 539.562 333.21 538.471 329.408C537.367 325.56 536.696 321.917 536.44 317.845C535.973 310.407 535.525 302.426 537.334 295.265C538.651 290.05 540.192 284.469 540.322 278.897C540.359 277.329 540.323 275.305 539.448 274.058C537.796 271.702 535.196 273.263 534.158 275.511C532.739 278.583 532.362 282.568 531.862 286.047C530.72 293.988 529.643 308.203 526.122 307.355C524.459 306.954 524.039 303.165 523.802 301.483C523.341 298.202 523.126 294.753 523.205 291.437C523.394 283.527 523.687 275.456 523.333 267.538C523.182 264.16 522.809 252.672 518.636 252.966C514.39 253.266 514.15 262.896 514.01 266.794C513.9 269.827 513.867 272.957 514.091 275.991C514.421 280.455 514.346 284.991 514.575 289.493C514.797 293.851 515.154 298.199 515.646 302.524C515.723 303.199 515.789 303.954 515.482 304.498C514.261 306.663 512.581 298.997 512.392 298.123C511.215 292.675 510.723 287.05 509.649 281.571C508.276 274.562 506.702 267.466 504.817 260.661C504.098 258.065 503.217 255.139 501.63 253.216C499.735 250.919 496.461 251.991 495.457 255.004C494.781 257.033 495.281 259.349 495.843 261.341C496.536 263.798 497.287 266.132 497.84 268.662C499.097 274.415 499.814 280.506 500.73 286.425C501.203 289.476 501.732 292.517 502.43 295.5C503.117 298.435 504.24 301.262 504.638 304.294C504.715 304.884 504.767 305.52 504.565 306.052C504.314 306.712 503.708 307.048 503.142 306.994C500.84 306.775 500.605 302.929 499.991 300.718C498.816 296.48 497.165 292.607 495.632 288.585C493.618 283.281 491.728 277.85 489.751 272.57C488.531 269.314 486.266 265.189 483.117 266.787C480.164 268.285 480.561 272.923 481.346 276.195C482.447 280.783 484.668 284.945 486.107 289.424C487.647 294.216 489.381 298.898 490.946 303.66C492.442 308.214 492.971 313.301 494.359 317.94C495.868 322.977 498.231 327.408 497.294 333.08C496.984 334.957 496.275 336.794 495.063 337.86C491.676 340.837 486.525 338.371 483.281 336.007C479.961 333.587 476.409 331.664 472.63 331.071C470.445 330.728 468.062 330.548 465.964 331.5C464.064 332.36 462.085 334.852 462.513 337.75C463.048 341.375 467.147 342.728 469.435 343.477C478.889 346.576 487.533 353.714 487.533 353.714C487.533 353.714 502.437 369.027 507.902 372.462C510.916 374.354 514.472 374.619 517.115 377.433C521.125 381.7 523.739 389.308 526.636 394.926C528.524 398.59 530.413 402.253 532.304 405.916C537.018 415.055 541.735 424.191 546.452 433.327C550.307 440.794 554.163 448.26 558.019 455.726L557.748 388.465Z" fill="white"/>
<path d="M169.022 551.999C169.547 547.5 170.072 543.001 170.597 538.502C171.602 529.885 172.607 521.267 173.613 512.65C174.813 502.356 176.014 492.063 177.214 481.769C178.492 470.822 179.769 459.874 181.046 448.927C182.28 438.348 183.514 427.768 184.748 417.189C185.82 407.999 186.892 398.809 187.964 389.619C188.755 382.842 189.545 376.063 190.336 369.285C190.944 364.076 192 358.723 191.293 353.434C190.589 348.179 187.389 344.61 185.973 339.682C184.874 335.854 184.64 331.733 184.285 327.701C183.925 323.621 183.252 319.976 182.058 316.192C179.878 309.281 177.491 301.896 173.38 296.563C170.386 292.68 167.065 288.6 165.004 283.703C164.424 282.325 163.75 280.498 164.093 278.873C164.743 275.805 167.604 275.675 169.314 277.074C171.651 278.985 173.378 282.321 175.038 285.133C178.828 291.553 184.748 303.609 187.59 300.791C188.932 299.46 187.984 295.833 187.607 294.193C186.873 290.994 185.86 287.79 184.633 284.877C181.704 277.928 178.624 270.896 176.177 263.623C175.132 260.518 171.455 250.047 175.275 247.868C179.163 245.651 182.738 254.104 184.224 257.502C185.38 260.144 186.503 262.918 187.362 265.757C188.627 269.934 190.277 273.939 191.644 278.091C192.967 282.11 194.167 286.2 195.238 290.348C195.405 290.995 195.61 291.707 196.073 292.014C197.917 293.231 196.738 285.406 196.601 284.516C195.748 278.964 194.223 273.656 193.268 268.138C192.045 261.077 190.97 253.824 190.274 246.647C190.009 243.909 189.772 240.782 190.515 238.137C191.402 234.978 194.693 234.018 196.639 236.119C197.951 237.535 198.313 239.895 198.507 242.001C198.747 244.6 198.893 247.122 199.283 249.704C200.172 255.575 201.659 261.43 202.909 267.248C203.553 270.249 204.142 273.273 204.562 276.344C204.974 279.365 204.96 282.546 205.664 285.484C205.801 286.057 205.977 286.654 206.343 287.011C206.797 287.453 207.454 287.397 207.939 287.018C209.914 285.476 208.781 281.905 208.556 279.573C208.124 275.104 208.244 270.68 208.206 266.193C208.148 260.281 207.937 254.328 207.856 248.458C207.806 244.838 208.385 239.83 211.748 239.413C214.901 239.022 216.167 243.394 216.609 246.774C217.23 251.513 216.704 256.527 216.985 261.367C217.286 266.545 217.375 271.739 217.643 276.905C217.899 281.845 219.204 286.694 219.586 291.647C220 297.027 219.441 302.363 222.256 306.878C223.187 308.372 224.459 309.595 225.912 309.837C229.969 310.512 233.698 305.297 235.763 301.288C237.877 297.186 240.371 293.39 243.53 290.649C245.358 289.063 247.418 287.509 249.62 287.13C251.612 286.786 254.246 287.851 254.877 290.688C255.665 294.237 252.485 297.843 250.708 299.851C243.366 308.15 238.155 319.58 238.155 319.58C238.155 319.58 230.221 341.97 226.55 348.235C224.526 351.688 221.45 354.006 220.076 358.063C217.993 364.219 218.319 372.539 217.7 379.248C217.296 383.623 216.891 387.999 216.485 392.374C215.474 403.29 214.461 414.205 213.447 425.12C211.134 450.014 208.817 474.907 206.499 499.8C204.878 517.2 203.257 534.6 201.635 552L169.022 551.999Z" fill="white"/>
<path d="M205.056 313.445C203.664 308.332 207.249 300.941 211.513 300.302C212.454 300.161 213.456 300.289 214.255 300.915C218.1 303.932 213.816 316.543 212.736 320.307C211.191 325.687 209.365 330.94 207.431 336.124C207.148 336.88 206.884 337.657 206.504 338.328C202.687 334.719 199.204 329.588 196.152 325.008C193.372 320.836 185.486 309.683 189.601 304.111C190.188 303.317 190.999 302.82 191.831 302.488C193.993 301.626 196.418 301.803 198.482 302.972C201.716 304.804 203.961 309.423 205.056 313.445Z" fill="url(#paint0_angular)"/>
<path d="M455.184 436.034C454.558 430.699 459.16 424.211 463.449 424.517C464.395 424.584 465.362 424.929 466.057 425.72C469.402 429.53 463.353 441.002 461.743 444.468C459.44 449.423 456.88 454.192 454.222 458.869C453.834 459.552 453.461 460.259 452.991 460.836C449.759 456.449 447.078 450.637 444.741 445.462C442.612 440.748 436.475 428.049 441.334 423.467C442.027 422.813 442.898 422.502 443.765 422.358C446.017 421.983 448.378 422.688 450.238 424.29C453.154 426.801 454.692 431.837 455.184 436.034Z" fill="url(#paint1_angular)"/>
<path d="M238.866 552C239.315 548.091 239.765 544.182 240.214 540.274C241.492 529.171 242.769 518.068 244.046 506.965C245.28 496.235 246.514 485.506 247.748 474.776C248.82 465.456 249.892 456.136 250.964 446.815C251.755 439.941 252.545 433.066 253.336 426.192C253.944 420.909 255 415.479 254.293 410.116C253.589 404.787 250.389 401.167 248.973 396.168C247.874 392.286 247.64 388.107 247.285 384.017C246.925 379.879 246.252 376.183 245.058 372.345C242.878 365.336 240.491 357.846 236.38 352.437C233.386 348.499 230.065 344.361 228.004 339.395C227.424 337.997 226.75 336.144 227.093 334.496C227.743 331.384 230.604 331.253 232.314 332.671C234.651 334.61 236.378 337.993 238.038 340.845C241.828 347.356 247.748 359.583 250.59 356.725C251.932 355.375 250.984 351.696 250.607 350.033C249.873 346.789 248.86 343.54 247.633 340.585C244.704 333.538 241.625 326.405 239.177 319.029C238.132 315.881 234.455 305.261 238.275 303.051C242.163 300.802 245.738 309.375 247.224 312.821C248.38 315.501 249.503 318.314 250.362 321.193C251.627 325.43 253.277 329.492 254.644 333.703C255.967 337.778 257.167 341.927 258.238 346.134C258.405 346.791 258.61 347.513 259.073 347.823C260.917 349.057 259.738 341.121 259.601 340.219C258.748 334.589 257.223 329.204 256.268 323.609C255.045 316.448 253.97 309.091 253.274 301.812C253.009 299.036 252.772 295.864 253.515 293.182C254.402 289.978 257.693 289.004 259.639 291.135C260.951 292.571 261.313 294.964 261.507 297.101C261.747 299.737 261.893 302.294 262.283 304.913C263.172 310.866 264.659 316.805 265.909 322.706C266.553 325.749 267.142 328.817 267.562 331.931C267.974 334.995 267.96 338.221 268.664 341.201C268.801 341.782 268.977 342.388 269.343 342.749C269.797 343.198 270.454 343.142 270.939 342.757C272.914 341.193 271.781 337.571 271.556 335.206C271.124 330.672 271.244 326.187 271.206 321.636C271.148 315.639 270.937 309.602 270.856 303.649C270.806 299.977 271.385 294.898 274.748 294.475C277.901 294.079 279.167 298.513 279.609 301.941C280.23 306.748 279.704 311.833 279.986 316.741C280.286 321.993 280.376 327.26 280.643 332.499C280.899 337.511 282.204 342.429 282.586 347.451C283 352.907 282.441 358.32 285.256 362.899C286.187 364.414 287.459 365.655 288.912 365.9C292.969 366.585 296.698 361.295 298.763 357.228C300.877 353.069 303.371 349.219 306.53 346.439C308.358 344.831 310.418 343.254 312.62 342.869C314.612 342.522 317.246 343.601 317.877 346.479C318.665 350.078 315.485 353.735 313.708 355.772C306.366 364.189 301.155 375.781 301.155 375.781C301.155 375.781 293.221 398.489 289.55 404.843C287.526 408.345 284.45 410.695 283.077 414.811C280.993 421.054 281.319 429.492 280.7 436.296C280.296 440.734 279.891 445.172 279.485 449.609C278.474 460.68 277.461 471.75 276.447 482.82C274.334 505.88 272.219 528.94 270.101 551.999L238.866 552Z" fill="white"/>
<path d="M268.284 368.105C266.892 362.993 270.476 355.601 274.74 354.963C275.682 354.822 276.684 354.95 277.482 355.576C281.328 358.592 277.044 371.204 275.964 374.968C274.419 380.348 272.593 385.6 270.658 390.785C270.376 391.541 270.111 392.318 269.732 392.989C265.915 389.38 262.431 384.249 259.379 379.669C256.599 375.496 248.714 364.344 252.828 358.772C253.415 357.977 254.227 357.481 255.059 357.149C257.221 356.287 259.646 356.463 261.709 357.632C264.943 359.464 267.189 364.083 268.284 368.105Z" fill="url(#paint2_angular)"/>
<path d="M384.245 548C383.989 545.832 383.732 543.664 383.475 541.497C382.785 535.665 382.094 529.833 381.404 524.001C380.398 515.51 379.393 507.021 378.387 498.532C377.187 488.39 375.986 478.25 374.786 468.109C373.508 457.325 372.231 446.539 370.954 435.754C369.72 425.331 368.486 414.909 367.252 404.486C366.18 395.433 365.108 386.38 364.036 377.326C363.246 370.648 362.455 363.971 361.664 357.293C361.057 352.162 360 346.887 360.707 341.678C361.411 336.501 364.611 332.984 366.027 328.129C367.126 324.358 367.36 320.298 367.715 316.326C368.075 312.306 368.748 308.716 369.942 304.988C372.122 298.18 374.509 290.904 378.62 285.65C381.614 281.823 384.935 277.805 386.996 272.981C387.576 271.624 388.25 269.823 387.907 268.222C387.257 265.199 384.396 265.072 382.686 266.45C380.349 268.333 378.622 271.619 376.962 274.39C373.173 280.714 367.252 292.592 364.41 289.814C363.068 288.504 364.017 284.93 364.393 283.314C365.127 280.164 366.14 277.007 367.367 274.137C370.296 267.292 373.376 260.363 375.823 253.198C376.868 250.14 380.546 239.824 376.725 237.677C372.837 235.493 369.262 243.821 367.776 247.167C366.62 249.771 365.497 252.504 364.638 255.301C363.373 259.416 361.723 263.361 360.356 267.452C359.033 271.411 357.834 275.44 356.762 279.527C356.595 280.165 356.391 280.866 355.928 281.168C354.084 282.367 355.262 274.658 355.399 273.781C356.252 268.312 357.777 263.082 358.733 257.646C359.955 250.691 361.03 243.545 361.726 236.474C361.991 233.777 362.228 230.696 361.485 228.09C360.598 224.979 357.307 224.033 355.361 226.102C354.049 227.497 353.687 229.822 353.493 231.898C353.253 234.458 353.108 236.942 352.717 239.486C351.828 245.269 350.341 251.038 349.091 256.77C348.447 259.726 347.858 262.705 347.438 265.73C347.026 268.707 347.04 271.841 346.336 274.735C346.199 275.299 346.023 275.888 345.657 276.239C345.203 276.675 344.546 276.62 344.061 276.247C342.086 274.727 343.219 271.209 343.444 268.911C343.876 264.508 343.757 260.151 343.794 255.73C343.852 249.905 344.063 244.041 344.145 238.258C344.194 234.691 343.615 229.758 340.252 229.347C337.099 228.962 335.833 233.27 335.391 236.599C334.77 241.268 335.296 246.208 335.015 250.975C334.714 256.077 334.625 261.194 334.357 266.283C334.101 271.151 332.796 275.928 332.415 280.807C332 286.106 332.559 291.364 329.744 295.812C328.813 297.283 327.541 298.489 326.088 298.727C322.031 299.392 318.302 294.254 316.237 290.304C314.123 286.263 311.63 282.524 308.47 279.823C306.642 278.262 304.582 276.729 302.38 276.356C300.388 276.018 297.754 277.067 297.123 279.862C296.335 283.358 299.515 286.911 301.292 288.889C308.634 297.065 313.845 308.325 313.845 308.325C313.845 308.325 321.779 330.384 325.45 336.555C327.475 339.957 330.55 342.24 331.923 346.238C334.007 352.303 333.681 360.499 334.3 367.108C334.704 371.419 335.109 375.73 335.515 380.04C336.526 390.794 337.539 401.547 338.553 412.301C340.866 436.825 343.183 461.349 345.502 485.872C347.208 503.92 348.914 521.967 350.622 540.014C350.874 542.676 351.126 545.338 351.378 548H384.245Z" fill="white"/>
<path d="M343.597 307.324C344.99 302.212 341.404 294.82 337.14 294.182C336.199 294.041 335.198 294.168 334.399 294.794C330.553 297.811 334.837 310.423 335.917 314.186C337.462 319.566 339.288 324.819 341.223 330.003C341.506 330.76 341.77 331.537 342.149 332.208C345.966 328.599 349.45 323.468 352.501 318.888C355.282 314.715 363.168 303.563 359.053 297.991C358.466 297.196 357.654 296.699 356.822 296.367C354.661 295.505 352.235 295.682 350.171 296.851C346.938 298.683 344.692 303.302 343.597 307.324Z" fill="url(#paint3_angular)"/>
<path d="M321.352 554C321.241 546.384 321.13 538.766 321.02 531.15C320.914 523.86 320.809 516.569 320.703 509.279C320.622 503.677 320.108 497.839 321.346 492.398C322.576 486.991 326.127 483.825 328.035 478.895C329.517 475.065 330.165 470.766 330.925 466.584C331.695 462.351 332.734 458.635 334.305 454.87C337.175 447.993 340.298 440.654 344.934 435.8C348.311 432.263 352.034 428.583 354.581 423.806C355.299 422.462 356.155 420.662 355.976 418.886C355.637 415.531 352.797 414.862 350.952 416.018C348.429 417.597 346.371 420.791 344.433 423.445C340.008 429.506 332.89 441.109 330.34 437.61C329.136 435.957 330.447 432.311 330.988 430.653C332.041 427.419 333.374 424.231 334.892 421.391C338.512 414.613 342.291 407.775 345.464 400.565C346.818 397.489 351.54 387.138 347.95 384.131C344.296 381.07 339.88 389.314 338.056 392.617C336.637 395.187 335.238 397.902 334.095 400.733C332.414 404.899 330.366 408.813 328.585 412.934C326.86 416.923 325.252 421.01 323.766 425.181C323.534 425.833 323.259 426.545 322.766 426.782C320.805 427.721 322.768 419.694 322.994 418.782C324.404 413.09 326.46 407.78 327.968 402.143C329.898 394.931 331.701 387.486 333.117 380.053C333.658 377.216 334.208 373.966 333.734 371.04C333.168 367.547 329.983 365.921 327.831 367.773C326.381 369.022 325.782 371.44 325.376 373.625C324.875 376.319 324.476 378.949 323.826 381.598C322.349 387.619 320.277 393.512 318.445 399.411C317.5 402.453 316.608 405.531 315.88 408.689C315.165 411.795 314.858 415.15 313.86 418.116C313.666 418.694 313.43 419.29 313.03 419.598C312.533 419.98 311.883 419.799 311.437 419.309C309.624 417.316 311.112 413.764 311.572 411.347C312.453 406.718 312.78 402.035 313.269 397.313C313.922 391.093 314.733 384.859 315.404 378.688C315.819 374.883 315.746 369.498 312.435 368.433C309.33 367.434 307.628 371.806 306.846 375.285C305.75 380.164 305.769 385.546 305.001 390.593C304.18 395.994 303.568 401.451 302.78 406.845C302.028 412.004 300.238 416.871 299.359 422.02C298.403 427.611 298.424 433.34 295.162 437.574C294.084 438.974 292.691 440.027 291.219 440.011C287.105 439.968 283.913 433.777 282.257 429.168C280.563 424.452 278.458 419.988 275.584 416.511C273.922 414.501 272.025 412.479 269.867 411.669C267.914 410.936 265.182 411.569 264.267 414.441C263.123 418.034 265.931 422.426 267.5 424.873C273.985 434.985 278.029 448 278.029 448C278.029 448 283.685 473.071 286.715 480.357C288.385 484.372 291.219 487.387 292.18 491.919C293.637 498.793 292.473 507.5 292.415 514.686C292.378 519.372 292.341 524.059 292.304 528.745C292.239 537.163 292.174 545.582 292.11 554H321.352Z" fill="white"/>
<path d="M311.296 442.476C313.228 437.635 310.472 429.725 306.314 428.4C305.397 428.108 304.39 428.071 303.531 428.562C299.393 430.928 302.279 444.124 302.944 448.03C303.894 453.614 305.138 459.117 306.496 464.57C306.694 465.366 306.873 466.178 307.176 466.906C311.348 463.948 315.355 459.428 318.875 455.384C322.081 451.7 331.1 441.927 327.623 435.736C327.127 434.853 326.376 434.228 325.587 433.764C323.537 432.559 321.115 432.34 318.943 433.163C315.54 434.454 312.816 438.667 311.296 442.476Z" fill="url(#paint4_angular)"/>
<path d="M414.336 548C414.206 539.254 414.075 530.508 413.945 521.761C413.78 510.691 413.615 499.621 413.45 488.551C413.307 478.935 413.163 469.319 413.02 459.703C412.914 452.61 412.809 445.517 412.703 438.425C412.622 432.974 412.108 427.294 413.346 422.001C414.576 416.74 418.127 413.66 420.035 408.864C421.517 405.138 422.165 400.955 422.926 396.886C423.695 392.767 424.733 389.153 426.305 385.49C429.175 378.799 432.299 371.659 436.935 366.936C440.311 363.495 444.033 359.914 446.582 355.267C447.299 353.96 448.155 352.209 447.976 350.48C447.637 347.216 444.798 346.566 442.952 347.69C440.429 349.226 438.371 352.334 436.433 354.917C432.008 360.812 424.89 372.101 422.34 368.697C421.136 367.089 422.447 363.542 422.988 361.929C424.042 358.783 425.374 355.681 426.892 352.917C430.512 346.323 434.29 339.67 437.464 332.656C438.819 329.663 443.54 319.592 439.95 316.667C436.296 313.689 431.88 321.709 430.057 324.923C428.638 327.424 427.239 330.064 426.096 332.819C424.415 336.873 422.366 340.68 420.585 344.69C418.86 348.571 417.253 352.546 415.767 356.606C415.534 357.239 415.259 357.932 414.766 358.162C412.805 359.076 414.769 351.267 414.995 350.379C416.405 344.842 418.46 339.675 419.968 334.191C421.898 327.174 423.701 319.931 425.117 312.699C425.658 309.94 426.208 306.777 425.734 303.931C425.168 300.532 421.983 298.951 419.831 300.753C418.381 301.967 417.782 304.32 417.376 306.446C416.875 309.067 416.476 311.626 415.826 314.203C414.35 320.061 412.276 325.795 410.444 331.533C409.5 334.493 408.607 337.487 407.88 340.56C407.165 343.582 406.858 346.846 405.861 349.731C405.666 350.293 405.43 350.874 405.03 351.173C404.533 351.544 403.883 351.369 403.438 350.893C401.624 348.953 403.113 345.497 403.572 343.147C404.453 338.642 404.779 334.086 405.269 329.493C405.922 323.44 406.733 317.376 407.405 311.372C407.819 307.67 407.747 302.431 404.435 301.394C401.33 300.422 399.628 304.676 398.846 308.06C397.75 312.808 397.769 318.043 397.001 322.954C396.18 328.209 395.568 333.518 394.78 338.766C394.027 343.785 392.238 348.52 391.359 353.529C390.404 358.969 390.423 364.543 387.162 368.662C386.083 370.024 384.691 371.049 383.218 371.033C379.105 370.991 375.913 364.968 374.257 360.484C372.563 355.895 370.458 351.552 367.584 348.17C365.922 346.214 364.024 344.246 361.867 343.459C359.914 342.746 357.181 343.361 356.267 346.155C355.123 349.652 357.931 353.924 359.5 356.305C365.985 366.143 370.029 378.805 370.029 378.805C370.029 378.805 375.685 403.198 378.715 410.286C380.385 414.192 383.219 417.126 384.18 421.535C385.637 428.224 384.473 436.694 384.416 443.685C384.378 448.244 384.341 452.804 384.304 457.363C384.213 468.737 384.124 480.112 384.036 491.486C383.89 510.324 383.746 529.162 383.603 548H414.336Z" fill="white"/>
<path d="M402.664 378.745C404.591 373.744 401.841 365.572 397.693 364.204C396.778 363.902 395.773 363.864 394.916 364.371C390.788 366.815 393.667 380.447 394.33 384.482C395.279 390.251 396.52 395.935 397.875 401.569C398.072 402.391 398.25 403.231 398.553 403.982C402.716 400.926 406.714 396.257 410.225 392.079C413.423 388.273 422.422 378.177 418.953 371.781C418.458 370.869 417.709 370.224 416.922 369.745C414.877 368.499 412.46 368.273 410.293 369.124C406.897 370.457 404.18 374.81 402.664 378.745Z" fill="url(#paint5_angular)"/>
<path d="M111.895 544C113.779 537.484 115.663 530.967 117.547 524.451C120.395 514.6 123.244 504.748 126.092 494.896C128.566 486.338 131.04 477.78 133.515 469.223C135.34 462.91 137.165 456.599 138.989 450.286C140.392 445.436 141.395 440.201 144.162 436.041C146.911 431.907 151.539 430.671 154.884 427.231C157.482 424.558 159.316 421.134 161.239 417.856C163.185 414.539 165.28 411.779 167.956 409.199C172.845 404.487 178.126 399.485 184.361 397.251C188.901 395.624 193.849 394.017 197.836 390.977C198.958 390.121 200.35 388.932 200.631 387.33C201.162 384.304 198.311 382.54 196.035 382.762C192.926 383.064 189.882 384.949 187.109 386.42C180.78 389.778 170.105 396.775 168.315 392.7C167.471 390.776 169.838 388.19 170.855 386.99C172.839 384.651 175.108 382.468 177.481 380.66C183.143 376.347 188.99 372.05 194.29 367.179C196.552 365.101 204.339 358.178 201.31 354.09C198.226 349.93 191.326 355.169 188.503 357.246C186.307 358.862 184.094 360.61 182.122 362.567C179.222 365.445 175.997 367.953 173.002 370.751C170.103 373.458 167.302 376.299 164.609 379.264C164.188 379.727 163.705 380.224 163.117 380.221C160.776 380.208 165.003 374.129 165.486 373.439C168.503 369.135 172.106 365.43 175.213 361.214C179.188 355.821 183.089 350.175 186.575 344.377C187.906 342.165 189.356 339.6 189.629 336.886C189.954 333.646 186.989 330.916 184.202 331.608C182.324 332.074 181.042 333.903 180.028 335.611C178.778 337.718 177.653 339.812 176.257 341.818C173.081 346.376 169.304 350.576 165.782 354.881C163.967 357.101 162.197 359.374 160.582 361.785C158.993 364.156 157.775 366.912 155.923 369.044C155.561 369.459 155.151 369.874 154.643 369.971C154.011 370.091 153.366 369.664 153.021 369.056C151.617 366.584 154.149 364.152 155.281 362.267C157.451 358.656 159.044 354.766 160.821 350.911C163.171 345.837 165.692 340.816 168.049 335.792C169.502 332.694 170.856 328.034 167.607 325.732C164.562 323.574 161.584 326.621 159.826 329.284C157.36 333.02 155.95 337.655 153.79 341.674C151.479 345.974 149.375 350.409 147.102 354.718C144.928 358.838 141.726 362.274 139.42 366.332C136.915 370.74 135.414 375.673 130.811 377.948C129.288 378.701 127.523 379.024 125.957 378.394C121.581 376.636 119.823 369.978 119.282 365.321C118.729 360.558 117.671 355.839 115.53 351.647C114.291 349.223 112.806 346.691 110.72 345.092C108.832 343.645 105.75 343.044 104.011 345.132C101.836 347.742 103.663 352.693 104.687 355.454C108.915 366.861 109.768 379.743 109.768 379.743C109.768 379.743 109.136 403.666 110.431 411.197C111.145 415.349 113.366 419.127 113.185 423.425C112.912 429.946 109.357 436.944 107.386 443.098C106.1 447.111 104.815 451.125 103.53 455.138C100.326 465.152 97.1233 475.166 93.9219 485.181C92.9479 488.228 91.974 491.275 91 494.322L91.0002 544H111.895Z" fill="white"/>
<path d="M145.408 397.24C146.842 392.145 143.319 384.709 139.06 384.018C138.12 383.865 137.117 383.98 136.314 384.597C132.443 387.565 136.623 400.23 137.672 404.006C139.172 409.406 140.955 414.68 142.846 419.889C143.123 420.649 143.381 421.429 143.754 422.104C147.601 418.543 151.127 413.456 154.216 408.914C157.031 404.776 165.008 393.722 160.94 388.1C160.36 387.297 159.552 386.79 158.723 386.449C156.568 385.56 154.142 385.706 152.069 386.849C148.82 388.641 146.536 393.232 145.408 397.24Z" fill="url(#paint6_angular)"/>
<path d="M516.985 340.82C516.42 335.132 510.45 329.192 506.294 330.295C505.377 330.539 504.5 331.076 503.991 332.029C501.54 336.621 510.039 347.502 512.393 350.83C515.758 355.587 519.336 360.102 522.99 364.504C523.523 365.147 524.047 365.816 524.639 366.334C526.849 361.16 528.203 354.598 529.359 348.764C530.411 343.449 533.644 329.058 527.844 325.159C527.016 324.602 526.089 324.436 525.204 324.444C522.902 324.464 520.733 325.631 519.255 327.646C516.939 330.801 516.541 336.344 516.985 340.82Z" fill="url(#paint7_angular)"/>
<path d="M170.999 169.218C169.607 164.106 173.192 156.713 177.456 156.075C178.397 155.934 179.399 156.061 180.198 156.688C184.044 159.705 179.76 172.317 178.679 176.079C177.134 181.46 175.308 186.712 173.374 191.897C173.091 192.654 172.827 193.431 172.447 194.102C168.631 190.492 165.147 185.361 162.095 180.781C159.315 176.608 151.429 165.456 155.543 159.885C156.13 159.089 156.942 158.593 157.774 158.261C159.936 157.399 162.361 157.575 164.425 158.745C167.658 160.577 169.904 165.196 170.999 169.218Z" fill="url(#paint8_angular)"/>
<path d="M464.125 161.311C465.516 156.198 461.932 148.806 457.667 148.168C456.727 148.027 455.724 148.155 454.926 148.781C451.08 151.797 455.364 164.409 456.445 168.173C457.989 173.553 459.816 178.806 461.75 183.99C462.033 184.746 462.297 185.523 462.676 186.194C466.493 182.585 469.977 177.454 473.029 172.874C475.809 168.701 483.695 157.549 479.58 151.977C478.993 151.183 478.182 150.686 477.35 150.354C475.187 149.492 472.763 149.669 470.699 150.838C467.465 152.67 465.22 157.289 464.125 161.311Z" fill="url(#paint9_angular)"/>
<path d="M303.893 205.594C302.681 201.141 305.803 194.703 309.517 194.146C310.337 194.024 311.209 194.135 311.905 194.68C315.255 197.308 311.523 208.293 310.582 211.57C309.237 216.256 307.646 220.831 305.961 225.347C305.715 226.006 305.485 226.682 305.155 227.267C301.83 224.123 298.796 219.654 296.138 215.665C293.716 212.031 286.848 202.317 290.431 197.465C290.943 196.772 291.65 196.34 292.374 196.051C294.257 195.3 296.37 195.453 298.167 196.472C300.984 198.067 302.939 202.09 303.893 205.594Z" fill="white"/>
<path d="M234.359 162.064C235.572 157.612 232.45 151.173 228.736 150.618C227.916 150.495 227.044 150.606 226.348 151.151C222.998 153.779 226.73 164.763 227.671 168.041C229.016 172.727 230.606 177.302 232.292 181.818C232.537 182.477 232.768 183.153 233.098 183.738C236.423 180.594 239.457 176.125 242.115 172.136C244.537 168.502 251.405 158.789 247.821 153.936C247.31 153.243 246.603 152.81 245.879 152.521C243.995 151.771 241.884 151.924 240.086 152.943C237.269 154.538 235.314 158.561 234.359 162.064Z" fill="white"/>
<path d="M358.797 147.172C357.584 142.719 360.707 136.28 364.421 135.725C365.24 135.602 366.113 135.712 366.808 136.258C370.158 138.886 366.427 149.87 365.486 153.148C364.14 157.835 362.55 162.409 360.865 166.925C360.619 167.584 360.389 168.26 360.058 168.845C356.733 165.701 353.699 161.232 351.041 157.243C348.62 153.609 341.751 143.895 345.335 139.043C345.846 138.35 346.553 137.917 347.278 137.629C349.161 136.878 351.273 137.031 353.071 138.05C355.887 139.646 357.843 143.668 358.797 147.172Z" fill="url(#paint10_angular)"/>
<path d="M243.19 238.706C244.002 235.724 241.911 231.412 239.424 231.041C238.875 230.958 238.291 231.033 237.824 231.398C235.581 233.157 238.08 240.513 238.71 242.708C239.611 245.846 240.676 248.91 241.805 251.933C241.969 252.375 242.124 252.828 242.345 253.219C244.571 251.114 246.603 248.121 248.383 245.45C250.005 243.017 254.604 236.512 252.204 233.262C251.862 232.799 251.388 232.509 250.903 232.315C249.642 231.812 248.228 231.915 247.024 232.597C245.138 233.666 243.828 236.36 243.19 238.706Z" fill="url(#paint11_angular)"/>
<path d="M405.3 212.753C406.112 209.772 404.021 205.46 401.534 205.088C400.985 205.006 400.4 205.08 399.935 205.445C397.692 207.205 400.19 214.561 400.821 216.756C401.722 219.894 402.787 222.958 403.915 225.981C404.08 226.422 404.234 226.875 404.455 227.267C406.681 225.162 408.713 222.169 410.493 219.498C412.115 217.065 416.714 210.56 414.314 207.31C413.972 206.846 413.499 206.556 413.013 206.363C411.752 205.86 410.338 205.963 409.134 206.645C407.248 207.714 405.939 210.408 405.3 212.753Z" fill="white"/>
<path d="M136.105 286.721C136.917 283.739 134.826 279.427 132.339 279.055C131.791 278.974 131.206 279.048 130.74 279.413C128.497 281.172 130.996 288.528 131.626 290.723C132.527 293.861 133.592 296.924 134.72 299.948C134.885 300.39 135.039 300.843 135.26 301.234C137.487 299.129 139.518 296.136 141.298 293.465C142.92 291.032 147.519 284.527 145.12 281.277C144.777 280.814 144.304 280.524 143.819 280.33C142.558 279.828 141.143 279.93 139.94 280.612C138.053 281.681 136.744 284.375 136.105 286.721Z" fill="white"/>
<path d="M303.501 69.9905C303.5 69.9881 303.5 69.9844 303.5 69.9802C303.5 69.9844 303.5 69.9881 303.501 69.9905Z" fill="#FFFEEE"/>
<path d="M303.566 70.4934C303.567 70.4934 303.567 70.4934 303.567 70.4934C303.542 70.3504 303.523 70.208 303.509 70.0675C303.523 70.2093 303.542 70.3516 303.566 70.4934Z" fill="#FFFEEE"/>
<path d="M303.989 71.9509C303.986 71.9455 303.984 71.9382 303.981 71.931C303.984 71.9382 303.986 71.9455 303.989 71.9509Z" fill="#FFFEEE"/>
<path d="M303.949 71.854C303.938 71.8267 303.927 71.7995 303.917 71.7728C303.927 71.8007 303.938 71.8267 303.949 71.854Z" fill="#FFFEEE"/>
<path d="M303.684 71.0543C303.747 71.2966 303.823 71.5323 303.91 71.7559C303.821 71.5275 303.747 71.2924 303.686 71.0543C303.686 71.0543 303.685 71.0543 303.684 71.0543Z" fill="#FFFEEE"/>
<path d="M450.247 530.649C450.214 530.036 450.18 529.423 450.147 528.811C449.676 520.167 449.204 511.523 448.733 502.879C448.386 496.503 448.039 490.128 447.691 483.752C447.424 478.853 447.573 473.701 446.004 469.083C444.445 464.494 440.718 462.108 438.515 458.007C436.804 454.822 435.893 451.138 434.877 447.567C433.849 443.954 432.586 440.821 430.79 437.701C427.51 432.002 423.948 425.929 419.037 422.184C415.461 419.457 411.531 416.64 408.701 412.741C407.905 411.643 406.942 410.163 407.009 408.594C407.138 405.629 409.92 404.743 411.827 405.555C414.433 406.665 416.677 409.235 418.769 411.345C423.545 416.165 431.343 425.537 433.661 422.211C434.755 420.64 433.225 417.597 432.585 416.207C431.336 413.496 429.813 410.855 428.128 408.536C424.108 403.004 419.927 397.437 416.324 391.481C414.786 388.939 409.449 380.406 412.832 377.398C416.274 374.337 421.177 381.064 423.195 383.754C424.765 385.846 426.325 388.067 427.637 390.417C429.567 393.876 431.847 397.074 433.874 400.482C435.836 403.781 437.688 407.178 439.425 410.661C439.696 411.205 440.014 411.798 440.518 411.952C442.527 412.563 440.077 405.765 439.795 404.993C438.04 400.174 435.667 395.757 433.817 390.996C431.45 384.905 429.196 378.598 427.326 372.259C426.613 369.841 425.863 367.061 426.153 364.457C426.499 361.347 429.565 359.589 431.82 360.977C433.339 361.912 434.085 363.96 434.624 365.824C435.289 368.123 435.849 370.376 436.66 372.619C438.501 377.719 440.929 382.643 443.117 387.598C444.244 390.153 445.323 392.744 446.242 395.424C447.147 398.06 447.659 400.956 448.835 403.438C449.064 403.922 449.336 404.418 449.753 404.644C450.271 404.924 450.905 404.698 451.319 404.223C452.998 402.289 451.297 399.347 450.69 397.286C449.527 393.339 448.912 389.285 448.132 385.215C447.097 379.855 445.904 374.499 444.853 369.183C444.204 365.905 443.942 361.196 447.169 359.914C450.193 358.711 452.157 362.347 453.15 365.301C454.544 369.443 454.858 374.144 455.935 378.469C457.087 383.096 458.034 387.795 459.152 392.42C460.221 396.844 462.302 400.902 463.496 405.303C464.793 410.083 465.128 415.086 468.634 418.435C469.794 419.542 471.243 420.314 472.706 420.143C476.794 419.667 479.583 413.923 480.944 409.723C482.335 405.426 484.15 401.305 486.792 397.964C488.32 396.031 490.081 394.064 492.176 393.127C494.072 392.28 496.828 392.541 497.916 394.951C499.276 397.966 496.757 402.099 495.349 404.403C489.528 413.921 486.316 425.713 486.316 425.713C486.316 425.713 482.249 448.203 479.688 454.885C478.277 458.568 475.647 461.502 474.973 465.561C473.951 471.717 475.648 479.194 476.152 485.461C476.481 489.548 476.808 493.635 477.135 497.723C477.952 507.92 478.766 518.116 479.579 528.314C479.642 529.092 479.704 529.871 479.766 530.649H450.247Z" fill="white"/>
<path d="M455.357 432.176C453.965 427.064 457.55 419.672 461.814 419.034C462.755 418.893 463.757 419.02 464.556 419.647C468.401 422.663 464.117 435.275 463.037 439.038C461.492 444.419 459.666 449.671 457.732 454.855C457.449 455.612 457.184 456.389 456.805 457.06C452.989 453.451 449.505 448.32 446.453 443.74C443.673 439.567 435.787 428.415 439.901 422.843C440.488 422.048 441.3 421.551 442.132 421.22C444.294 420.357 446.719 420.534 448.783 421.703C452.016 423.535 454.262 428.154 455.357 432.176Z" fill="url(#paint12_angular)"/>
<path d="M97.2745 548.655C98.5708 543.502 95.1731 538.356 91.3765 534.644C87.58 530.932 83.047 527.615 81.0541 522.69C77.8276 514.712 82.0465 504.334 76.5784 497.694C73.3613 493.786 67.6257 492.506 64.7671 488.329C63.268 486.138 62.7714 483.438 62.1718 480.85C59.0765 467.58 52.4815 455.386 43.0752 445.541C42.51 457.383 45.1379 469.16 50.6831 479.634C52.9065 483.818 55.6291 487.89 56.3843 492.567C57.6112 500.163 53.4199 508.018 55.3266 515.471C57.5068 523.996 67.1117 529.654 67.6156 538.438C68.0414 545.866 61.6146 552.423 62.1381 559.844C62.3618 563.004 63.842 565.93 65.488 568.635C71.2761 578.15 79.7376 584.68 92.505 584.394L108.148 584.854L97.2745 548.655Z" fill="url(#paint13_linear)"/>
<path d="M47.2824 455.487C47.2763 455.59 47.2886 455.693 47.3189 455.794C47.3663 456.022 47.4283 456.315 47.5044 456.685C47.6935 457.469 47.9066 458.62 48.3308 460.108C48.7856 461.604 49.9955 463.285 50.9689 465.315C51.9948 467.338 53.0177 469.673 53.9279 472.288C54.8518 474.901 55.6323 477.793 56.4514 480.907C57.2971 483.998 58.1641 487.414 60.5876 490.65C61.7089 492.276 62.9672 493.902 63.9155 495.638C64.8416 497.419 65.4178 499.268 65.6309 501.142C66.1068 505.124 66.9151 509.086 68.0522 513.012C70.5423 521.05 72.9152 528.707 75.0735 535.676C77.3458 542.617 79.3935 548.87 81.1177 554.135L85.2575 566.571C85.7535 568.011 86.1433 569.142 86.421 569.946C86.5549 570.309 86.6612 570.597 86.743 570.821C86.7716 570.922 86.8174 571.02 86.8795 571.115C86.8769 571.012 86.8575 570.91 86.8217 570.81C86.7581 570.584 86.6769 570.292 86.5747 569.925C86.3309 569.116 85.9896 567.979 85.554 566.528C84.6223 563.551 83.2936 559.3 81.656 554.061C79.9787 548.79 77.9867 542.529 75.7753 535.58C73.6364 528.613 71.2859 520.96 68.8182 512.923C67.6848 509.01 66.8738 505.06 66.3885 501.091C66.1658 499.179 65.5705 497.293 64.6169 495.477C63.6394 493.705 62.3654 492.071 61.2415 490.459C58.8321 487.271 57.9672 483.935 57.0866 480.834C56.2409 477.726 55.4275 474.824 54.4646 472.206C53.5168 469.586 52.4513 467.248 51.3821 465.225C50.3603 463.189 49.1144 461.522 48.6267 460.064C48.164 458.603 47.8972 457.44 47.6596 456.667C47.5513 456.3 47.4653 456.008 47.3991 455.783C47.3766 455.682 47.3374 455.583 47.2824 455.487Z" fill="#F0F0F5"/>
<path d="M114.08 585.277C124.261 579.136 127.088 560.659 122.763 549.57C118.438 538.482 110.923 528.373 109.705 516.531C108.77 507.429 111.694 498.066 109.526 489.176C106.599 477.178 94.8383 467.939 94.9056 455.59C94.942 448.66 98.8403 442.118 98.4872 435.199C98.0554 426.711 91.5106 420.015 87.4379 412.556C81.2044 401.144 80.722 387.61 78.5404 374.788C76.3588 361.966 71.3987 348.244 60.0024 342C58.3854 352.908 55.5671 360.388 56.5494 375.146C56.9018 380.447 63.1097 390.562 64.0118 402.178C64.5508 409.12 64.9375 416.073 65.4011 423.022C65.8505 429.784 66.3281 436.667 68.7846 442.981C70.6664 447.82 73.6713 452.209 75.0767 457.207C77.7205 466.61 74.3747 476.831 76.5212 486.361C78.3403 494.435 83.964 501.36 85.1519 509.552C86.8214 521.061 79.4466 533.071 83.3186 544.038C85.2394 549.48 89.7414 553.831 91.0431 559.454C92.0537 563.816 91.0053 568.445 91.923 572.827C93.4012 579.889 106.893 585.302 114.08 584.824" fill="url(#paint14_linear)"/>
<path d="M63.3362 352.706C63.3293 352.9 63.3432 353.095 63.3776 353.286C63.4314 353.716 63.5018 354.271 63.5881 354.97C63.8028 356.451 64.0448 358.625 64.5262 361.435C65.0426 364.261 66.416 367.437 67.5208 371.27C68.6854 375.092 69.8465 379.502 70.8798 384.441C71.9285 389.377 72.8145 394.841 73.7443 400.723C74.7042 406.561 75.6884 413.013 78.4393 419.125C79.7122 422.196 81.1406 425.269 82.2171 428.547C83.2682 431.911 83.9224 435.404 84.1642 438.943C84.7045 446.465 85.622 453.95 86.9127 461.365C89.7394 476.548 92.4329 491.011 94.8828 504.175C97.4622 517.286 99.7867 529.097 101.744 539.041L106.443 562.531C107.006 565.252 107.449 567.387 107.764 568.908C107.916 569.592 108.036 570.137 108.129 570.559C108.162 570.75 108.214 570.937 108.284 571.115C108.281 570.921 108.259 570.728 108.219 570.54C108.146 570.111 108.054 569.561 107.938 568.868C107.661 567.339 107.274 565.191 106.78 562.451C105.722 556.827 104.214 548.798 102.355 538.902C100.451 528.946 98.1897 517.119 95.6795 503.994C93.2515 490.833 90.5834 476.377 87.7822 461.198C86.4957 453.805 85.5751 446.345 85.0242 438.848C84.7714 435.236 84.0957 431.673 83.0132 428.243C81.9036 424.896 80.4574 421.81 79.1816 418.766C76.4467 412.744 75.4648 406.441 74.4653 400.585C73.5053 394.713 72.582 389.233 71.489 384.288C70.4131 379.339 69.2036 374.921 67.9899 371.1C66.83 367.254 65.4158 364.106 64.8622 361.351C64.3369 358.593 64.0341 356.396 63.7644 354.935C63.6414 354.242 63.5438 353.692 63.4687 353.265C63.4431 353.074 63.3987 352.887 63.3362 352.706Z" fill="#F0F0F5"/>
<path d="M180 90H57C57 90 63.499 52.8054 99.3639 65.3004C134.025 23.4565 158.337 62.6852 158.337 62.6852C158.337 62.6852 180 60.6511 180 90Z" fill="white"/>
<path d="M344 46H234C234 46 244.582 9.25729 272.709 25.0042C291.646 -17.7373 344 -2.36538 344 46Z" fill="white"/>
<path d="M597 107H477C477 107 483.34 65.5787 518.331 79.4937C552.147 32.8947 575.865 76.5812 575.865 76.5812C575.865 76.5812 597 74.316 597 107Z" fill="white"/>
<path d="M415.812 538.996C412.581 535.225 413.979 529.381 416.314 524.568C418.649 519.756 421.859 514.95 421.956 509.914C422.111 501.758 414.018 494.877 416.89 486.855C418.58 482.134 423.748 478.513 424.982 473.724C425.629 471.212 425.095 468.716 424.704 466.268C422.724 453.708 424.601 440.503 430.14 428.033C435.187 437.768 437.062 448.862 435.567 460.151C434.962 464.664 433.822 469.304 434.851 473.582C436.522 480.53 443.631 485.295 444.578 492.424C445.661 500.578 438.339 509.606 441.173 517.236C443.569 523.687 452.39 526.367 454.687 532.856C455.665 535.619 455.315 538.742 454.719 541.752C452.621 552.341 446.757 561.597 434.064 567.015L418.819 574.336L415.812 538.996Z" fill="url(#paint15_linear)"/>
<path d="M429.764 438.284C429.809 438.368 429.836 438.46 429.844 438.559C429.884 438.772 429.934 439.047 430 439.393C430.111 440.138 430.337 441.202 430.483 442.645C430.602 444.108 430.047 446.062 429.857 448.204C429.612 450.365 429.49 452.787 429.584 455.395C429.664 458.007 429.991 460.792 430.364 463.781C430.703 466.762 431.143 470.026 429.981 473.828C429.493 475.696 428.869 477.625 428.592 479.509C428.355 481.421 428.488 483.236 428.988 484.91C430.029 488.478 430.735 492.178 431.102 495.992C431.695 503.873 432.259 511.38 432.774 518.212C433.166 525.072 433.519 531.252 433.815 536.455L434.45 548.775C434.507 550.209 434.551 551.335 434.583 552.137C434.588 552.501 434.593 552.792 434.597 553.017C434.607 553.114 434.599 553.218 434.574 553.325C434.538 553.238 434.518 553.143 434.515 553.043C434.492 552.823 434.462 552.541 434.423 552.187C434.357 551.396 434.262 550.286 434.141 548.87C433.931 545.947 433.629 541.774 433.257 536.631C432.912 531.444 432.501 525.282 432.046 518.443C431.513 511.62 430.928 504.126 430.314 496.256C429.947 492.454 429.249 488.765 428.222 485.203C427.717 483.492 427.588 481.638 427.84 479.684C428.132 477.757 428.768 475.815 429.265 473.958C430.431 470.202 430.018 467.005 429.711 464.001C429.366 461.005 429.067 458.198 429.024 455.564C428.965 452.935 429.128 450.491 429.415 448.311C429.65 446.142 430.246 444.184 430.174 442.738C430.077 441.302 429.899 440.203 429.84 439.446C429.807 439.089 429.782 438.805 429.761 438.585C429.745 438.49 429.746 438.389 429.764 438.284Z" fill="#F0F0F5"/>
<path d="M252.287 585.176C243.067 584.741 237.982 576.44 239.837 569.944C241.692 563.448 246.295 556.627 245.504 550.545C244.896 545.871 241.104 542.039 241.533 537.158C242.112 530.57 250.305 523.106 248.391 517.1C247.318 513.729 243.157 511.518 242.403 508.055C241.478 503.806 245.803 498.894 247.999 494.232C251.361 487.098 249.717 480.376 249.564 473.573C249.412 466.771 251.388 458.831 259.735 452.919C262.694 457.833 266.117 460.773 267.538 468.218C268.048 470.892 264.512 477.387 265.526 483.279C266.131 486.801 266.863 490.29 267.531 493.796C268.183 497.207 268.83 500.684 267.778 504.381C266.973 507.215 265.185 510.111 264.792 512.902C264.053 518.154 268.318 522.297 268.004 527.486C267.736 531.881 264.196 536.673 264.461 540.967C264.833 547 272.65 551.004 271.146 557.327C270.4 560.464 267.386 563.718 267.172 566.788C267.005 569.17 268.556 571.164 268.468 573.532C268.326 577.348 258.147 583.381 252.219 584.955" fill="url(#paint16_linear)"/>
<path d="M258.63 458.98C258.664 459.073 258.682 459.171 258.683 459.273C258.704 459.496 258.73 459.784 258.765 460.147C258.813 460.924 258.943 462.044 258.974 463.536C258.978 465.045 258.337 466.939 258.014 469.087C257.64 471.243 257.358 473.687 257.259 476.355C257.148 479.027 257.248 481.914 257.376 485.017C257.472 488.106 257.642 491.501 256.32 495.173C255.745 496.991 255.044 498.849 254.66 500.719C254.31 502.624 254.302 504.492 254.638 506.279C255.33 510.084 255.709 513.965 255.773 517.907C255.755 526.023 255.737 533.754 255.722 540.791C255.594 547.835 255.478 554.181 255.38 559.523L255.086 572.162C255.037 573.63 254.998 574.783 254.97 575.604C254.949 575.976 254.933 576.272 254.921 576.502C254.923 576.603 254.909 576.707 254.878 576.812C254.851 576.716 254.84 576.617 254.845 576.514C254.839 576.287 254.831 575.996 254.822 575.628C254.817 574.813 254.809 573.668 254.8 572.207C254.815 569.198 254.836 564.903 254.861 559.608C254.914 554.274 254.976 547.937 255.046 540.903C255.044 533.874 255.042 526.152 255.04 518.044C254.975 514.115 254.602 510.244 253.923 506.449C253.585 504.624 253.6 502.716 253.965 500.771C254.366 498.859 255.08 496.991 255.661 495.185C256.983 491.56 256.835 488.239 256.768 485.131C256.666 482.026 256.593 479.121 256.74 476.434C256.872 473.749 257.192 471.291 257.606 469.122C257.972 466.954 258.651 465.063 258.687 463.58C258.7 462.102 258.616 460.955 258.616 460.174C258.612 459.806 258.609 459.512 258.606 459.286C258.598 459.186 258.606 459.084 258.63 458.98Z" fill="#F0F0F5"/>
<path d="M501.508 581.382C474.769 561.286 466.565 520.118 465.384 482.533C465.185 476.26 464.258 469.715 466.289 464.002C468.321 458.288 473.597 454.032 478.179 456.251C481.983 458.096 483.898 463.352 486.216 467.631C489.31 473.337 493.616 477.82 498.638 480.564C501.909 482.338 505.881 483.239 508.864 480.779C512.958 477.403 513.025 469.897 512.632 463.676C511.896 452.08 511.162 440.485 510.43 428.892C510.037 422.67 509.649 416.318 510.837 410.268C512.025 404.218 515.085 398.412 519.669 396.316C524.253 394.221 530.241 397.095 531.585 403.095C532.145 405.593 531.891 408.262 532.177 410.832C532.464 413.401 533.585 416.173 535.567 416.711C537.574 417.259 539.438 415.309 540.803 413.351C545.516 406.591 548.489 398.172 551.242 389.819C553.994 381.466 556.639 372.934 560.847 365.649C565.056 358.364 571.114 352.336 578.132 351.172C585.15 350.008 592.98 354.812 595.272 363.395C597.57 372.003 594.042 381.283 590.054 388.798C584.135 399.945 576.974 409.951 568.792 418.507C567.322 420.045 565.729 421.706 565.27 424.067C564.443 428.316 567.793 432.15 571.112 433.21C574.87 434.413 578.822 433.559 582.692 433.772C586.562 433.985 590.843 435.737 592.562 440.188C594.95 446.362 591.132 453.423 587.247 458.178C579.466 467.7 570.447 475.457 560.585 481.111C557.063 483.123 553.342 484.949 550.608 488.439C547.874 491.928 546.441 497.69 548.461 501.905C550.481 506.12 555.09 507.114 558.829 505.866C562.567 504.617 565.81 501.701 569.323 499.64C575.897 495.778 584.662 495.554 589.428 502.543C592.558 507.135 593.204 513.878 592.102 519.806C590.999 525.734 588.372 530.993 585.54 535.883C575.64 552.979 562.52 567.222 547.234 575.568C531.947 583.914 517.52 587.138 501.508 581.382Z" fill="url(#paint17_linear)"/>
<path d="M506.349 583.147C506.556 568.196 504.502 576.482 507.79 557.165C511.047 537.838 516.008 517.027 521.787 495.485C523.249 490.107 524.691 484.798 526.114 479.557C527.543 474.332 528.96 469.151 530.594 464.192C533.745 454.678 537.31 445.392 541.273 436.377C545.008 427.737 548.801 419.711 552.392 412.24C555.995 404.775 559.459 397.896 562.827 391.799C568.103 382.14 573.977 373.026 580.395 364.544C582.661 361.541 584.479 359.286 585.726 357.778C586.329 357.06 586.8 356.5 587.155 356.076C587.31 355.872 587.48 355.687 587.663 355.525C587.531 355.754 587.383 355.967 587.22 356.161C586.88 356.605 586.428 357.195 585.855 357.947C584.648 359.506 582.872 361.809 580.649 364.855C574.35 373.434 568.568 382.598 563.351 392.27C560.027 398.378 556.605 405.266 553.033 412.748C549.462 420.23 545.71 428.268 542.003 436.899C538.078 445.894 534.543 455.153 531.415 464.635C529.796 469.568 528.395 474.707 526.965 479.944C525.536 485.181 524.104 490.493 522.644 495.867C516.871 517.392 511.898 538.142 508.604 557.399C505.282 576.643 507.278 568.276 506.989 583.176" fill="#F0F0F5"/>
<path d="M530.85 464.124C530.564 463.285 530.349 462.41 530.211 461.514C529.856 459.817 529.398 457.343 528.871 454.276C527.813 448.144 526.581 439.611 525.249 430.2C523.917 420.789 522.599 412.297 521.472 406.202C520.914 403.149 520.444 400.689 520.101 398.993C519.88 398.123 519.734 397.225 519.668 396.315C519.998 397.128 520.256 397.983 520.439 398.866C520.887 400.53 521.455 402.968 522.093 406.002C523.386 412.068 524.816 420.564 526.147 429.989C527.44 439.281 528.611 447.688 529.504 454.112C529.922 457.011 530.277 459.453 530.56 461.414C530.734 462.301 530.831 463.21 530.85 464.124Z" fill="#F0F0F5"/>
<path d="M593.245 443.26C592.428 443.564 591.591 443.771 590.744 443.878C589.131 444.213 586.795 444.68 583.927 445.376C578.175 446.708 570.289 448.9 561.668 451.799C553.046 454.72 545.335 457.784 539.809 460.202C537.04 461.388 534.816 462.423 533.276 463.128C532.495 463.555 531.683 463.888 530.853 464.125C531.58 463.561 532.349 463.086 533.148 462.706C534.649 461.873 536.844 460.717 539.595 459.427C545.082 456.804 552.791 453.607 561.436 450.675C568.81 448.158 576.281 446.119 583.82 444.567C586.713 443.975 589.071 443.628 590.703 443.431C591.544 443.273 592.395 443.216 593.245 443.26Z" fill="#F0F0F5"/>
<path d="M508.48 555.621C508.284 555.338 508.118 555.023 507.989 554.685L506.739 551.891C505.661 549.458 504.174 545.888 502.383 541.446C498.795 532.564 494.145 520.097 489.16 506.252C484.174 492.408 479.62 479.899 476.184 470.935C474.503 466.578 473.118 462.994 472.092 460.331C471.65 459.175 471.287 458.22 470.989 457.437C470.842 457.108 470.732 456.756 470.66 456.389C470.856 456.673 471.021 456.988 471.151 457.327C471.489 458.082 471.902 459.003 472.402 460.119C473.48 462.552 474.966 466.122 476.758 470.564C480.346 479.448 484.995 491.913 489.982 505.765C494.969 519.616 499.52 532.111 502.957 541.079C504.639 545.432 506.022 549.017 507.049 551.677C507.491 552.833 507.853 553.789 508.152 554.571C508.298 554.9 508.409 555.253 508.48 555.621Z" fill="#F0F0F5"/>
<path d="M590.554 513.497C590.304 513.714 590.031 513.887 589.745 514.012C589.106 514.35 588.316 514.768 587.364 515.269C585.162 516.405 582.19 517.938 578.576 519.799C571.156 523.629 560.957 529.064 549.694 535.09C538.431 541.115 528.178 546.44 520.693 550.075C516.95 551.893 513.912 553.325 511.795 554.261C510.817 554.685 510.009 555.034 509.354 555.321C509.075 555.468 508.781 555.567 508.481 555.615C508.731 555.4 509.003 555.227 509.289 555.101L511.67 553.843L520.457 549.313C527.875 545.487 538.076 540.05 549.343 534.021C560.61 527.992 570.855 522.673 578.34 519.04C582.081 517.219 585.121 515.787 587.237 514.851C588.217 514.428 589.022 514.076 589.68 513.792C589.959 513.644 590.253 513.545 590.554 513.497Z" fill="#F0F0F5"/>
<path d="M229.455 584.017C216.587 576.635 207.246 556.403 201.022 537.241C199.983 534.043 198.635 530.785 198.497 527.63C198.36 524.474 199.632 521.711 201.648 522.347C203.322 522.877 204.832 525.364 206.338 527.307C208.348 529.896 210.613 531.725 212.871 532.582C214.339 533.134 215.93 533.161 216.641 531.571C217.616 529.389 216.484 525.529 215.382 522.378C213.326 516.507 211.271 510.636 209.217 504.765C208.115 501.615 206.994 498.397 206.496 495.161C205.998 491.925 206.222 488.609 207.574 487.031C208.926 485.453 211.557 486.271 212.973 489.203C213.562 490.424 213.881 491.822 214.381 493.109C214.882 494.397 215.719 495.697 216.526 495.755C217.344 495.816 217.725 494.611 217.922 493.456C218.602 489.47 218.391 484.822 218.11 480.232C217.829 475.643 217.48 470.973 217.896 466.772C218.311 462.571 219.596 458.812 221.981 457.445C224.366 456.078 227.968 457.684 230.128 461.839C232.294 466.005 232.435 471.155 232.135 475.45C231.69 481.821 230.615 487.743 228.944 493.033C228.644 493.983 228.318 495.01 228.514 496.273C228.866 498.544 230.681 500.145 232.057 500.325C233.616 500.53 234.929 499.659 236.376 499.343C237.823 499.028 239.657 499.458 240.971 501.553C242.795 504.461 242.488 508.504 241.801 511.371C240.425 517.112 238.324 522.083 235.592 526.067C234.615 527.487 233.537 528.832 233.075 530.923C232.614 533.014 232.978 536.129 234.366 538.071C235.753 540.013 237.591 540.017 238.765 538.966C239.939 537.915 240.674 536.063 241.64 534.62C243.447 531.916 246.616 530.839 249.434 533.904C251.286 535.918 252.561 539.308 253.072 542.472C253.582 545.635 253.433 548.623 253.151 551.444C252.168 561.305 249.569 570.056 245.269 576.016C240.969 581.977 236.193 585.215 229.455 584.017Z" fill="url(#paint18_linear)"/>
<path d="M231.496 584.392C229.268 576.695 229.794 581.174 228.019 570.898C226.231 560.62 224.837 549.393 223.629 537.702C223.335 534.781 223.043 531.897 222.756 529.051C222.473 526.213 222.192 523.398 222.025 520.673C221.711 515.444 221.582 510.286 221.642 505.224C221.675 500.38 221.824 495.844 221.985 491.615C222.152 487.388 222.357 483.477 222.648 479.978C223.088 474.441 223.83 469.119 224.868 464.061C225.234 462.271 225.55 460.914 225.774 460.003C225.884 459.568 225.969 459.229 226.034 458.973C226.059 458.851 226.093 458.737 226.134 458.634C226.122 458.766 226.1 458.892 226.071 459.009C226.015 459.274 225.941 459.627 225.847 460.075C225.646 461.008 225.352 462.385 225.009 464.192C224.029 469.287 223.328 474.625 222.913 480.162C222.639 483.662 222.45 487.573 222.298 491.805C222.146 496.038 222.013 500.575 221.989 505.412C221.94 510.46 222.076 515.6 222.394 520.81C222.562 523.52 222.842 526.311 223.127 529.156C223.411 532.001 223.707 534.885 224.001 537.804C225.209 549.486 226.589 560.683 228.353 570.928C230.104 581.171 229.544 576.657 231.735 584.337" fill="#F0F0F5"/>
<path d="M222.108 520.61C221.875 520.211 221.661 519.785 221.473 519.34C221.081 518.508 220.533 517.289 219.868 515.772C218.536 512.74 216.771 508.496 214.834 503.811C212.897 499.127 211.107 494.913 209.756 491.908C209.082 490.401 208.531 489.191 208.144 488.358C207.929 487.936 207.738 487.491 207.573 487.031C207.819 487.412 208.045 487.822 208.248 488.255C208.668 489.06 209.251 490.25 209.952 491.737C211.359 494.709 213.191 498.913 215.13 503.605C217.034 508.232 218.758 512.419 220.074 515.618C220.673 517.061 221.179 518.275 221.585 519.251C221.785 519.687 221.961 520.143 222.108 520.61Z" fill="#F0F0F5"/>
<path d="M241.694 503.055C241.442 503.301 241.168 503.499 240.875 503.647C240.337 503.996 239.556 504.492 238.615 505.164C236.718 506.479 234.174 508.469 231.471 510.903C228.77 513.348 226.425 515.767 224.778 517.614C223.949 518.527 223.295 519.302 222.842 519.833C222.622 520.137 222.377 520.398 222.11 520.61C222.289 520.241 222.496 519.913 222.73 519.63C223.15 519.038 223.774 518.204 224.581 517.24C226.181 515.291 228.506 512.805 231.213 510.351C233.52 508.25 235.936 506.384 238.451 504.761C239.417 504.14 240.225 503.702 240.791 503.422C241.074 503.249 241.377 503.126 241.694 503.055Z" fill="#F0F0F5"/>
<path d="M228.033 570.029C227.918 569.906 227.809 569.762 227.71 569.603L226.822 568.306C226.053 567.176 224.96 565.506 223.621 563.422C220.941 559.257 217.321 553.367 213.366 546.808C209.41 540.249 205.819 534.327 203.182 530.103C201.896 528.051 200.838 526.364 200.052 525.109C199.713 524.564 199.433 524.114 199.203 523.745C199.099 523.592 199.004 523.423 198.922 523.243C199.037 523.367 199.146 523.511 199.246 523.671C199.486 524.021 199.778 524.448 200.133 524.966C200.902 526.097 201.995 527.766 203.334 529.85C206.014 534.016 209.634 539.905 213.591 546.468C217.548 553.03 221.136 558.945 223.774 563.171C225.06 565.221 226.118 566.909 226.903 568.162C227.242 568.707 227.522 569.158 227.751 569.526C227.856 569.679 227.951 569.849 228.033 570.029Z" fill="#F0F0F5"/>
<path d="M251.534 539.404C251.476 539.542 251.403 539.661 251.318 539.756C251.136 540 250.912 540.301 250.641 540.663C250.012 541.488 249.162 542.601 248.128 543.953C246.007 546.732 243.117 550.641 239.93 554.969C236.743 559.298 233.816 563.156 231.642 565.843C230.554 567.187 229.665 568.255 229.035 568.968C228.743 569.293 228.502 569.56 228.306 569.779C228.227 569.886 228.135 569.969 228.033 570.026C228.091 569.888 228.164 569.77 228.249 569.674L228.925 568.767L231.438 565.478C233.559 562.7 236.449 558.79 239.637 554.459C242.825 550.128 245.749 546.274 247.925 543.588C249.011 542.243 249.901 541.175 250.531 540.463C250.823 540.137 251.063 539.869 251.26 539.651C251.339 539.544 251.431 539.461 251.534 539.404Z" fill="#F0F0F5"/>
<path d="M161.027 581.973C141.912 586.882 124.583 576.275 111.719 563.794C109.571 561.711 106.992 559.858 106.073 556.98C105.154 554.101 106.233 550.288 109.108 549.023C111.495 547.974 114.114 548.943 116.602 549.395C119.921 549.997 123.408 549.638 126.66 548.359C128.774 547.522 130.931 546.072 131.524 543.897C132.336 540.913 129.91 538.285 127.687 536.307C123.545 532.621 119.403 528.934 115.263 525.247C113.04 523.269 110.778 521.243 109.353 518.622C107.928 516.001 107.461 512.635 108.923 509.876C110.385 507.118 114.133 505.455 116.728 506.935C117.809 507.551 118.564 508.588 119.54 509.35C120.516 510.112 121.949 510.574 123.054 509.88C124.174 509.18 124.41 507.678 124.408 506.395C124.403 501.965 123.039 497.732 121.593 493.621C120.147 489.509 118.592 485.383 118.179 480.995C117.765 476.607 118.63 471.834 121.538 468.318C124.447 464.801 129.69 462.99 133.576 464.943C137.472 466.902 138.858 471.679 139.45 476.049C140.327 482.532 140.248 489.171 139.216 495.762C139.03 496.946 138.828 498.227 139.386 499.248C140.39 501.085 143.216 500.926 145.119 499.82C147.274 498.569 148.847 496.521 150.73 494.877C152.614 493.234 155.195 491.941 157.458 492.718C160.599 493.796 161.122 497.933 160.859 501.302C160.331 508.049 158.645 514.734 155.874 521.066C154.883 523.325 153.737 525.607 153.598 528.028C153.46 530.448 154.675 533.078 157.002 533.64C159.329 534.203 161.816 532.502 163.159 530.411C164.502 528.321 165.067 525.873 166.039 523.601C167.855 519.348 171.889 515.382 176.413 515.686C179.384 515.886 181.895 517.933 183.32 520.474C184.745 523.014 185.236 526 185.511 528.948C186.47 539.256 184.986 550.005 180.555 559.675C176.123 569.345 170.417 576.861 161.027 581.973Z" fill="url(#paint19_linear)"/>
<path d="M163.874 580.436C159.074 575.171 160.826 578.949 156.04 570.806C151.236 562.673 146.745 553.271 142.398 543.253C141.321 540.743 140.258 538.266 139.208 535.821C138.167 533.38 137.134 530.958 136.276 528.517C134.636 523.827 133.266 519.032 132.17 514.154C131.091 509.508 130.24 505.048 129.476 500.869C128.72 496.687 128.09 492.77 127.671 489.166C126.981 483.483 126.749 477.723 126.979 471.941C127.057 469.897 127.171 468.31 127.262 467.235C127.309 466.719 127.346 466.316 127.374 466.012C127.379 465.873 127.399 465.733 127.431 465.596C127.445 465.733 127.445 465.873 127.432 466.013C127.418 466.317 127.4 466.721 127.377 467.236C127.322 468.311 127.244 469.896 127.2 471.936C127.057 477.699 127.349 483.436 128.072 489.097C128.514 492.685 129.167 496.587 129.943 500.76C130.72 504.934 131.594 509.38 132.684 514.011C133.79 518.865 135.166 523.637 136.805 528.306C137.662 530.732 138.689 533.131 139.734 535.578C140.78 538.024 141.848 540.497 142.924 543.005C147.269 553.014 151.735 562.401 156.498 570.526C161.244 578.659 159.439 574.878 164.184 580.162" fill="#F0F0F5"/>
<path d="M136.373 528.38C135.964 528.216 135.577 528.009 135.219 527.76C134.497 527.331 133.472 526.678 132.22 525.85C129.716 524.197 126.344 521.791 122.637 519.126C118.93 516.46 115.531 514.106 113.006 512.497C111.745 511.688 110.719 511.046 110.002 510.611C109.614 510.408 109.251 510.162 108.922 509.876C109.343 510.011 109.744 510.192 110.119 510.417C110.874 510.794 111.939 511.386 113.232 512.153C115.825 513.678 119.278 515.983 122.989 518.654C126.638 521.296 129.94 523.686 132.463 525.512C133.609 526.33 134.575 527.018 135.35 527.571C135.722 527.8 136.065 528.072 136.373 528.38Z" fill="#F0F0F5"/>
<path d="M158.784 493.478C158.501 493.946 158.176 494.389 157.814 494.802C157.168 495.634 156.226 496.832 155.11 498.345C152.85 501.357 149.872 505.615 146.781 510.443C143.697 515.278 141.086 519.759 139.288 523.048C138.378 524.687 137.675 526.032 137.184 526.959C136.958 527.453 136.687 527.929 136.375 528.379C136.531 527.861 136.736 527.356 136.986 526.87C137.417 525.915 138.067 524.542 138.934 522.875C140.646 519.533 143.212 515.007 146.304 510.156C148.936 506.014 151.77 501.994 154.795 498.113C155.957 496.624 156.948 495.458 157.649 494.666C157.991 494.238 158.371 493.84 158.784 493.478Z" fill="#F0F0F5"/>
<path d="M155.857 569.965C155.673 569.955 155.492 569.919 155.321 569.859L153.82 569.448C152.517 569.084 150.651 568.508 148.357 567.766C143.766 566.284 137.503 564.032 130.632 561.454C123.76 558.875 117.529 556.566 112.982 554.989C110.767 554.227 108.944 553.601 107.591 553.135C107.005 552.931 106.522 552.762 106.126 552.623C105.95 552.574 105.782 552.501 105.629 552.406C105.814 552.418 105.994 552.453 106.166 552.513C106.572 552.624 107.067 552.76 107.667 552.924C108.969 553.288 110.835 553.864 113.13 554.606C117.721 556.088 123.983 558.339 130.857 560.92C137.732 563.501 143.958 565.805 148.505 567.384C150.72 568.144 152.542 568.771 153.895 569.236C154.48 569.44 154.964 569.61 155.359 569.748C155.536 569.797 155.704 569.87 155.857 569.965Z" fill="#F0F0F5"/>
<path d="M180.528 518.977C180.482 519.163 180.411 519.344 180.318 519.514C180.129 519.915 179.896 520.41 179.613 521.006C178.954 522.376 178.063 524.225 176.979 526.472C174.755 531.089 171.755 537.495 168.45 544.577C165.144 551.659 162.082 558.05 159.765 562.628C158.606 564.918 157.651 566.761 156.966 568.024C156.646 568.605 156.382 569.084 156.169 569.474C156.086 569.649 155.981 569.813 155.856 569.963C155.903 569.778 155.974 569.597 156.066 569.426L156.77 567.935L159.405 562.469C161.628 557.854 164.629 551.447 167.935 544.362C171.241 537.277 174.301 530.892 176.619 526.314C177.776 524.024 178.732 522.18 179.417 520.917C179.738 520.336 180 519.857 180.215 519.467C180.298 519.292 180.403 519.127 180.528 518.977Z" fill="#F0F0F5"/>
<path d="M188.521 558.655C189.441 555.472 187.03 552.293 184.335 550C181.641 547.707 178.423 545.658 177.009 542.616C174.719 537.688 177.713 531.277 173.832 527.175C171.549 524.761 167.478 523.971 165.449 521.39C164.385 520.037 164.033 518.369 163.607 516.77C161.41 508.573 156.73 501.041 150.053 494.959C149.652 502.275 151.517 509.549 155.453 516.02C157.031 518.604 158.964 521.119 159.5 524.009C160.37 528.7 157.396 533.553 158.749 538.157C160.296 543.422 167.113 546.918 167.471 552.344C167.773 556.932 163.212 560.982 163.583 565.567C163.742 567.519 164.793 569.326 165.961 570.997C170.069 576.875 176.075 580.909 185.136 580.732L196.239 581.016L188.521 558.655Z" fill="url(#paint20_linear)"/>
<path d="M153.04 501.103C153.035 501.167 153.044 501.23 153.065 501.293C153.099 501.434 153.143 501.615 153.197 501.843C153.331 502.328 153.483 503.039 153.784 503.958C154.106 504.882 154.965 505.921 155.656 507.174C156.384 508.424 157.11 509.866 157.756 511.481C158.412 513.096 158.966 514.883 159.547 516.806C160.147 518.715 160.763 520.825 162.483 522.824C163.279 523.828 164.172 524.833 164.845 525.905C165.502 527.006 165.911 528.148 166.062 529.305C166.4 531.765 166.974 534.213 167.781 536.638C169.548 541.603 171.232 546.333 172.764 550.638C174.377 554.926 175.83 558.788 177.054 562.04L179.992 569.722C180.344 570.612 180.621 571.31 180.818 571.807C180.913 572.031 180.989 572.209 181.047 572.347C181.067 572.41 181.1 572.471 181.144 572.529C181.142 572.466 181.128 572.403 181.103 572.341C181.058 572.201 181 572.021 180.927 571.794C180.754 571.294 180.512 570.592 180.203 569.696C179.542 567.857 178.599 565.231 177.436 561.994C176.246 558.739 174.832 554.871 173.262 550.579C171.744 546.275 170.076 541.547 168.325 536.583C167.52 534.166 166.945 531.726 166.6 529.274C166.442 528.093 166.02 526.928 165.343 525.806C164.649 524.711 163.745 523.702 162.947 522.707C161.237 520.737 160.623 518.676 159.998 516.761C159.398 514.841 158.821 513.048 158.137 511.431C157.464 509.813 156.708 508.368 155.949 507.119C155.224 505.861 154.34 504.831 153.994 503.93C153.665 503.028 153.476 502.31 153.307 501.832C153.23 501.606 153.169 501.425 153.122 501.286C153.106 501.224 153.079 501.162 153.04 501.103Z" fill="#F0F0F5"/>
<path d="M200.449 581.277C207.675 577.484 209.681 566.07 206.612 559.22C203.542 552.371 198.208 546.126 197.344 538.811C196.68 533.188 198.756 527.405 197.217 521.913C195.139 514.502 186.792 508.795 186.84 501.167C186.866 496.886 189.633 492.845 189.382 488.571C189.076 483.328 184.43 479.191 181.54 474.584C177.116 467.534 176.773 459.174 175.225 451.254C173.676 443.333 170.156 434.857 162.067 431C160.92 437.738 158.919 442.359 159.617 451.475C159.867 454.749 164.273 460.998 164.913 468.173C165.296 472.462 165.57 476.757 165.899 481.049C166.218 485.226 166.557 489.478 168.301 493.378C169.636 496.367 171.769 499.078 172.766 502.166C174.643 507.974 172.268 514.288 173.792 520.175C175.083 525.162 179.074 529.44 179.917 534.5C181.102 541.609 175.868 549.028 178.616 555.803C179.979 559.164 183.175 561.852 184.099 565.325C184.816 568.02 184.072 570.879 184.723 573.587C185.772 577.949 195.348 581.292 200.449 580.997" fill="url(#paint21_linear)"/>
<path d="M164.434 437.614C164.429 437.733 164.439 437.854 164.463 437.971C164.501 438.237 164.551 438.58 164.612 439.012C164.765 439.927 164.937 441.269 165.278 443.005C165.645 444.751 166.619 446.713 167.404 449.081C168.23 451.441 169.054 454.166 169.788 457.217C170.532 460.266 171.161 463.641 171.821 467.274C172.502 470.88 173.201 474.866 175.153 478.642C176.056 480.539 177.07 482.437 177.834 484.462C178.58 486.54 179.045 488.698 179.216 490.884C179.6 495.53 180.251 500.154 181.167 504.734C183.173 514.113 185.085 523.047 186.824 531.179C188.655 539.278 190.304 546.574 191.693 552.716L195.029 567.227C195.428 568.907 195.742 570.226 195.966 571.165C196.074 571.588 196.16 571.925 196.226 572.186C196.249 572.304 196.286 572.419 196.336 572.529C196.333 572.409 196.318 572.29 196.289 572.173C196.238 571.909 196.172 571.569 196.09 571.141C195.894 570.196 195.619 568.869 195.268 567.177C194.517 563.703 193.447 558.743 192.127 552.63C190.776 546.48 189.171 539.175 187.389 531.067C185.666 522.937 183.772 514.007 181.784 504.631C180.871 500.064 180.218 495.456 179.827 490.825C179.647 488.594 179.168 486.393 178.399 484.274C177.612 482.207 176.585 480.301 175.68 478.42C173.739 474.7 173.042 470.807 172.332 467.189C171.651 463.562 170.996 460.177 170.22 457.122C169.456 454.065 168.598 451.336 167.737 448.976C166.913 446.6 165.91 444.655 165.517 442.954C165.144 441.25 164.929 439.893 164.738 438.99C164.65 438.562 164.581 438.222 164.528 437.959C164.509 437.841 164.478 437.725 164.434 437.614Z" fill="#F0F0F5"/>
<path d="M384.627 583.781C365.172 580.47 353.673 563.72 347.015 547.078C345.903 544.301 344.304 541.557 344.639 538.554C344.973 535.551 347.513 532.509 350.654 532.526C353.261 532.541 355.258 534.494 357.344 535.921C360.13 537.824 363.46 538.918 366.952 539.077C369.223 539.174 371.784 538.729 373.211 536.985C375.17 534.591 374.026 531.203 372.803 528.49C370.523 523.435 368.244 518.38 365.967 513.325C364.745 510.613 363.505 507.84 363.272 504.867C363.04 501.893 363.986 498.628 366.445 496.705C368.905 494.783 373.005 494.793 374.772 497.202C375.507 498.205 375.774 499.46 376.355 500.553C376.935 501.647 378.055 502.653 379.347 502.471C380.656 502.288 381.483 501.012 382.005 499.84C383.806 495.793 384.286 491.372 384.642 487.028C384.998 482.684 385.26 478.283 386.672 474.108C388.083 469.932 390.82 465.926 394.909 463.901C398.998 461.876 404.524 462.36 407.276 465.728C410.035 469.105 409.353 474.032 408.112 478.263C406.269 484.541 403.49 490.571 399.86 496.168C399.208 497.174 398.501 498.261 398.594 499.421C398.762 501.508 401.408 502.514 403.596 502.281C406.074 502.017 408.345 500.788 410.735 500.055C413.125 499.323 416.009 499.194 417.759 500.827C420.188 503.091 418.979 507.082 417.365 510.051C414.131 515.996 409.866 521.414 404.755 526.065C402.928 527.724 400.951 529.341 399.838 531.494C398.725 533.648 398.763 536.545 400.658 538.007C402.554 539.47 405.517 538.93 407.596 537.569C409.675 536.208 411.189 534.203 413.003 532.525C416.395 529.382 421.696 527.405 425.702 529.527C428.333 530.921 429.792 533.814 430.057 536.715C430.322 539.615 429.554 542.542 428.602 545.346C425.276 555.149 419.538 564.359 411.55 571.382C403.561 578.405 395.286 582.942 384.627 583.781Z" fill="url(#paint22_linear)"/>
<path d="M387.854 583.539C385.618 576.774 385.677 580.938 384.626 571.551C383.556 562.166 383.288 551.75 383.403 540.83C383.444 538.1 383.483 535.404 383.521 532.744C383.566 530.089 383.61 527.457 383.821 524.878C384.236 519.927 384.94 514.99 385.929 510.09C386.838 505.407 387.879 500.988 388.885 496.86C389.899 492.734 390.922 488.9 392.008 485.439C393.695 479.968 395.832 474.614 398.399 469.428C399.304 467.593 400.055 466.191 400.576 465.246C400.83 464.794 401.028 464.441 401.177 464.175C401.239 464.05 401.313 463.931 401.399 463.818C401.355 463.95 401.299 464.077 401.23 464.199C401.093 464.471 400.912 464.833 400.681 465.294C400.192 466.253 399.475 467.668 398.603 469.513C396.123 474.718 394.05 480.074 392.402 485.538C391.343 488.995 390.348 492.824 389.356 496.952C388.363 501.079 387.349 505.495 386.456 510.168C385.487 515.052 384.798 519.97 384.391 524.902C384.185 527.466 384.144 530.075 384.101 532.736C384.058 535.396 384.025 538.09 383.986 540.818C383.871 551.729 384.122 562.121 385.159 571.482C386.177 580.843 386.07 576.655 388.248 583.415" fill="#F0F0F5"/>
<path d="M383.966 524.793C383.66 524.477 383.391 524.13 383.165 523.757C382.68 523.07 382.011 522.056 381.205 520.79C379.593 518.26 377.494 514.688 375.196 510.743C372.898 506.797 370.754 503.262 369.105 500.764C368.283 499.51 367.608 498.506 367.132 497.816C366.859 497.473 366.629 497.1 366.445 496.705C366.774 497 367.066 497.329 367.317 497.687C367.853 498.339 368.584 499.313 369.451 500.541C371.197 502.991 373.41 506.504 375.71 510.456C377.965 514.356 380.006 517.884 381.565 520.581C382.278 521.794 382.879 522.816 383.362 523.637C383.608 523.999 383.811 524.386 383.966 524.793Z" fill="#F0F0F5"/>
<path d="M418.66 502.061C418.21 502.373 417.733 502.645 417.234 502.874C416.305 503.37 414.957 504.08 413.321 505.007C410.029 506.836 405.574 509.51 400.783 512.658C395.995 515.816 391.784 518.843 388.802 521.113C387.303 522.238 386.112 523.18 385.286 523.826C384.878 524.185 384.436 524.509 383.968 524.793C384.322 524.384 384.715 524.006 385.141 523.664C385.924 522.968 387.077 521.979 388.549 520.81C391.475 518.457 395.664 515.37 400.464 512.202C404.556 509.492 408.783 506.977 413.128 504.666C414.795 503.781 416.176 503.12 417.139 502.683C417.626 502.432 418.135 502.224 418.66 502.061Z" fill="#F0F0F5"/>
<path d="M384.803 570.709C384.638 570.624 384.488 570.518 384.356 570.394L383.153 569.406C382.112 568.543 380.643 567.256 378.85 565.642C375.262 562.418 370.462 557.808 365.239 552.652C360.016 547.496 355.267 542.847 351.759 539.554C350.047 537.955 348.638 536.64 347.591 535.662C347.14 535.237 346.768 534.886 346.463 534.598C346.322 534.481 346.199 534.347 346.097 534.197C346.261 534.283 346.412 534.389 346.545 534.514C346.87 534.78 347.266 535.106 347.747 535.501C348.788 536.364 350.257 537.651 352.049 539.264C355.638 542.489 360.438 547.098 365.663 552.257C370.888 557.416 375.633 562.059 379.142 565.355C380.854 566.951 382.262 568.267 383.308 569.243C383.759 569.668 384.131 570.02 384.436 570.308C384.578 570.424 384.701 570.559 384.803 570.709Z" fill="#F0F0F5"/>
<path d="M428.118 534.21C428 534.361 427.862 534.497 427.707 534.615C427.371 534.904 426.956 535.26 426.456 535.69C425.295 536.671 423.727 537.997 421.821 539.607C417.909 542.916 412.557 547.542 406.652 552.661C400.746 557.78 395.345 562.367 391.362 565.603C389.37 567.221 387.747 568.515 386.606 569.389C386.077 569.789 385.641 570.118 385.287 570.388C385.14 570.513 384.977 570.621 384.802 570.707C384.92 570.556 385.059 570.42 385.213 570.302L386.464 569.228L391.098 565.311C395.01 562.003 400.362 557.377 406.269 552.255C412.177 547.134 417.574 542.55 421.557 539.316C423.548 537.696 425.172 536.403 426.313 535.529C426.843 535.129 427.277 534.799 427.633 534.53C427.78 534.404 427.943 534.296 428.118 534.21Z" fill="#F0F0F5"/>
<path d="M460.627 586.781C441.172 583.47 429.673 566.72 423.015 550.078C421.903 547.301 420.304 544.557 420.639 541.554C420.973 538.551 423.513 535.509 426.654 535.526C429.261 535.541 431.258 537.494 433.344 538.921C436.13 540.824 439.46 541.918 442.952 542.077C445.223 542.174 447.784 541.729 449.211 539.985C451.17 537.591 450.026 534.203 448.803 531.49C446.523 526.435 444.244 521.38 441.967 516.325C440.745 513.613 439.505 510.84 439.272 507.867C439.04 504.893 439.986 501.628 442.445 499.705C444.905 497.783 449.005 497.793 450.772 500.202C451.507 501.205 451.774 502.46 452.355 503.553C452.935 504.647 454.055 505.653 455.347 505.471C456.656 505.288 457.483 504.012 458.005 502.84C459.806 498.793 460.286 494.372 460.642 490.028C460.998 485.684 461.26 481.283 462.672 477.108C464.083 472.932 466.82 468.926 470.909 466.901C474.998 464.876 480.524 465.36 483.276 468.728C486.035 472.105 485.353 477.032 484.112 481.263C482.269 487.541 479.49 493.571 475.86 499.168C475.208 500.174 474.501 501.261 474.594 502.421C474.762 504.508 477.408 505.514 479.596 505.281C482.074 505.017 484.345 503.788 486.735 503.055C489.125 502.323 492.009 502.194 493.759 503.827C496.188 506.091 494.979 510.082 493.365 513.051C490.131 518.996 485.866 524.414 480.755 529.065C478.928 530.724 476.951 532.341 475.838 534.494C474.725 536.648 474.763 539.545 476.658 541.007C478.554 542.47 481.517 541.93 483.596 540.569C485.675 539.208 487.189 537.203 489.003 535.525C492.395 532.382 497.696 530.405 501.702 532.527C504.333 533.921 505.792 536.814 506.057 539.715C506.322 542.615 505.554 545.542 504.602 548.346C501.276 558.149 495.538 567.359 487.55 574.382C479.561 581.405 471.286 585.942 460.627 586.781Z" fill="url(#paint23_linear)"/>
<path d="M463.854 586.539C461.618 579.774 461.677 583.938 460.626 574.551C459.556 565.166 459.288 554.75 459.403 543.83C459.444 541.1 459.483 538.404 459.521 535.744C459.566 533.089 459.61 530.457 459.821 527.878C460.236 522.927 460.94 517.99 461.929 513.09C462.838 508.407 463.879 503.988 464.885 499.86C465.899 495.734 466.922 491.9 468.008 488.439C469.695 482.968 471.832 477.614 474.399 472.428C475.304 470.593 476.055 469.191 476.576 468.246C476.83 467.794 477.028 467.441 477.177 467.175C477.239 467.05 477.313 466.931 477.399 466.818C477.355 466.95 477.299 467.077 477.23 467.199C477.093 467.471 476.912 467.833 476.681 468.294C476.192 469.253 475.475 470.668 474.603 472.513C472.123 477.718 470.05 483.074 468.402 488.538C467.343 491.995 466.348 495.824 465.356 499.952C464.363 504.079 463.349 508.495 462.456 513.168C461.487 518.052 460.798 522.97 460.391 527.902C460.185 530.466 460.144 533.075 460.101 535.736C460.058 538.396 460.025 541.09 459.986 543.818C459.871 554.729 460.122 565.121 461.159 574.482C462.177 583.843 462.07 579.655 464.248 586.415" fill="#F0F0F5"/>
<path d="M459.966 527.793C459.66 527.477 459.391 527.13 459.165 526.757C458.68 526.07 458.011 525.056 457.205 523.79C455.593 521.26 453.494 517.688 451.196 513.743C448.898 509.797 446.754 506.262 445.105 503.764C444.283 502.51 443.608 501.506 443.132 500.816C442.859 500.473 442.629 500.1 442.445 499.705C442.774 500 443.066 500.329 443.317 500.687C443.853 501.339 444.584 502.313 445.451 503.541C447.197 505.991 449.41 509.504 451.71 513.456C453.965 517.356 456.006 520.884 457.565 523.581C458.278 524.794 458.879 525.816 459.362 526.637C459.608 526.999 459.811 527.386 459.966 527.793Z" fill="#F0F0F5"/>
<path d="M494.66 505.061C494.21 505.373 493.733 505.645 493.234 505.874C492.305 506.37 490.957 507.08 489.321 508.007C486.029 509.836 481.574 512.51 476.783 515.658C471.995 518.816 467.784 521.843 464.802 524.113C463.303 525.238 462.112 526.18 461.286 526.826C460.878 527.185 460.436 527.509 459.968 527.793C460.322 527.384 460.715 527.006 461.141 526.664C461.924 525.968 463.077 524.979 464.549 523.81C467.475 521.457 471.664 518.37 476.464 515.202C480.556 512.492 484.783 509.977 489.128 507.666C490.795 506.781 492.176 506.12 493.139 505.683C493.626 505.432 494.135 505.224 494.66 505.061Z" fill="#F0F0F5"/>
<path d="M460.803 573.709C460.638 573.624 460.488 573.518 460.356 573.394L459.153 572.406C458.112 571.543 456.643 570.256 454.85 568.642C451.262 565.418 446.462 560.808 441.239 555.652C436.016 550.496 431.267 545.847 427.759 542.554C426.047 540.955 424.638 539.64 423.592 538.662C423.14 538.237 422.768 537.886 422.463 537.598C422.322 537.481 422.199 537.347 422.097 537.197C422.261 537.283 422.412 537.389 422.545 537.514C422.87 537.78 423.266 538.106 423.747 538.501C424.788 539.364 426.257 540.651 428.049 542.264C431.638 545.489 436.438 550.098 441.663 555.257C446.888 560.416 451.633 565.059 455.142 568.355C456.854 569.951 458.263 571.267 459.308 572.243C459.759 572.668 460.132 573.02 460.437 573.308C460.578 573.424 460.701 573.559 460.803 573.709Z" fill="#F0F0F5"/>
<path d="M504.118 537.21C504 537.361 503.862 537.497 503.707 537.615C503.371 537.904 502.956 538.26 502.456 538.69C501.295 539.671 499.727 540.997 497.821 542.607C493.909 545.916 488.557 550.542 482.652 555.661C476.746 560.78 471.345 565.367 467.362 568.603C465.37 570.221 463.747 571.515 462.606 572.389C462.077 572.789 461.641 573.118 461.287 573.388C461.14 573.513 460.977 573.621 460.802 573.707C460.92 573.556 461.059 573.42 461.213 573.302L462.464 572.228L467.098 568.311C471.01 565.003 476.362 560.377 482.269 555.255C488.177 550.134 493.574 545.55 497.557 542.316C499.548 540.696 501.172 539.403 502.313 538.529C502.843 538.129 503.277 537.799 503.633 537.53C503.78 537.404 503.943 537.296 504.118 537.21Z" fill="#F0F0F5"/>
<path d="M294.701 585.146C275.032 583.533 262.125 567.842 254.051 551.84C252.702 549.169 250.872 546.574 250.945 543.554C251.018 540.533 253.285 537.282 256.415 537.027C259.014 536.816 261.172 538.589 263.375 539.83C266.315 541.484 269.727 542.285 273.219 542.141C275.491 542.041 278.004 541.376 279.274 539.515C281.019 536.961 279.585 533.684 278.132 531.088C275.422 526.249 272.714 521.411 270.008 516.572C268.555 513.976 267.08 511.321 266.59 508.379C266.101 505.436 266.76 502.102 269.044 499.973C271.328 497.844 275.414 497.5 277.383 499.747C278.202 500.682 278.577 501.909 279.25 502.948C279.923 503.987 281.126 504.893 282.397 504.599C283.685 504.303 284.399 502.961 284.817 501.748C286.261 497.56 286.356 493.114 286.335 488.756C286.313 484.398 286.193 479.99 287.237 475.708C288.282 471.426 290.661 467.198 294.559 464.827C298.457 462.455 304.004 462.458 307.038 465.575C310.079 468.701 309.827 473.668 308.957 477.991C307.665 484.404 305.419 490.653 302.287 496.543C301.725 497.601 301.114 498.746 301.308 499.893C301.656 501.958 304.379 502.732 306.538 502.309C308.984 501.832 311.141 500.41 313.458 499.474C315.776 498.537 318.637 498.159 320.522 499.634C323.138 501.679 322.279 505.76 320.929 508.857C318.222 515.061 314.442 520.827 309.753 525.904C308.077 527.714 306.248 529.497 305.325 531.739C304.403 533.98 304.691 536.863 306.706 538.156C308.722 539.449 311.627 538.654 313.581 537.118C315.534 535.582 316.868 533.453 318.53 531.625C321.637 528.2 326.747 525.771 330.922 527.538C333.664 528.699 335.368 531.455 335.883 534.321C336.399 537.188 335.887 540.17 335.181 543.046C332.717 553.101 327.798 562.773 320.448 570.462C313.098 578.15 305.247 583.387 294.701 585.146Z" fill="url(#paint24_linear)"/>
<path d="M297.895 584.626C295.081 578.079 295.5 582.223 293.64 572.963C291.761 563.706 290.592 553.351 289.761 542.463C289.565 539.739 289.37 537.051 289.178 534.397C288.992 531.749 288.808 529.122 288.796 526.535C288.78 521.567 289.053 516.587 289.614 511.619C290.114 506.875 290.768 502.383 291.413 498.184C292.066 493.985 292.753 490.077 293.535 486.534C294.741 480.938 296.407 475.419 298.515 470.03C299.258 468.124 299.884 466.661 300.321 465.675C300.535 465.203 300.702 464.835 300.827 464.556C300.878 464.426 300.942 464.301 301.018 464.182C300.986 464.316 300.94 464.448 300.882 464.576C300.77 464.859 300.62 465.235 300.43 465.714C300.026 466.712 299.435 468.184 298.725 470.097C296.706 475.497 295.105 481.013 293.937 486.6C293.181 490.135 292.521 494.036 291.89 498.234C291.259 502.432 290.631 506.919 290.146 511.652C289.604 516.601 289.343 521.56 289.365 526.509C289.382 529.081 289.567 531.685 289.755 534.338C289.942 536.992 290.143 539.679 290.34 542.4C291.172 553.281 292.321 563.612 294.165 572.848C295.99 582.085 295.521 577.922 298.277 584.468" fill="#F0F0F5"/>
<path d="M288.933 526.437C288.6 526.149 288.302 525.826 288.044 525.474C287.502 524.832 286.747 523.88 285.835 522.688C284.01 520.307 281.61 516.931 278.979 513.199C276.348 509.468 273.905 506.132 272.046 503.785C271.118 502.608 270.359 501.666 269.824 501.02C269.523 500.702 269.261 500.35 269.044 499.973C269.397 500.238 269.717 500.54 269.998 500.875C270.588 501.478 271.401 502.386 272.371 503.533C274.323 505.823 276.832 509.131 279.465 512.869C282.05 516.559 284.389 519.897 286.176 522.449C286.991 523.596 287.679 524.562 288.23 525.338C288.507 525.677 288.742 526.045 288.933 526.437Z" fill="#F0F0F5"/>
<path d="M321.526 500.786C321.106 501.135 320.654 501.448 320.177 501.719C319.294 502.294 318.013 503.118 316.462 504.183C313.342 506.291 309.135 509.34 304.635 512.891C300.138 516.452 296.206 519.833 293.431 522.352C292.035 523.603 290.931 524.644 290.164 525.36C289.788 525.753 289.376 526.114 288.934 526.437C289.252 525.999 289.61 525.588 290.005 525.211C290.725 524.45 291.788 523.364 293.153 522.073C295.864 519.475 299.77 516.037 304.278 512.464C308.12 509.411 312.112 506.539 316.241 503.86C317.826 502.834 319.144 502.056 320.065 501.537C320.529 501.244 321.018 500.993 321.526 500.786Z" fill="#F0F0F5"/>
<path d="M293.743 572.108C293.572 572.038 293.413 571.945 293.271 571.833L291.987 570.953C290.875 570.183 289.3 569.028 287.375 567.576C283.521 564.675 278.339 560.498 272.689 555.814C267.039 551.13 261.905 546.91 258.125 543.932C256.281 542.488 254.763 541.3 253.636 540.417C253.15 540.033 252.749 539.715 252.42 539.454C252.269 539.35 252.135 539.227 252.021 539.087C252.192 539.158 252.351 539.251 252.494 539.363C252.841 539.601 253.264 539.891 253.777 540.242C254.889 541.012 256.464 542.167 258.389 543.619C262.244 546.521 267.425 550.697 273.077 555.384C278.729 560.071 283.859 564.285 287.64 567.264C289.484 568.707 291.001 569.896 292.127 570.777C292.614 571.161 293.015 571.48 293.344 571.74C293.495 571.844 293.629 571.968 293.743 572.108Z" fill="#F0F0F5"/>
<path d="M333.734 531.994C333.63 532.155 333.504 532.303 333.36 532.433C333.05 532.75 332.668 533.141 332.206 533.612C331.135 534.691 329.688 536.147 327.929 537.916C324.317 541.552 319.387 546.624 313.947 552.235C308.507 557.846 303.523 562.884 299.836 566.453C297.992 568.238 296.487 569.667 295.426 570.637C294.933 571.081 294.527 571.447 294.198 571.746C294.063 571.884 293.909 572.005 293.742 572.106C293.848 571.946 293.974 571.799 294.117 571.668L295.27 570.488L299.547 566.185C303.158 562.551 308.089 557.478 313.531 551.864C318.973 546.25 323.952 541.216 327.64 537.649C329.483 535.863 330.989 534.434 332.05 533.464C332.543 533.02 332.947 532.653 333.278 532.355C333.414 532.216 333.567 532.095 333.734 531.994Z" fill="#F0F0F5"/>
<path d="M339.537 554.331C341.37 551.571 340.024 547.815 338.143 544.819C336.261 541.823 333.807 538.902 333.372 535.575C332.667 530.187 337.449 524.971 334.978 519.893C333.525 516.905 329.88 514.928 328.719 511.858C328.111 510.248 328.275 508.551 328.349 506.898C328.715 498.42 326.512 489.829 321.971 482.024C319.391 488.881 318.986 496.38 320.797 503.733C321.526 506.673 322.614 509.652 322.258 512.569C321.68 517.306 317.385 521.041 317.293 525.839C317.188 531.326 322.641 536.707 321.353 541.99C320.263 546.457 314.696 548.951 313.674 553.435C313.239 555.345 313.699 557.384 314.311 559.329C316.465 566.169 320.982 571.82 329.678 574.373L340.183 577.978L339.537 554.331Z" fill="url(#paint25_linear)"/>
<path d="M322.974 488.781C322.951 488.84 322.94 488.903 322.942 488.969C322.932 489.114 322.919 489.3 322.902 489.534C322.885 490.037 322.815 490.76 322.827 491.727C322.857 492.706 323.364 493.954 323.647 495.357C323.966 496.768 324.225 498.362 324.357 500.096C324.497 501.833 324.489 503.704 324.466 505.713C324.465 507.714 324.419 509.912 325.459 512.335C325.917 513.532 326.467 514.759 326.787 515.983C327.084 517.23 327.131 518.442 326.927 519.592C326.511 522.039 326.323 524.547 326.365 527.102C326.56 532.369 326.746 537.386 326.914 541.952C327.165 546.527 327.391 550.647 327.582 554.117L328.078 562.326C328.147 563.281 328.201 564.03 328.24 564.563C328.263 564.805 328.281 564.998 328.295 565.147C328.296 565.213 328.309 565.281 328.333 565.35C328.35 565.289 328.356 565.224 328.351 565.158C328.35 565.011 328.349 564.821 328.348 564.584C328.333 564.055 328.313 563.312 328.287 562.364C328.208 560.412 328.097 557.624 327.96 554.188C327.802 550.725 327.615 546.611 327.407 542.045C327.251 537.484 327.08 532.474 326.9 527.213C326.858 524.666 327.042 522.166 327.45 519.724C327.653 518.549 327.6 517.311 327.292 516.038C326.959 514.786 326.399 513.551 325.937 512.362C324.897 509.97 324.931 507.82 324.91 505.805C324.914 503.794 324.901 501.911 324.735 500.163C324.579 498.417 324.292 496.812 323.943 495.392C323.629 493.975 323.095 492.727 323.035 491.764C322.993 490.805 323.028 490.063 323.011 489.556C323.005 489.317 323.001 489.127 322.998 488.98C323.002 488.916 322.994 488.849 322.974 488.781Z" fill="#F0F0F5"/>
<path d="M344.121 579.491C352.152 578.042 357.493 567.758 356.622 560.302C355.751 552.847 352.538 545.289 353.911 538.052C354.966 532.49 358.682 527.596 358.864 521.896C359.108 514.203 352.859 506.253 355.196 498.991C356.506 494.916 360.358 491.892 361.403 487.74C362.685 482.647 359.496 477.306 358.122 472.043C356.019 463.991 358.203 455.914 359.104 447.894C360.006 439.874 359.193 430.732 352.636 424.624C349.518 430.706 346.223 434.513 344.15 443.418C343.406 446.616 345.732 453.899 344.188 460.936C343.265 465.141 342.237 469.32 341.262 473.514C340.312 477.593 339.359 481.751 339.851 485.995C340.227 489.247 341.447 492.473 341.471 495.718C341.517 501.822 337.356 507.131 337.042 513.204C336.776 518.348 339.298 523.627 338.583 528.708C337.578 535.844 330.358 541.349 330.945 548.636C331.236 552.252 333.477 555.775 333.315 559.365C333.19 562.151 331.622 564.655 331.43 567.433C331.121 571.909 339.251 577.974 344.205 579.224" fill="url(#paint26_linear)"/>
<path d="M352.907 431.642C352.867 431.755 352.84 431.873 352.828 431.993C352.784 432.258 352.729 432.6 352.658 433.03C352.529 433.948 352.289 435.281 352.094 437.039C351.919 438.815 352.26 440.978 352.297 443.472C352.376 445.972 352.344 448.818 352.128 451.949C351.922 455.081 351.508 458.489 351.047 462.153C350.614 465.797 350.083 469.809 350.812 473.996C351.104 476.077 351.501 478.192 351.622 480.353C351.709 482.559 351.504 484.756 351.012 486.893C349.982 491.44 349.215 496.046 348.713 500.69C347.811 510.239 346.952 519.334 346.168 527.613C345.482 535.888 344.865 543.343 344.346 549.619L343.17 564.461C343.047 566.184 342.95 567.537 342.881 568.5C342.857 568.935 342.838 569.282 342.822 569.551C342.809 569.67 342.81 569.791 342.824 569.911C342.858 569.796 342.879 569.678 342.887 569.558C342.917 569.29 342.957 568.946 343.007 568.513C343.103 567.554 343.239 566.205 343.413 564.486C343.74 560.946 344.208 555.894 344.785 549.667C345.343 543.395 346.006 535.945 346.741 527.676C347.539 519.404 348.414 510.318 349.333 500.777C349.833 496.147 350.594 491.555 351.612 487.02C352.11 484.839 352.314 482.595 352.217 480.343C352.087 478.135 351.68 476.008 351.381 473.942C350.647 469.811 351.151 465.889 351.561 462.225C352 458.561 352.391 455.135 352.569 451.988C352.758 448.843 352.759 445.982 352.646 443.472C352.574 440.959 352.201 438.802 352.337 437.061C352.493 435.324 352.695 433.965 352.784 433.047C352.829 432.613 352.865 432.267 352.893 432C352.911 431.882 352.916 431.762 352.907 431.642Z" fill="#F0F0F5"/>
<defs>
<radialGradient id="paint0_angular" cx="0" cy="0" r="1" gradientUnits="userSpaceOnUse" gradientTransform="translate(202.131 319.289) rotate(-90) scale(19.0391 13.6959)">
<stop stop-color="#EA80FC"/>
<stop offset="0.140625" stop-color="#80D8FF" stop-opacity="0.66"/>
<stop offset="0.46875" stop-color="#80D8FF" stop-opacity="0.66"/>
</radialGradient>
<radialGradient id="paint1_angular" cx="0" cy="0" r="1" gradientUnits="userSpaceOnUse" gradientTransform="translate(453.279 441.548) rotate(-90) scale(19.2882 13.7711)">
<stop stop-color="#EA80FC"/>
<stop offset="0.140625" stop-color="#80D8FF" stop-opacity="0.66"/>
<stop offset="0.46875" stop-color="#80D8FF" stop-opacity="0.66"/>
</radialGradient>
<radialGradient id="paint2_angular" cx="0" cy="0" r="1" gradientUnits="userSpaceOnUse" gradientTransform="translate(265.358 373.95) rotate(-90) scale(19.0391 13.696)">
<stop stop-color="#EA80FC"/>
<stop offset="0.140625" stop-color="#80D8FF" stop-opacity="0.66"/>
<stop offset="0.46875" stop-color="#80D8FF" stop-opacity="0.66"/>
</radialGradient>
<radialGradient id="paint3_angular" cx="0" cy="0" r="1" gradientUnits="userSpaceOnUse" gradientTransform="translate(346.523 313.169) rotate(-90) scale(19.0391 13.696)">
<stop stop-color="#EA80FC"/>
<stop offset="0.140625" stop-color="#80D8FF" stop-opacity="0.66"/>
<stop offset="0.46875" stop-color="#80D8FF" stop-opacity="0.66"/>
</radialGradient>
<radialGradient id="paint4_angular" cx="0" cy="0" r="1" gradientUnits="userSpaceOnUse" gradientTransform="translate(314.877 447.546) rotate(-90) scale(19.3601 13.5313)">
<stop stop-color="#EA80FC"/>
<stop offset="0.140625" stop-color="#80D8FF" stop-opacity="0.66"/>
<stop offset="0.46875" stop-color="#80D8FF" stop-opacity="0.66"/>
</radialGradient>
<radialGradient id="paint5_angular" cx="0" cy="0" r="1" gradientUnits="userSpaceOnUse" gradientTransform="translate(406.236 383.982) rotate(-90) scale(20 13.5)">
<stop stop-color="#EA80FC"/>
<stop offset="0.140625" stop-color="#80D8FF" stop-opacity="0.66"/>
<stop offset="0.46875" stop-color="#80D8FF" stop-opacity="0.66"/>
</radialGradient>
<radialGradient id="paint6_angular" cx="0" cy="0" r="1" gradientUnits="userSpaceOnUse" gradientTransform="translate(148.388 403.031) rotate(-90) scale(19.0736 13.6862)">
<stop stop-color="#EA80FC"/>
<stop offset="0.140625" stop-color="#80D8FF" stop-opacity="0.66"/>
<stop offset="0.46875" stop-color="#80D8FF" stop-opacity="0.66"/>
</radialGradient>
<radialGradient id="paint7_angular" cx="0" cy="0" r="1" gradientUnits="userSpaceOnUse" gradientTransform="translate(520.233 346.278) rotate(-102.546) scale(20.5354 13.7889)">
<stop stop-color="#EA80FC"/>
<stop offset="0.140625" stop-color="#80D8FF" stop-opacity="0.66"/>
<stop offset="0.46875" stop-color="#80D8FF" stop-opacity="0.66"/>
</radialGradient>
<radialGradient id="paint8_angular" cx="0" cy="0" r="1" gradientUnits="userSpaceOnUse" gradientTransform="translate(168.074 175.063) rotate(-90) scale(19.0392 13.6961)">
<stop stop-color="#EA80FC"/>
<stop offset="0.140625" stop-color="#80D8FF" stop-opacity="0.66"/>
<stop offset="0.46875" stop-color="#80D8FF" stop-opacity="0.66"/>
</radialGradient>
<radialGradient id="paint9_angular" cx="0" cy="0" r="1" gradientUnits="userSpaceOnUse" gradientTransform="translate(467.05 167.155) rotate(-90) scale(19.0391 13.696)">
<stop stop-color="#EA80FC"/>
<stop offset="0.140625" stop-color="#80D8FF" stop-opacity="0.66"/>
<stop offset="0.46875" stop-color="#80D8FF" stop-opacity="0.66"/>
</radialGradient>
<radialGradient id="paint10_angular" cx="0" cy="0" r="1" gradientUnits="userSpaceOnUse" gradientTransform="translate(356.249 152.262) rotate(-90) scale(16.5827 11.929)">
<stop stop-color="#EA80FC"/>
<stop offset="0.140625" stop-color="#80D8FF" stop-opacity="0.66"/>
<stop offset="0.46875" stop-color="#80D8FF" stop-opacity="0.66"/>
</radialGradient>
<radialGradient id="paint11_angular" cx="0" cy="0" r="1" gradientUnits="userSpaceOnUse" gradientTransform="translate(244.896 242.115) rotate(-90) scale(11.1047 7.9883)">
<stop stop-color="#EA80FC"/>
<stop offset="0.140625" stop-color="#80D8FF" stop-opacity="0.66"/>
<stop offset="0.46875" stop-color="#80D8FF" stop-opacity="0.66"/>
</radialGradient>
<radialGradient id="paint12_angular" cx="0" cy="0" r="1" gradientUnits="userSpaceOnUse" gradientTransform="translate(452.432 438.021) rotate(-90) scale(19.0391 13.696)">
<stop stop-color="#EA80FC"/>
<stop offset="0.140625" stop-color="#80D8FF" stop-opacity="0.66"/>
<stop offset="0.46875" stop-color="#80D8FF" stop-opacity="0.66"/>
</radialGradient>
<linearGradient id="paint13_linear" x1="75.574" y1="445.541" x2="75.574" y2="584.854" gradientUnits="userSpaceOnUse">
<stop stop-color="#EA80FC"/>
<stop offset="1" stop-color="#80D8FF" stop-opacity="0.66"/>
</linearGradient>
<linearGradient id="paint14_linear" x1="90.5327" y1="342" x2="90.5327" y2="585.277" gradientUnits="userSpaceOnUse">
<stop stop-color="#EA80FC"/>
<stop offset="1" stop-color="#80D8FF" stop-opacity="0.66"/>
</linearGradient>
<linearGradient id="paint15_linear" x1="398.107" y1="442.438" x2="450.927" y2="559.898" gradientUnits="userSpaceOnUse">
<stop stop-color="#EA80FC"/>
<stop offset="1" stop-color="#80D8FF" stop-opacity="0.66"/>
</linearGradient>
<linearGradient id="paint16_linear" x1="234.857" y1="460.597" x2="271.475" y2="579.255" gradientUnits="userSpaceOnUse">
<stop stop-color="#EA80FC"/>
<stop offset="1" stop-color="#80D8FF" stop-opacity="0.66"/>
</linearGradient>
<linearGradient id="paint17_linear" x1="530.5" y1="351" x2="530.5" y2="584.291" gradientUnits="userSpaceOnUse">
<stop stop-color="#EA80FC"/>
<stop offset="1" stop-color="#80D8FF" stop-opacity="0.66"/>
</linearGradient>
<linearGradient id="paint18_linear" x1="204.549" y1="462.582" x2="240.498" y2="582.33" gradientUnits="userSpaceOnUse">
<stop stop-color="#EA80FC"/>
<stop offset="1" stop-color="#80D8FF" stop-opacity="0.66"/>
</linearGradient>
<linearGradient id="paint19_linear" x1="99.1567" y1="489.39" x2="175.569" y2="570.117" gradientUnits="userSpaceOnUse">
<stop stop-color="#EA80FC"/>
<stop offset="1" stop-color="#80D8FF" stop-opacity="0.66"/>
</linearGradient>
<linearGradient id="paint20_linear" x1="173.119" y1="494.959" x2="173.119" y2="581.016" gradientUnits="userSpaceOnUse">
<stop stop-color="#EA80FC"/>
<stop offset="1" stop-color="#80D8FF" stop-opacity="0.66"/>
</linearGradient>
<linearGradient id="paint21_linear" x1="183.736" y1="431" x2="183.736" y2="581.277" gradientUnits="userSpaceOnUse">
<stop stop-color="#EA80FC"/>
<stop offset="1" stop-color="#80D8FF" stop-opacity="0.66"/>
</linearGradient>
<linearGradient id="paint22_linear" x1="365.88" y1="474.017" x2="402.739" y2="578.885" gradientUnits="userSpaceOnUse">
<stop stop-color="#EA80FC"/>
<stop offset="1" stop-color="#80D8FF" stop-opacity="0.66"/>
</linearGradient>
<linearGradient id="paint23_linear" x1="441.88" y1="477.017" x2="478.739" y2="581.885" gradientUnits="userSpaceOnUse">
<stop stop-color="#EA80FC"/>
<stop offset="1" stop-color="#80D8FF" stop-opacity="0.66"/>
</linearGradient>
<linearGradient id="paint24_linear" x1="266.516" y1="477.419" x2="312.321" y2="578.699" gradientUnits="userSpaceOnUse">
<stop stop-color="#EA80FC"/>
<stop offset="1" stop-color="#80D8FF" stop-opacity="0.66"/>
</linearGradient>
<linearGradient id="paint25_linear" x1="343.972" y1="488.95" x2="318.131" y2="571.035" gradientUnits="userSpaceOnUse">
<stop stop-color="#EA80FC"/>
<stop offset="1" stop-color="#80D8FF" stop-opacity="0.66"/>
</linearGradient>
<linearGradient id="paint26_linear" x1="373.305" y1="431.13" x2="328.179" y2="574.472" gradientUnits="userSpaceOnUse">
<stop stop-color="#EA80FC"/>
<stop offset="1" stop-color="#80D8FF" stop-opacity="0.66"/>
</linearGradient>
</defs>
</svg>
